<?xml version="1.0" encoding="utf-8"?>
<!-- Generator: Adobe Illustrator 26.3.1, SVG Export Plug-In . SVG Version: 6.00 Build 0)  -->
<svg version="1.1" id="Layer_1" xmlns="http://www.w3.org/2000/svg" xmlns:xlink="http://www.w3.org/1999/xlink" x="0px" y="0px"
	 viewBox="0 0 2959.1 3744.8" style="enable-background:new 0 0 2959.1 3744.8;" xml:space="preserve">
<path d="M1755.4,702.2c193.8,0,351.1-157.3,351.1-351.1S1949.2,0,1755.4,0s-351.1,157.3-351.1,351.1S1561.6,702.2,1755.4,702.2z
	 M585.2,2099.9c53.5,0,102.2-34.8,116.1-86.7L1002,855.7c2.5-9.4,3.7-18.9,3.7-28.3c0-51.3-36.5-98.3-90.6-110.7
	c-49.2-11.9-98.2-17.6-146.4-17.6c-268.1,0-512,174.4-580.2,435.4l-184.8,718c-2.5,9.5-3.8,19-3.8,28.5c0,51.2,36.3,98.2,90.4,110.5
	L556,2102.8C565.8,2105,575.6,2099.9,585.2,2099.9z M2691.6,1170.3h-110.4c-64.9,0-110.4,52.1-110.4,117v117h-254.2l-341.9-341.9
	c-94.4-81.6-202.6-126.2-317.4-126.2c-197.5,0-368.6,133.8-416.9,325.5l-196.7,788.5c-4.4,18.3-7.3,38-7.3,57.1
	c0,60.9,23.9,120.2,68.4,164.8l633.5,633.6v605.2c0,128.9,105.1,234.1,227.5,234.1s234.1-105.2,234.1-234.1v-605.2
	c0-125.2-48.5-242.3-137.1-331l-342.8-342.9c1.8-3.7,3.7-6.4,4.6-10.1l139.7-581.5l163.6,163.7c57.4,43.7,116.7,68.6,178.8,68.6
	H2451v1755.4c0,64.9,52.1,117,110.4,117h110.4c84.8,0,136.8-51.9,136.8-117V1287.3C2808.6,1222.2,2756.7,1170.3,2691.6,1170.3z
	 M592.5,3454.4c-4.9,19.2-7.3,38.5-7.3,57.5c0,104.5,71.3,199.6,177.3,225.9c19.3,5.5,38.3,6.9,56.6,6.9
	c105.1,0,200.2-71.3,220.2-177.4l184.7-738.7l-385.8-385.8L592.5,3454.4z"/>
</svg>
