<?xml version="1.0" encoding="utf-8"?>
<!-- Generator: Adobe Illustrator 28.1.0, SVG Export Plug-In . SVG Version: 6.00 Build 0)  -->
<svg version="1.1" id="Layer_1" xmlns="http://www.w3.org/2000/svg" xmlns:xlink="http://www.w3.org/1999/xlink" x="0px" y="0px"
	 viewBox="0 0 50 50" style="enable-background:new 0 0 50 50;" xml:space="preserve">
<style type="text/css">
	.st0{fill:#26292C;}
</style>
<path class="st0" d="M9,4C6.3,4,4,6.3,4,9v32c0,2.7,2.3,5,5,5h32c2.7,0,5-2.3,5-5V9c0-2.7-2.3-5-5-5H9z M9,6h32c1.7,0,3,1.3,3,3v32
	c0,1.7-1.3,3-3,3H9c-1.7,0-3-1.3-3-3V9C6,7.3,7.3,6,9,6z M16,17c-4.4,0-8,3.6-8,8s3.6,8,8,8s8-3.6,8-8S20.4,17,16,17z M34,17
	c-4.4,0-8,3.6-8,8s3.6,8,8,8s8-3.6,8-8S38.4,17,34,17z"/>
</svg>
