<?xml version="1.0" encoding="utf-8"?>
<!-- Generator: Adobe Illustrator 28.1.0, SVG Export Plug-In . SVG Version: 6.00 Build 0)  -->
<svg version="1.1" id="Layer_1" xmlns="http://www.w3.org/2000/svg" xmlns:xlink="http://www.w3.org/1999/xlink" x="0px" y="0px"
	 viewBox="0 0 50 50" style="enable-background:new 0 0 50 50;" xml:space="preserve">
<style type="text/css">
	.st0{fill:#26292C;}
</style>
<path class="st0" d="M41,4H9C6.2,4,4,6.2,4,9v32c0,2.8,2.2,5,5,5h32c2.8,0,5-2.2,5-5V9C46,6.2,43.8,4,41,4z M17,20v19h-6V20H17z
	 M11,14.5c0-1.4,1.2-2.5,3-2.5s2.9,1.1,3,2.5c0,1.4-1.1,2.5-3,2.5C12.2,17,11,15.9,11,14.5z M39,39h-6c0,0,0-9.3,0-10c0-2-1-4-3.5-4
	h-0.1C27,25,26,27,26,29c0,0.9,0,10,0,10h-6V20h6v2.6c0,0,1.9-2.6,5.8-2.6c4,0,7.2,2.7,7.2,8.3V39z"/>
</svg>
