<?xml version="1.0" encoding="utf-8"?>
<!-- Generator: Adobe Illustrator 28.1.0, SVG Export Plug-In . SVG Version: 6.00 Build 0)  -->
<svg version="1.1" id="Layer_1" xmlns="http://www.w3.org/2000/svg" xmlns:xlink="http://www.w3.org/1999/xlink" x="0px" y="0px"
	 viewBox="0 0 50 50" style="enable-background:new 0 0 50 50;" xml:space="preserve">
<style type="text/css">
	.st0{fill:#26292C;}
</style>
<path class="st0" d="M17.8,46.8c0.7-0.3,1.2-1,1.2-1.8v-5.4c0-0.2,0-0.4,0-0.6c0,0,0,0,0,0c0,0-3,0-3.6,0c-1.5,0-2.8-0.6-3.4-1.8
	c-0.7-1.3-1-3.5-2.8-4.7C8.9,32.3,9.1,32,9.7,32c0.6,0.1,1.9,0.9,2.7,2c0.9,1.1,1.8,2,3.4,2c2.5,0,3.8-0.1,4.6-0.6
	c0.9-1.4,2.2-2.4,3.6-2.4v0c-5.7-0.2-9.3-2.1-11-5c-3.7,0-6.9,0.4-8.7,0.7c-0.1-0.3-0.1-0.7-0.2-1C6,27.4,9,27.1,12.5,27
	c-0.1-0.3-0.2-0.6-0.3-0.8c-3.5-0.2-6.5,0-8.2,0.1c0-0.3,0-0.7-0.1-1c1.6-0.1,4.6-0.3,8-0.1c-0.1-0.5-0.1-1-0.1-1.5
	c0-1.7,0.6-3.5,1.7-5c-0.5-1.7-1.2-5.3,0.2-6.6c2.7,0,4.6,1.3,5.5,2.1C21,13.4,22.9,13,25,13s4,0.4,5.6,1.1c0.9-0.8,2.8-2.1,5.5-2.1
	c1.5,1.4,0.7,5,0.2,6.6c1.1,1.5,1.7,3.2,1.6,5c0,0.5,0,1-0.1,1.4c3.5-0.2,6.5,0,8.2,0.1c0,0.3,0,0.7-0.1,1c-1.7-0.1-4.8-0.3-8.4-0.1
	c-0.1,0.3-0.2,0.7-0.3,1c3.5,0,6.7,0.4,8.5,0.7c0,0.3-0.1,0.7-0.2,1c-1.9-0.3-5.2-0.7-8.9-0.7c-1.7,2.9-5.2,4.8-10.8,5v0
	c2.6,0,5,3.9,5,6.6V45c0,0.8,0.5,1.5,1.2,1.8C41.4,43.8,48,35.2,48,25C48,12.3,37.7,2,25,2S2,12.3,2,25C2,35.2,8.6,43.8,17.8,46.8z"
	/>
</svg>
