<?xml version="1.0" encoding="utf-8"?>
<!-- Generator: Adobe Illustrator 27.7.0, SVG Export Plug-In . SVG Version: 6.00 Build 0)  -->
<svg version="1.1" id="Layer_2_00000075866440548442893160000017924195256848977064_"
	 xmlns="http://www.w3.org/2000/svg" xmlns:xlink="http://www.w3.org/1999/xlink" x="0px" y="0px" viewBox="0 0 399 208.4"
	 style="enable-background:new 0 0 399 208.4;" xml:space="preserve">
<style type="text/css">
	.st0{fill:#231F20;}
</style>
<g id="Layer_1-2">
	<path class="st0" d="M399,0l-37.4,112.1c-5.1-10.8-15.5-18.2-28.8-18.2c-12.5,0-19.7,5.3-24.5,13.1c0.3-3.3,0.5-6.7,0.5-10
		c0-37.5-19-70.9-48.3-90.1l2-6.9C262.5,0,399,0,399,0z M90.7,107.1c-0.3-3.3-0.5-6.7-0.5-10c0-37.5,19-70.9,48.3-90.1l-1.9-7H0
		l37.5,112.1c5.1-10.8,15.5-18.2,28.8-18.2C78.7,93.9,85.9,99.3,90.7,107.1z M333.3,105.9c-10.2,0-16.5,6.1-20.8,23.1
		c-5.2,20.5-14.8,30.2-26.5,33.3c-9.1,11.6-20.7,21.5-34.4,29.2v-23c3.5-2.6,6.8-5.4,9.9-8.3c-12-5.7-20.1-18.1-20.1-32.7
		c0-21.2,14.2-36.5,35.5-36.8v11.9c-15.4,0.8-24.7,10.5-24.7,24.9c0,11.5,7.7,20.9,18.1,23.4c13-15.7,20.2-34.2,20.2-54.1
		c0-27.3-14.4-52.6-35.7-68.7l-21.3,76.1h-0.3l-25.6-93.7c-1.3-0.1-2.6-0.1-4-0.1s-2.6,0-3.9,0.1c-1.3-0.1-2.6-0.1-3.9-0.1
		s-2.7,0.1-4,0.1l-25.6,93.7h-0.3l-21.3-76.1c-21.3,16.1-35.7,41.4-35.7,68.7c0,19.9,7.2,38.4,20.2,54.1
		c10.3-2.5,18.1-11.8,18.1-23.4c0-14.4-9.4-24.1-24.7-24.9V90.7c21.3,0.3,35.5,15.7,35.5,36.8c0,14.5-8.2,27-20.1,32.7
		c3.1,2.9,6.4,5.7,9.9,8.3v23c-13.7-7.6-25.3-17.6-34.4-29.2c-11.8-3.2-21.3-12.9-26.5-33.3c-4.3-17-10.7-23.1-20.8-23.1
		c-11.6,0-20.8,9.4-20.8,21.7c0,11.1,9.4,21.2,21.6,21.2v11.9c-5,0-9.7-1.1-13.9-3.1l17,50.8h104.1l25.8-97.2l25.8,97.2h104.1
		l17-50.9c-4.2,2-8.9,3.1-13.9,3.1v-11.9c12.3,0,21.6-10,21.6-21.2C354.2,115.2,345,105.9,333.3,105.9L333.3,105.9z"/>
</g>
</svg>
