<?xml version="1.0" encoding="UTF-8"?>
<svg id="Layer_1" data-name="Layer 1" xmlns="http://www.w3.org/2000/svg" xmlns:xlink="http://www.w3.org/1999/xlink" viewBox="0 0 720 720">
  <defs>
    <style>
      .cls-1 {
        fill: none;
      }

      .cls-1, .cls-2, .cls-3, .cls-4, .cls-5, .cls-6, .cls-7 {
        stroke-width: 0px;
      }

      .cls-2 {
        fill: url(#Multi_Letter_Pattern);
      }

      .cls-3 {
        fill: #3b5a3b;
      }

      .cls-4 {
        fill: #a90045;
      }

      .cls-5 {
        fill: #ef4042;
      }

      .cls-6 {
        fill: #ffd079;
      }

      .cls-7 {
        fill: #efc3c1;
      }
    </style>
    <pattern id="Multi_Letter_Pattern" data-name="Multi Letter Pattern" x="0" y="0" width="187.88" height="126" patternTransform="translate(-839.4 -37.64)" patternUnits="userSpaceOnUse" viewBox="0 0 187.88 126">
      <g>
        <rect class="cls-1" width="187.88" height="126"/>
        <g>
          <g>
            <path class="cls-3" d="M236.21,133.54c-.76,2.35-2.97,2.2-10.44-.23-1.94-.63-4.41-1.55-5.78-2.05l.3-.92c1.36.5,3.84,1.42,5.78,2.05,6.75,2.19,8.7,2.43,9.22.85.48-1.48-1.06-2.83-15.47-7.51-14.21-4.62-16.35-4.8-16.92-3.07-.5,1.53,1.24,2.61,7.63,4.68,1.12.37,2.67.81,3.56,1.04l-.3.92c-.89-.23-2.44-.68-3.56-1.04-.76-.25-1.45-.48-2.09-.71,2.34,1.38,5.66,3.69,10.54,7.23,12.96,9.41,14.03,11.32,12.61,13.28-1.45,2-3.51,1.17-9.86-3.44-1.65-1.2-3.72-2.84-4.86-3.73l.57-.78c1.14.9,3.21,2.53,4.86,3.73,5.74,4.17,7.53,5,8.51,3.66.92-1.26-.13-3.02-12.39-11.93-12.09-8.78-14.07-9.62-15.14-8.14-.95,1.3.38,2.86,5.81,6.81.96.7,2.29,1.6,3.06,2.09l-.57.78c-.77-.49-2.11-1.4-3.06-2.09-.64-.47-1.23-.91-1.77-1.32,1.8,2.04,4.24,5.26,7.79,10.14,9.41,12.96,9.84,15.1,7.89,16.53-2,1.45-3.7.03-8.31-6.32-1.2-1.65-2.66-3.85-3.47-5.05l.78-.57c.81,1.21,2.27,3.4,3.47,5.05,4.17,5.74,5.61,7.08,6.96,6.1,1.26-.92.81-2.91-8.1-15.17-8.78-12.09-10.41-13.5-11.88-12.43-1.3.95-.53,2.84,3.42,8.28.69.96,1.69,2.23,2.27,2.94l-.78.57c-.58-.71-1.57-1.98-2.27-2.94-.47-.64-.89-1.24-1.28-1.8,1.08,2.49,2.41,6.31,4.27,12.05,4.95,15.23,4.7,17.41,2.39,18.15-2.35.76-3.53-1.11-5.95-8.58-.63-1.94-1.34-4.48-1.74-5.88l.92-.3c.4,1.4,1.11,3.93,1.74,5.88,2.19,6.75,3.15,8.47,4.73,7.96,1.48-.48,1.67-2.52-3.02-16.93-4.62-14.21-5.73-16.05-7.46-15.49-1.53.5-1.38,2.54.7,8.93.37,1.12.91,2.64,1.25,3.49l-.92.3c-.33-.85-.88-2.37-1.25-3.49-.25-.76-.46-1.46-.66-2.11.26,2.7.34,6.75.34,12.78,0,16.02-.91,18.01-3.33,18.01s-3.01-2.15-3.01-10c0-2.04.11-4.68.16-6.13h.97c-.05,1.45-.16,4.08-.16,6.13,0,7.09.38,9.03,2.04,9.03,1.56,0,2.37-1.88,2.37-17.04s-.48-17.04-2.31-17.04c-1.61,0-2.1,1.99-2.1,8.71,0,1.18.05,2.79.11,3.71h-.97c-.05-.91-.11-2.53-.11-3.71,0-.8,0-1.53.02-2.21-.59,2.65-1.76,6.52-3.62,12.26-4.95,15.23-6.43,16.84-8.73,16.09-2.35-.76-2.2-2.97.23-10.44.63-1.94,1.55-4.41,2.05-5.78l.92.3c-.5,1.36-1.42,3.84-2.05,5.78-2.19,6.75-2.43,8.7-.85,9.22,1.48.48,2.83-1.06,7.51-15.47,4.62-14.21,4.8-16.35,3.07-16.92-1.53-.5-2.61,1.24-4.68,7.63-.37,1.12-.81,2.67-1.04,3.56l-.92-.3c.23-.89.68-2.44,1.04-3.56.25-.76.48-1.45.71-2.09-1.38,2.34-3.69,5.66-7.23,10.54-9.41,12.96-11.32,14.03-13.28,12.61-2-1.45-1.17-3.51,3.44-9.86,1.2-1.65,2.84-3.72,3.73-4.86l.78.57c-.9,1.14-2.53,3.21-3.73,4.86-4.17,5.74-5,7.53-3.66,8.51,1.26.92,3.02-.13,11.93-12.39,8.78-12.09,9.62-14.07,8.14-15.14-1.3-.95-2.86.38-6.81,5.81-.7.96-1.6,2.29-2.09,3.06l-.78-.57c.49-.77,1.4-2.11,2.09-3.06.47-.64.91-1.23,1.32-1.77-2.04,1.8-5.26,4.24-10.14,7.79-12.96,9.41-15.1,9.84-16.53,7.89-1.45-2-.03-3.7,6.32-8.31,1.65-1.2,3.85-2.66,5.05-3.47l.57.78c-1.21.81-3.4,2.27-5.05,3.47-5.74,4.17-7.08,5.61-6.1,6.96.92,1.26,2.91.81,15.17-8.1,12.09-8.78,13.5-10.41,12.43-11.88-.95-1.3-2.84-.53-8.28,3.42-.96.7-2.23,1.69-2.94,2.27l-.57-.78c.71-.58,1.98-1.57,2.94-2.27.64-.47,1.24-.89,1.8-1.28-2.49,1.08-6.31,2.41-12.05,4.27-15.23,4.95-17.41,4.7-18.15,2.39-.76-2.35,1.11-3.53,8.58-5.95,1.94-.63,4.48-1.34,5.88-1.74l.3.92c-1.4.4-3.93,1.11-5.88,1.74-6.75,2.19-8.47,3.15-7.96,4.73.48,1.48,2.52,1.67,16.93-3.02,14.21-4.62,16.05-5.73,15.49-7.46-.5-1.53-2.54-1.38-8.93.7-1.12.37-2.64.91-3.49,1.25l-.3-.92c.85-.33,2.37-.88,3.49-1.25.76-.25,1.46-.46,2.11-.66-2.7.26-6.75.34-12.78.34-16.02,0-18.01-.91-18.01-3.33s2.15-3.01,10-3.01c2.04,0,4.68.11,6.13.16v.97c-1.45-.05-4.08-.16-6.13-.16-7.09,0-9.03.38-9.03,2.04,0,1.56,1.88,2.37,17.04,2.37s17.04-.48,17.04-2.31c0-1.61-1.99-2.1-8.71-2.1-1.18,0-2.79.05-3.71.11v-.97c.91-.05,2.53-.11,3.71-.11.8,0,1.53,0,2.21.02-2.65-.59-6.52-1.76-12.26-3.62-15.23-4.95-16.84-6.43-16.09-8.73.76-2.35,2.97-2.2,10.44.23,1.94.63,4.41,1.55,5.78,2.05l-.3.92c-1.36-.5-3.84-1.42-5.78-2.05-6.75-2.19-8.7-2.43-9.22-.85-.48,1.48,1.06,2.83,15.47,7.51,14.21,4.62,16.35,4.8,16.92,3.07.5-1.53-1.24-2.61-7.63-4.68-1.12-.37-2.67-.81-3.56-1.04l.3-.92c.89.23,2.44.68,3.56,1.04.76.25,1.45.48,2.09.71-2.34-1.38-5.66-3.69-10.54-7.23-12.96-9.41-14.03-11.32-12.61-13.28,1.45-2,3.51-1.17,9.86,3.44,1.65,1.2,3.72,2.84,4.86,3.73l-.57.78c-1.14-.9-3.21-2.53-4.86-3.73-5.74-4.17-7.53-5-8.51-3.66-.92,1.26.13,3.02,12.39,11.93,12.09,8.78,14.07,9.62,15.14,8.14.95-1.3-.38-2.86-5.81-6.81-.96-.7-2.29-1.6-3.06-2.09l.57-.78c.77.49,2.11,1.4,3.06,2.09.64.47,1.23.91,1.77,1.32-1.8-2.04-4.24-5.26-7.79-10.14-9.41-12.96-9.84-15.1-7.89-16.53,2-1.45,3.7-.03,8.31,6.32,1.2,1.65,2.66,3.85,3.47,5.05l-.78.57c-.81-1.21-2.27-3.4-3.47-5.05-4.17-5.74-5.61-7.08-6.96-6.1-1.26.92-.81,2.91,8.1,15.17,8.78,12.09,10.41,13.5,11.88,12.43,1.3-.95.53-2.84-3.42-8.28-.7-.96-1.69-2.23-2.27-2.94l.78-.57c.58.71,1.57,1.98,2.27,2.94.47.64.89,1.24,1.28,1.8-1.08-2.49-2.41-6.31-4.27-12.05-4.95-15.23-4.7-17.41-2.39-18.15,2.35-.76,3.53,1.11,5.95,8.58.63,1.94,1.34,4.48,1.74,5.88l-.92.3c-.4-1.4-1.11-3.93-1.74-5.88-2.19-6.75-3.15-8.47-4.73-7.96-1.48.48-1.67,2.52,3.02,16.93,4.62,14.21,5.73,16.05,7.46,15.49,1.53-.5,1.38-2.54-.7-8.93-.37-1.12-.91-2.64-1.25-3.49l.92-.3c.33.85.88,2.37,1.25,3.49.25.76.46,1.46.66,2.11-.26-2.7-.34-6.75-.34-12.78,0-16.02.91-18.01,3.33-18.01s3.01,2.15,3.01,10c0,2.04-.11,4.68-.16,6.13h-.97c.05-1.45.16-4.08.16-6.13,0-7.09-.38-9.03-2.04-9.03-1.56,0-2.37,1.88-2.37,17.04s.48,17.04,2.31,17.04c1.61,0,2.1-1.99,2.1-8.71,0-1.18-.05-2.79-.11-3.71h.97c.05.91.11,2.53.11,3.71,0,.8,0,1.53-.02,2.21.59-2.65,1.76-6.52,3.62-12.26,4.95-15.23,6.43-16.84,8.73-16.09,2.35.76,2.2,2.97-.23,10.44-.63,1.94-1.55,4.41-2.05,5.78l-.92-.3c.5-1.36,1.42-3.84,2.05-5.78,2.19-6.75,2.43-8.7.85-9.22-1.48-.48-2.83,1.06-7.51,15.47-4.62,14.21-4.8,16.35-3.07,16.92,1.53.5,2.61-1.24,4.68-7.63.37-1.12.81-2.67,1.04-3.56l.92.3c-.23.89-.68,2.44-1.04,3.56-.25.76-.48,1.45-.71,2.09,1.38-2.34,3.69-5.66,7.23-10.54,9.41-12.96,11.32-14.03,13.28-12.61,2,1.45,1.17,3.51-3.44,9.86-1.2,1.65-2.84,3.72-3.73,4.86l-.78-.57c.9-1.14,2.53-3.21,3.73-4.86,4.17-5.74,5-7.53,3.66-8.51-1.26-.92-3.02.13-11.93,12.39-8.78,12.09-9.62,14.07-8.14,15.14,1.3.95,2.86-.38,6.81-5.81.7-.96,1.6-2.29,2.09-3.06l.78.57c-.49.77-1.4,2.11-2.09,3.06-.47.64-.91,1.23-1.32,1.77,2.04-1.8,5.26-4.24,10.14-7.79,12.96-9.41,15.1-9.84,16.53-7.89,1.45,2,.03,3.7-6.32,8.31-1.65,1.2-3.85,2.66-5.05,3.47l-.57-.78c1.21-.81,3.4-2.27,5.05-3.47,5.74-4.17,7.08-5.61,6.1-6.96-.92-1.26-2.91-.81-15.17,8.1-12.09,8.78-13.5,10.41-12.43,11.88.95,1.3,2.84.53,8.28-3.42.96-.7,2.23-1.69,2.94-2.27l.57.78c-.71.58-1.98,1.57-2.94,2.27-.64.47-1.24.89-1.8,1.28,2.49-1.08,6.31-2.41,12.05-4.27,15.23-4.95,17.41-4.7,18.15-2.39.76,2.35-1.11,3.53-8.58,5.95-1.94.63-4.48,1.34-5.88,1.74l-.3-.92c1.4-.4,3.93-1.11,5.88-1.74,6.75-2.19,8.47-3.15,7.96-4.73-.48-1.48-2.52-1.67-16.93,3.02-14.21,4.62-16.05,5.73-15.49,7.46.5,1.53,2.54,1.38,8.93-.7,1.12-.37,2.64-.91,3.49-1.25l.3.92c-.85.33-2.37.88-3.49,1.25-.76.25-1.46.46-2.11.66,2.7-.26,6.75-.34,12.78-.34,16.02,0,18.01.91,18.01,3.33s-2.15,3.01-10,3.01c-2.04,0-4.68-.11-6.13-.16v-.97c1.45.05,4.08.16,6.13.16,7.09,0,9.03-.38,9.03-2.04,0-1.56-1.88-2.37-17.04-2.37s-17.04.48-17.04,2.31c0,1.61,1.99,2.1,8.71,2.1,1.18,0,2.79-.05,3.71-.11v.97c-.91.05-2.53.11-3.71.11-.8,0-1.53,0-2.21-.02,2.65.59,6.52,1.76,12.26,3.62,15.23,4.95,16.84,6.43,16.09,8.73ZM203.48,120.82c-2.31-.42-3.09-1.24-3.09-2.68,0-.82.21-1.45.95-1.92-2.33.31-3.32-.23-3.76-1.6-.25-.78-.25-1.44.31-2.12-2.12,1.01-3.23.81-4.07-.36-.48-.67-.68-1.3-.36-2.11-1.7,1.62-2.82,1.76-3.98.92-.67-.48-1.05-1.02-1-1.9-1.12,2.06-2.14,2.55-3.5,2.11-.78-.25-1.31-.65-1.53-1.5-.42,2.31-1.24,3.09-2.68,3.09-.82,0-1.45-.21-1.92-.95.31,2.33-.23,3.32-1.6,3.76-.78.25-1.44.25-2.12-.31,1.01,2.12.81,3.23-.36,4.07-.67.48-1.3.68-2.11.36,1.62,1.7,1.76,2.82.92,3.98-.48.67-1.02,1.05-1.9,1,2.06,1.12,2.55,2.14,2.11,3.5-.25.78-.65,1.31-1.5,1.53,2.31.42,3.09,1.24,3.09,2.68,0,.82-.21,1.45-.95,1.92,2.33-.31,3.32.23,3.76,1.6.25.78.25,1.44-.31,2.12,2.12-1.01,3.23-.81,4.07.36.48.67.68,1.3.36,2.11,1.7-1.62,2.82-1.76,3.98-.92.67.48,1.05,1.02,1,1.9,1.12-2.06,2.14-2.55,3.5-2.11.78.25,1.31.65,1.53,1.5.42-2.31,1.24-3.09,2.68-3.09.82,0,1.45.21,1.92.95-.31-2.33.23-3.32,1.6-3.76.78-.25,1.44-.25,2.12.31-1.01-2.12-.81-3.23.36-4.07.67-.48,1.3-.68,2.11-.36-1.62-1.7-1.76-2.82-.92-3.98.48-.67,1.02-1.05,1.9-1-2.06-1.12-2.55-2.14-2.11-3.5.25-.78.65-1.31,1.5-1.53Z"/>
            <g>
              <path class="cls-4" d="M185.29,99.82c-1.17-.12-1.34-1.28-.71-7.69l-.62-.06c-.66,6.69-.46,8.2,1.27,8.37,1.59.16,2.03-.81,2.46-5.22.18-1.79.18-2.91-.07-3.87-.23-.86-.71-1.6-1.04-2.19-.33-.55-.75-1.22-.99-2.01-.21-.72-.32-2.05-.1-4.29.41-4.14.87-5,1.84-4.9,1.07.1,1.12,1.01.38,8.56l.62.06c.8-8.14.68-9.09-.94-9.25-1.38-.14-2.07.84-2.52,5.46-.23,2.31-.09,3.78.14,4.57s.71,1.64,1.04,2.16c.39.63.81,1.37.98,2.05.2.82.21,1.8.03,3.59-.39,3.93-.68,4.77-1.78,4.66Z"/>
              <path class="cls-4" d="M173.13,90.16c.47.68,1.18,1.34,1.66,1.73.57.48,1.19,1.05,1.57,1.64.44.72.75,1.64,1.14,3.4.85,3.86.83,4.75-.25,4.98-1.15.25-1.67-.8-3.05-7.1l-.61.13c1.44,6.56,2.1,7.94,3.79,7.57,1.56-.34,1.68-1.4.73-5.73-.39-1.76-.73-2.82-1.27-3.66-.48-.75-1.17-1.3-1.66-1.76-.48-.43-1.09-.93-1.56-1.61-.42-.62-.94-1.85-1.42-4.05-.89-4.06-.71-5.02.23-5.23,1.05-.23,1.38.62,3.01,8.03l.61-.13c-1.75-7.98-2.16-8.85-3.75-8.5-1.35.3-1.71,1.44-.71,5.97.5,2.27,1.08,3.63,1.55,4.31Z"/>
              <path class="cls-4" d="M162.68,96.48c.65.5,1.54.91,2.11,1.13.69.28,1.46.63,2,1.08.64.55,1.22,1.33,2.13,2.88,2,3.41,2.26,4.26,1.3,4.82-1.02.6-1.83-.25-5.09-5.81l-.54.32c3.4,5.8,4.45,6.91,5.95,6.03,1.37-.81,1.17-1.85-1.08-5.67-.91-1.55-1.56-2.46-2.33-3.09-.69-.56-1.52-.88-2.13-1.16-.59-.26-1.33-.55-1.98-1.05-.59-.46-1.46-1.47-2.6-3.41-2.1-3.59-2.23-4.55-1.39-5.05.93-.54,1.5.16,5.34,6.71l.54-.32c-4.14-7.05-4.79-7.75-6.19-6.93-1.2.7-1.18,1.9,1.17,5.9,1.17,2,2.15,3.12,2.8,3.62Z"/>
              <path class="cls-4" d="M150.92,103.16c1.74,1.54,3.01,2.3,3.78,2.57s1.74.39,2.36.42c.74.05,1.58.15,2.23.41.78.32,1.57.89,2.92,2.08,2.95,2.62,3.46,3.35,2.73,4.18-.78.88-1.82.33-6.64-3.95l-.41.47c5.02,4.46,6.37,5.19,7.52,3.9,1.06-1.19.54-2.12-2.78-5.06-1.35-1.2-2.24-1.85-3.17-2.22-.83-.32-1.71-.36-2.38-.45-.64-.06-1.43-.11-2.21-.38-.7-.25-1.85-.95-3.53-2.44-3.11-2.76-3.53-3.64-2.88-4.37.71-.8,1.48-.31,7.15,4.73l.41-.47c-6.11-5.43-6.95-5.89-8.03-4.68-.92,1.04-.53,2.17,2.94,5.25Z"/>
              <path class="cls-4" d="M145.58,115.71c2.13.93,3.57,1.26,4.39,1.28s1.77-.17,2.37-.32c.72-.18,1.55-.34,2.25-.3.84.07,1.77.36,3.42,1.08,3.62,1.58,4.33,2.12,3.88,3.13-.47,1.08-1.63.88-7.53-1.7l-.25.57c6.16,2.69,7.66,2.97,8.35,1.38.64-1.46-.14-2.18-4.21-3.96-1.65-.72-2.71-1.07-3.7-1.13-.89-.05-1.74.18-2.4.31-.63.14-1.39.34-2.22.32-.75-.02-2.05-.33-4.11-1.23-3.81-1.66-4.48-2.37-4.09-3.26.43-.98,1.31-.75,8.26,2.29l.25-.57c-7.49-3.27-8.43-3.46-9.08-1.97-.55,1.27.16,2.23,4.41,4.08Z"/>
              <path class="cls-4" d="M148.95,129.15c.79-.24,1.64-.71,2.16-1.04.63-.39,1.37-.81,2.05-.98.82-.2,1.8-.21,3.59-.03,3.93.39,4.77.68,4.66,1.78-.12,1.17-1.28,1.34-7.69.71l-.06.62c6.69.66,8.2.46,8.37-1.27.16-1.59-.81-2.03-5.22-2.46-1.79-.18-2.91-.18-3.87.07-.86.23-1.6.71-2.19,1.04-.55.33-1.22.75-2.01.99-.72.21-2.05.32-4.29.1-4.14-.41-5-.87-4.9-1.84.1-1.07,1.01-1.12,8.56-.38l.06-.62c-8.14-.8-9.09-.68-9.25.94-.14,1.38.84,2.07,5.46,2.52,2.31.23,3.78.09,4.57-.14Z"/>
            </g>
            <g>
              <path class="cls-5" d="M188.35,106.99c-.79-.18-.81-.99.17-5.33l-.42-.09c-1.02,4.53-1.01,5.59.16,5.85,1.07.24,1.46-.38,2.13-3.37.27-1.21.37-1.98.28-2.66-.08-.61-.35-1.16-.53-1.59-.18-.41-.41-.9-.51-1.46-.08-.51-.05-1.43.29-2.95.63-2.8,1.02-3.35,1.68-3.2.72.16.68.79-.47,5.9l.42.09c1.24-5.51,1.24-6.17.14-6.42-.93-.21-1.49.4-2.19,3.53-.35,1.56-.38,2.59-.29,3.15s.35,1.18.53,1.57c.21.47.44,1.01.5,1.49.07.58-.01,1.25-.28,2.46-.6,2.66-.87,3.21-1.62,3.05Z"/>
              <path class="cls-5" d="M180.83,99.33c.26.5.7,1.02.99,1.33.35.38.73.82.93,1.26.24.53.38,1.19.49,2.43.25,2.72.17,3.33-.6,3.4-.81.08-1.07-.69-1.49-5.12l-.43.04c.43,4.62.77,5.62,1.96,5.51,1.1-.1,1.27-.82.98-3.87-.12-1.24-.26-1.99-.56-2.62-.27-.55-.69-.99-.99-1.35-.3-.33-.67-.73-.93-1.23-.24-.46-.49-1.35-.63-2.9-.27-2.86-.06-3.5.6-3.57.74-.07.89.54,1.38,5.76l.43-.04c-.53-5.62-.73-6.25-1.85-6.15-.95.09-1.29.84-.99,4.03.15,1.6.43,2.58.7,3.08Z"/>
              <path class="cls-5" d="M173.13,102.78c.41.4.98.75,1.35.96.45.25.94.56,1.28.91.39.43.73,1.02,1.22,2.16,1.08,2.5,1.19,3.11.48,3.41-.75.32-1.24-.33-3-4.41l-.4.17c1.84,4.26,2.47,5.11,3.57,4.64,1.01-.44.96-1.17-.26-3.98-.49-1.14-.86-1.82-1.34-2.32-.43-.44-.97-.73-1.36-.98-.38-.23-.86-.49-1.27-.89-.37-.36-.88-1.13-1.5-2.56-1.14-2.64-1.14-3.31-.53-3.58.68-.29,1.02.24,3.09,5.05l.4-.17c-2.24-5.19-2.63-5.72-3.66-5.28-.88.38-.97,1.2.3,4.14.64,1.47,1.21,2.32,1.62,2.72Z"/>
              <path class="cls-5" d="M164.5,106.36c1.06,1.2,1.87,1.83,2.38,2.09s1.16.41,1.58.49c.5.1,1.07.24,1.5.47.51.29,1,.74,1.83,1.68,1.8,2.05,2.09,2.59,1.51,3.1-.61.54-1.28.07-4.22-3.27l-.32.28c3.07,3.49,3.93,4.1,4.82,3.31.83-.73.55-1.41-1.48-3.71-.82-.93-1.38-1.46-1.99-1.79-.54-.29-1.14-.4-1.6-.51-.43-.1-.97-.2-1.48-.45-.46-.23-1.19-.81-2.21-1.97-1.9-2.16-2.11-2.8-1.61-3.24.56-.49,1.04-.09,4.5,3.85l.32-.28c-3.73-4.24-4.27-4.63-5.11-3.89-.72.63-.55,1.44,1.57,3.85Z"/>
              <path class="cls-5" d="M159.77,114.51c1.38.82,2.34,1.17,2.9,1.25s1.23.03,1.65-.02c.51-.06,1.09-.1,1.57-.02.57.12,1.18.4,2.25,1.03,2.35,1.39,2.79,1.82,2.4,2.48-.41.7-1.19.46-5.02-1.81l-.22.37c3.99,2.37,5,2.69,5.61,1.66.56-.95.09-1.51-2.55-3.07-1.07-.63-1.77-.96-2.44-1.09-.6-.11-1.21-.02-1.67,0-.44.04-.98.11-1.55.03-.51-.08-1.38-.4-2.72-1.19-2.47-1.46-2.87-2.01-2.53-2.58.38-.64.96-.4,5.47,2.27l.22-.37c-4.86-2.88-5.49-3.09-6.06-2.12-.49.82-.08,1.54,2.68,3.17Z"/>
              <path class="cls-5" d="M160.94,124.02c.56-.09,1.18-.35,1.57-.53.47-.21,1.01-.44,1.49-.5.58-.07,1.25.01,2.46.28,2.66.6,3.21.87,3.05,1.62-.18.79-.99.81-5.33-.17l-.09.42c4.53,1.02,5.59,1.01,5.85-.16.24-1.07-.38-1.46-3.37-2.13-1.21-.27-1.98-.37-2.66-.28-.61.08-1.16.35-1.59.53-.41.18-.9.41-1.46.51-.51.08-1.43.05-2.95-.29-2.8-.63-3.35-1.02-3.2-1.68.16-.72.79-.68,5.9.47l.09-.42c-5.51-1.24-6.17-1.24-6.42-.14-.21.93.4,1.49,3.53,2.19,1.56.35,2.59.38,3.15.29Z"/>
            </g>
          </g>
          <path class="cls-6" d="M193.56,125.8l-.24.06,12.56,5.07-.21.66-13.01-3.25.18.22,12.25,4.83-.12.37-11.65-4.63,8.11,9.78-.32.23-8.49-10.29-.23-.09,7.18,11.48-.56.41-8.62-10.28.02.28,7.07,11.11-.32.23-6.71-10.59.81,12.68h-.39l-.82-13.31-.13-.21-.94,13.51h-.69l-.93-13.38-.15.24-.81,13.15h-.39l.8-12.51-6.8,10.73-.32-.23,7.16-11.25.02-.24-8.7,10.38-.56-.41,7.11-11.37-.26.1-8.38,10.16-.32-.23,8-9.65-11.81,4.69-.12-.37,12.4-4.89.16-.19-13.14,3.28-.21-.66,12.44-5.02-.27-.07-12.75,3.29-.12-.37,12.15-3.11-12.31-3.15.12-.37,12.91,3.33.24-.06-12.56-5.07.21-.66,13.01,3.25-.18-.22-12.25-4.83.12-.37,11.65,4.63-8.11-9.78.32-.23,8.49,10.29.23.09-7.18-11.48.56-.41,8.62,10.28-.02-.28-7.07-11.11.32-.23,6.71,10.59-.81-12.68h.39l.82,13.31.13.21.94-13.51h.69l.93,13.38.15-.24.81-13.15h.39l-.8,12.51,6.8-10.73.32.23-7.16,11.25-.02.24,8.7-10.38.56.41-7.11,11.37.26-.1,8.38-10.16.32.23-8,9.65,11.81-4.69.12.37-12.41,4.89-.16.19,13.14-3.28.21.66-12.44,5.02.27.07,12.75-3.29.12.37-12.15,3.11,12.31,3.15-.12.37-12.91-3.33ZM192.74,126.01l-.16.04-.04-.12h-.03s.01-.05.01-.05l-.17-.53,12.75-5.12-.03-.08-13.09,3.29-.1.12-.1-.07h-.03s-.01-.03-.01-.03l-.45-.33,7.3-11.64-.07-.05-8.66,10.35v.16h-.13l-.02.02-.03-.02h-.56l-.93-13.71h-.09l-.92,13.46.09.14-.1.07v.03h-.04l-.45.33-8.81-10.54-.07.05,7.17,11.43.15.06-.04.12.02.03-.03.02-.17.53-13.32-3.35-.03.08,12.52,5.03.16-.04.04.12h.03s-.01.05-.01.05l.17.53-12.75,5.12.03.08,13.09-3.29.1-.12.1.07h.03s.01.03.01.03l.45.33-7.3,11.64.07.05,8.66-10.35v-.16h.13l.02-.02.03.02h.56l.93,13.71h.09l.92-13.46-.09-.14.1-.07v-.03h.04l.45-.33,8.81,10.54.07-.05-7.17-11.43-.15-.06.04-.12-.02-.03.03-.02.17-.53,13.32,3.35.03-.08-12.52-5.03Z"/>
        </g>
        <g>
          <g>
            <path class="cls-3" d="M48.34,133.54c-.76,2.35-2.97,2.2-10.44-.23-1.94-.63-4.41-1.55-5.78-2.05l.3-.92c1.36.5,3.84,1.42,5.78,2.05,6.75,2.19,8.7,2.43,9.22.85.48-1.48-1.06-2.83-15.47-7.51-14.21-4.62-16.35-4.8-16.92-3.07-.5,1.53,1.24,2.61,7.63,4.68,1.12.37,2.67.81,3.56,1.04l-.3.92c-.89-.23-2.44-.68-3.56-1.04-.76-.25-1.45-.48-2.09-.71,2.34,1.38,5.66,3.69,10.54,7.23,12.96,9.41,14.03,11.32,12.61,13.28-1.45,2-3.51,1.17-9.86-3.44-1.65-1.2-3.72-2.84-4.86-3.73l.57-.78c1.14.9,3.21,2.53,4.86,3.73,5.74,4.17,7.53,5,8.51,3.66.92-1.26-.13-3.02-12.39-11.93-12.09-8.78-14.07-9.62-15.14-8.14-.95,1.3.38,2.86,5.81,6.81.96.7,2.29,1.6,3.06,2.09l-.57.78c-.77-.49-2.11-1.4-3.06-2.09-.64-.47-1.23-.91-1.77-1.32,1.8,2.04,4.24,5.26,7.79,10.14,9.41,12.96,9.84,15.1,7.89,16.53-2,1.45-3.7.03-8.31-6.32-1.2-1.65-2.66-3.85-3.47-5.05l.78-.57c.81,1.21,2.27,3.4,3.47,5.05,4.17,5.74,5.61,7.08,6.96,6.1,1.26-.92.81-2.91-8.1-15.17-8.78-12.09-10.41-13.5-11.88-12.43-1.3.95-.53,2.84,3.42,8.28.69.96,1.69,2.23,2.27,2.94l-.78.57c-.58-.71-1.57-1.98-2.27-2.94-.47-.64-.89-1.24-1.28-1.8,1.08,2.49,2.41,6.31,4.27,12.05,4.95,15.23,4.7,17.41,2.39,18.15-2.35.76-3.53-1.11-5.95-8.58-.63-1.94-1.34-4.48-1.74-5.88l.92-.3c.4,1.4,1.11,3.93,1.74,5.88,2.19,6.75,3.15,8.47,4.73,7.96,1.48-.48,1.67-2.52-3.02-16.93-4.62-14.21-5.73-16.05-7.46-15.49-1.53.5-1.38,2.54.7,8.93.37,1.12.91,2.64,1.25,3.49l-.92.3c-.33-.85-.88-2.37-1.25-3.49-.25-.76-.46-1.46-.66-2.11.26,2.7.34,6.75.34,12.78,0,16.02-.91,18.01-3.33,18.01s-3.01-2.15-3.01-10c0-2.04.11-4.68.16-6.13h.97c-.05,1.45-.16,4.08-.16,6.13,0,7.09.38,9.03,2.04,9.03,1.56,0,2.37-1.88,2.37-17.04s-.48-17.04-2.31-17.04c-1.61,0-2.1,1.99-2.1,8.71,0,1.18.05,2.79.11,3.71h-.97c-.05-.91-.11-2.53-.11-3.71,0-.8,0-1.53.02-2.21-.59,2.65-1.76,6.52-3.62,12.26-4.95,15.23-6.43,16.84-8.73,16.09-2.35-.76-2.2-2.97.23-10.44.63-1.94,1.55-4.41,2.05-5.78l.92.3c-.5,1.36-1.42,3.84-2.05,5.78-2.19,6.75-2.43,8.7-.85,9.22,1.48.48,2.83-1.06,7.51-15.47,4.62-14.21,4.8-16.35,3.07-16.92-1.53-.5-2.61,1.24-4.68,7.63-.37,1.12-.81,2.67-1.04,3.56l-.92-.3c.23-.89.68-2.44,1.04-3.56.25-.76.48-1.45.71-2.09-1.38,2.34-3.69,5.66-7.23,10.54-9.41,12.96-11.32,14.03-13.28,12.61-2-1.45-1.17-3.51,3.44-9.86,1.2-1.65,2.84-3.72,3.73-4.86l.78.57c-.9,1.14-2.53,3.21-3.73,4.86-4.17,5.74-5,7.53-3.66,8.51,1.26.92,3.02-.13,11.93-12.39,8.78-12.09,9.62-14.07,8.14-15.14-1.3-.95-2.86.38-6.81,5.81-.7.96-1.6,2.29-2.09,3.06l-.78-.57c.49-.77,1.4-2.11,2.09-3.06.47-.64.91-1.23,1.32-1.77-2.04,1.8-5.26,4.24-10.14,7.79-12.96,9.41-15.1,9.84-16.53,7.89-1.45-2-.03-3.7,6.32-8.31,1.65-1.2,3.85-2.66,5.05-3.47l.57.78c-1.21.81-3.4,2.27-5.05,3.47-5.74,4.17-7.08,5.61-6.1,6.96.92,1.26,2.91.81,15.17-8.1,12.09-8.78,13.5-10.41,12.43-11.88-.95-1.3-2.84-.53-8.28,3.42-.96.7-2.23,1.69-2.94,2.27l-.57-.78c.71-.58,1.98-1.57,2.94-2.27.64-.47,1.24-.89,1.8-1.28-2.49,1.08-6.31,2.41-12.05,4.27-15.23,4.95-17.41,4.7-18.15,2.39-.76-2.35,1.11-3.53,8.58-5.95,1.94-.63,4.48-1.34,5.88-1.74l.3.92c-1.4.4-3.93,1.11-5.88,1.74-6.75,2.19-8.47,3.15-7.96,4.73.48,1.48,2.52,1.67,16.93-3.02,14.21-4.62,16.05-5.73,15.49-7.46-.5-1.53-2.54-1.38-8.93.7-1.12.37-2.64.91-3.49,1.25l-.3-.92c.85-.33,2.37-.88,3.49-1.25.76-.25,1.46-.46,2.11-.66-2.7.26-6.75.34-12.78.34-16.02,0-18.01-.91-18.01-3.33s2.15-3.01,10-3.01c2.04,0,4.68.11,6.13.16v.97c-1.45-.05-4.08-.16-6.13-.16-7.09,0-9.03.38-9.03,2.04,0,1.56,1.88,2.37,17.04,2.37s17.04-.48,17.04-2.31c0-1.61-1.99-2.1-8.71-2.1-1.18,0-2.79.05-3.71.11v-.97c.91-.05,2.53-.11,3.71-.11.8,0,1.53,0,2.21.02-2.65-.59-6.52-1.76-12.26-3.62-15.23-4.95-16.84-6.43-16.09-8.73.76-2.35,2.97-2.2,10.44.23,1.94.63,4.41,1.55,5.78,2.05l-.3.92c-1.36-.5-3.84-1.42-5.78-2.05-6.75-2.19-8.7-2.43-9.22-.85-.48,1.48,1.06,2.83,15.47,7.51,14.21,4.62,16.35,4.8,16.92,3.07.5-1.53-1.24-2.61-7.63-4.68-1.12-.37-2.67-.81-3.56-1.04l.3-.92c.89.23,2.44.68,3.56,1.04.76.25,1.45.48,2.09.71-2.34-1.38-5.66-3.69-10.54-7.23-12.96-9.41-14.03-11.32-12.61-13.28,1.45-2,3.51-1.17,9.86,3.44,1.65,1.2,3.72,2.84,4.86,3.73l-.57.78c-1.14-.9-3.21-2.53-4.86-3.73-5.74-4.17-7.53-5-8.51-3.66-.92,1.26.13,3.02,12.39,11.93,12.09,8.78,14.07,9.62,15.14,8.14.95-1.3-.38-2.86-5.81-6.81-.96-.7-2.29-1.6-3.06-2.09l.57-.78c.77.49,2.11,1.4,3.06,2.09.64.47,1.23.91,1.77,1.32-1.8-2.04-4.24-5.26-7.79-10.14-9.41-12.96-9.84-15.1-7.89-16.53,2-1.45,3.7-.03,8.31,6.32,1.2,1.65,2.66,3.85,3.47,5.05l-.78.57c-.81-1.21-2.27-3.4-3.47-5.05-4.17-5.74-5.61-7.08-6.96-6.1-1.26.92-.81,2.91,8.1,15.17,8.78,12.09,10.41,13.5,11.88,12.43,1.3-.95.53-2.84-3.42-8.28-.7-.96-1.69-2.23-2.27-2.94l.78-.57c.58.71,1.57,1.98,2.27,2.94.47.64.89,1.24,1.28,1.8-1.08-2.49-2.41-6.31-4.27-12.05-4.95-15.23-4.7-17.41-2.39-18.15,2.35-.76,3.53,1.11,5.95,8.58.63,1.94,1.34,4.48,1.74,5.88l-.92.3c-.4-1.4-1.11-3.93-1.74-5.88-2.19-6.75-3.15-8.47-4.73-7.96-1.48.48-1.67,2.52,3.02,16.93,4.62,14.21,5.73,16.05,7.46,15.49,1.53-.5,1.38-2.54-.7-8.93-.37-1.12-.91-2.64-1.25-3.49l.92-.3c.33.85.88,2.37,1.25,3.49.25.76.46,1.46.66,2.11-.26-2.7-.34-6.75-.34-12.78,0-16.02.91-18.01,3.33-18.01s3.01,2.15,3.01,10c0,2.04-.11,4.68-.16,6.13h-.97c.05-1.45.16-4.08.16-6.13,0-7.09-.38-9.03-2.04-9.03-1.56,0-2.37,1.88-2.37,17.04s.48,17.04,2.31,17.04c1.61,0,2.1-1.99,2.1-8.71,0-1.18-.05-2.79-.11-3.71h.97c.05.91.11,2.53.11,3.71,0,.8,0,1.53-.02,2.21.59-2.65,1.76-6.52,3.62-12.26,4.95-15.23,6.43-16.84,8.73-16.09,2.35.76,2.2,2.97-.23,10.44-.63,1.94-1.55,4.41-2.05,5.78l-.92-.3c.5-1.36,1.42-3.84,2.05-5.78,2.19-6.75,2.43-8.7.85-9.22-1.48-.48-2.83,1.06-7.51,15.47-4.62,14.21-4.8,16.35-3.07,16.92,1.53.5,2.61-1.24,4.68-7.63.37-1.12.81-2.67,1.04-3.56l.92.3c-.23.89-.68,2.44-1.04,3.56-.25.76-.48,1.45-.71,2.09,1.38-2.34,3.69-5.66,7.23-10.54,9.41-12.96,11.32-14.03,13.28-12.61,2,1.45,1.17,3.51-3.44,9.86-1.2,1.65-2.84,3.72-3.73,4.86l-.78-.57c.9-1.14,2.53-3.21,3.73-4.86,4.17-5.74,5-7.53,3.66-8.51-1.26-.92-3.02.13-11.93,12.39-8.78,12.09-9.62,14.07-8.14,15.14,1.3.95,2.86-.38,6.81-5.81.7-.96,1.6-2.29,2.09-3.06l.78.57c-.49.77-1.4,2.11-2.09,3.06-.47.64-.91,1.23-1.32,1.77,2.04-1.8,5.26-4.24,10.14-7.79,12.96-9.41,15.1-9.84,16.53-7.89,1.45,2,.03,3.7-6.32,8.31-1.65,1.2-3.85,2.66-5.05,3.47l-.57-.78c1.21-.81,3.4-2.27,5.05-3.47,5.74-4.17,7.08-5.61,6.1-6.96-.92-1.26-2.91-.81-15.17,8.1-12.09,8.78-13.5,10.41-12.43,11.88.95,1.3,2.84.53,8.28-3.42.96-.7,2.23-1.69,2.94-2.27l.57.78c-.71.58-1.98,1.57-2.94,2.27-.64.47-1.24.89-1.8,1.28,2.49-1.08,6.31-2.41,12.05-4.27,15.23-4.95,17.41-4.7,18.15-2.39.76,2.35-1.11,3.53-8.58,5.95-1.94.63-4.48,1.34-5.88,1.74l-.3-.92c1.4-.4,3.93-1.11,5.88-1.74,6.75-2.19,8.47-3.15,7.96-4.73-.48-1.48-2.52-1.67-16.93,3.02-14.21,4.62-16.05,5.73-15.49,7.46.5,1.53,2.54,1.38,8.93-.7,1.12-.37,2.64-.91,3.49-1.25l.3.92c-.85.33-2.37.88-3.49,1.25-.76.25-1.46.46-2.11.66,2.7-.26,6.75-.34,12.78-.34,16.02,0,18.01.91,18.01,3.33s-2.15,3.01-10,3.01c-2.04,0-4.68-.11-6.13-.16v-.97c1.45.05,4.08.16,6.13.16,7.09,0,9.03-.38,9.03-2.04,0-1.56-1.88-2.37-17.04-2.37s-17.04.48-17.04,2.31c0,1.61,1.99,2.1,8.71,2.1,1.18,0,2.79-.05,3.71-.11v.97c-.91.05-2.53.11-3.71.11-.8,0-1.53,0-2.21-.02,2.65.59,6.52,1.76,12.26,3.62,15.23,4.95,16.84,6.43,16.09,8.73ZM15.6,120.82c-2.31-.42-3.09-1.24-3.09-2.68,0-.82.21-1.45.95-1.92-2.33.31-3.32-.23-3.76-1.6-.25-.78-.25-1.44.31-2.12-2.12,1.01-3.23.81-4.07-.36-.48-.67-.68-1.3-.36-2.11-1.7,1.62-2.82,1.76-3.98.92-.67-.48-1.05-1.02-1-1.9-1.12,2.06-2.14,2.55-3.5,2.11-.78-.25-1.31-.65-1.53-1.5-.42,2.31-1.24,3.09-2.68,3.09-.82,0-1.45-.21-1.92-.95.31,2.33-.23,3.32-1.6,3.76-.78.25-1.44.25-2.12-.31,1.01,2.12.81,3.23-.36,4.07-.67.48-1.3.68-2.11.36,1.62,1.7,1.76,2.82.92,3.98-.48.67-1.02,1.05-1.9,1,2.06,1.12,2.55,2.14,2.11,3.5-.25.78-.65,1.31-1.5,1.53,2.31.42,3.09,1.24,3.09,2.68,0,.82-.21,1.45-.95,1.92,2.33-.31,3.32.23,3.76,1.6.25.78.25,1.44-.31,2.12,2.12-1.01,3.23-.81,4.07.36.48.67.68,1.3.36,2.11,1.7-1.62,2.82-1.76,3.98-.92.67.48,1.05,1.02,1,1.9,1.12-2.06,2.14-2.55,3.5-2.11.78.25,1.31.65,1.53,1.5.42-2.31,1.24-3.09,2.68-3.09.82,0,1.45.21,1.92.95-.31-2.33.23-3.32,1.6-3.76.78-.25,1.44-.25,2.12.31-1.01-2.12-.81-3.23.36-4.07.67-.48,1.3-.68,2.11-.36-1.62-1.7-1.76-2.82-.92-3.98.48-.67,1.02-1.05,1.9-1-2.06-1.12-2.55-2.14-2.11-3.5.25-.78.65-1.31,1.5-1.53Z"/>
            <g>
              <path class="cls-4" d="M-2.59,99.82c-1.17-.12-1.34-1.28-.71-7.69l-.62-.06c-.66,6.69-.46,8.2,1.27,8.37,1.59.16,2.03-.81,2.46-5.22.18-1.79.18-2.91-.07-3.87-.23-.86-.71-1.6-1.04-2.19-.33-.55-.75-1.22-.99-2.01-.21-.72-.32-2.05-.1-4.29.41-4.14.87-5,1.84-4.9,1.07.1,1.12,1.01.38,8.56l.62.06c.8-8.14.68-9.09-.94-9.25-1.38-.14-2.07.84-2.52,5.46-.23,2.31-.09,3.78.14,4.57s.71,1.64,1.04,2.16c.39.63.81,1.37.98,2.05.2.82.21,1.8.03,3.59-.39,3.93-.68,4.77-1.78,4.66Z"/>
              <path class="cls-4" d="M43.5,123.29c-2.31-.23-3.78-.09-4.57.14s-1.64.71-2.16,1.04c-.63.39-1.37.81-2.05.98-.82.2-1.8.21-3.59.03-3.93-.39-4.77-.68-4.66-1.78.12-1.17,1.28-1.34,7.69-.71l.06-.62c-6.69-.66-8.2-.46-8.37,1.27-.16,1.59.81,2.03,5.22,2.46,1.79.18,2.91.18,3.87-.07.86-.23,1.6-.71,2.19-1.04.55-.33,1.22-.75,2.01-.99.72-.21,2.05-.32,4.29-.1,4.14.41,5,.87,4.9,1.84-.1,1.07-1.01,1.12-8.56.38l-.06.62c8.14.8,9.09.68,9.25-.94.14-1.38-.84-2.07-5.46-2.52Z"/>
              <path class="cls-4" d="M34.41,113.2c-.48.57-1.05,1.19-1.64,1.57-.72.44-1.64.75-3.4,1.14-3.86.85-4.75.83-4.98-.25-.25-1.15.8-1.67,7.1-3.05l-.13-.61c-6.56,1.44-7.94,2.1-7.57,3.79.34,1.56,1.4,1.68,5.73.73,1.76-.39,2.82-.73,3.66-1.27.75-.48,1.3-1.17,1.76-1.66.43-.48.93-1.09,1.61-1.56.62-.42,1.85-.94,4.05-1.42,4.06-.89,5.02-.71,5.23.23.23,1.05-.62,1.38-8.03,3.01l.13.61c7.98-1.75,8.85-2.16,8.5-3.75-.3-1.35-1.44-1.71-5.97-.71-2.27.5-3.63,1.08-4.31,1.55-.68.47-1.34,1.18-1.73,1.66Z"/>
              <path class="cls-4" d="M24.71,107.34c-3.41,2-4.26,2.26-4.82,1.3-.6-1.02.25-1.83,5.81-5.09l-.32-.54c-5.8,3.4-6.91,4.45-6.03,5.95.81,1.37,1.85,1.17,5.67-1.08,1.55-.91,2.46-1.56,3.09-2.33.56-.69.88-1.52,1.16-2.13.26-.59.55-1.33,1.05-1.98.46-.59,1.47-1.46,3.41-2.6,3.59-2.1,4.55-2.23,5.05-1.39.54.93-.16,1.5-6.71,5.34l.32.54c7.05-4.14,7.75-4.79,6.93-6.19-.7-1.2-1.9-1.18-5.9,1.17-2,1.17-3.12,2.15-3.62,2.8-.5.65-.91,1.54-1.13,2.11-.28.69-.63,1.46-1.08,2-.55.64-1.33,1.22-2.88,2.13Z"/>
              <path class="cls-4" d="M18.11,101.04c1.2-1.35,1.85-2.24,2.22-3.17.32-.83.36-1.71.45-2.38.06-.64.11-1.43.38-2.21.25-.7.95-1.85,2.44-3.53,2.76-3.11,3.64-3.53,4.37-2.88.8.71.31,1.48-4.73,7.15l.47.41c5.43-6.11,5.89-6.95,4.68-8.03-1.04-.92-2.17-.53-5.25,2.94-1.54,1.74-2.3,3.01-2.57,3.78-.27.78-.39,1.74-.42,2.36-.05.74-.15,1.58-.41,2.23-.32.78-.89,1.57-2.08,2.92-2.62,2.95-3.35,3.46-4.18,2.73-.88-.78-.33-1.82,3.95-6.64l-.47-.41c-4.46,5.02-5.19,6.37-3.9,7.52,1.19,1.06,2.12.54,5.06-2.78Z"/>
              <path class="cls-4" d="M14.67,79.58c-1.27-.55-2.23.16-4.08,4.41-.93,2.13-1.26,3.57-1.28,4.39s.17,1.78.32,2.37c.18.72.34,1.55.3,2.25-.07.84-.36,1.77-1.08,3.42-1.58,3.62-2.12,4.33-3.13,3.88-1.08-.47-.88-1.63,1.7-7.53l-.57-.25c-2.69,6.16-2.97,7.66-1.38,8.35,1.46.64,2.18-.14,3.96-4.21.72-1.65,1.07-2.71,1.13-3.7.05-.89-.18-1.74-.31-2.4-.14-.63-.34-1.39-.32-2.22.02-.75.33-2.05,1.23-4.11,1.66-3.81,2.37-4.48,3.26-4.09.98.43.75,1.31-2.29,8.26l.57.25c3.27-7.49,3.46-8.43,1.97-9.08Z"/>
            </g>
            <g>
              <path class="cls-5" d="M.47,106.99c-.79-.18-.81-.99.17-5.33l-.42-.09c-1.02,4.53-1.01,5.59.16,5.85,1.07.24,1.46-.38,2.13-3.37.27-1.21.37-1.98.28-2.66-.08-.61-.35-1.16-.53-1.59-.18-.41-.41-.9-.51-1.46-.08-.51-.05-1.43.29-2.95.63-2.8,1.02-3.35,1.68-3.2.72.16.68.79-.47,5.9l.42.09c1.24-5.51,1.24-6.17.14-6.42-.93-.21-1.49.4-2.19,3.53-.35,1.56-.38,2.59-.29,3.15s.35,1.18.53,1.57c.21.47.44,1.01.5,1.49.07.58-.01,1.25-.28,2.46-.6,2.66-.87,3.21-1.62,3.05Z"/>
              <path class="cls-5" d="M30.08,126.99c-1.56-.35-2.59-.38-3.15-.29s-1.18.35-1.57.53c-.47.21-1.01.44-1.49.5-.58.07-1.25-.01-2.46-.28-2.66-.6-3.21-.87-3.05-1.62.18-.79.99-.81,5.33.17l.09-.42c-4.53-1.02-5.59-1.01-5.85.16-.24,1.07.38,1.46,3.37,2.13,1.21.27,1.98.37,2.66.28.61-.08,1.16-.35,1.59-.53.41-.18.9-.41,1.46-.51.51-.08,1.43-.05,2.95.29,2.8.63,3.35,1.02,3.2,1.68-.16.72-.79.68-5.9-.47l-.09.42c5.51,1.24,6.17,1.24,6.42.14.21-.93-.4-1.49-3.53-2.19Z"/>
              <path class="cls-5" d="M24.7,119.3c-.38.35-.82.73-1.26.93-.53.24-1.19.38-2.43.49-2.72.25-3.33.17-3.4-.6-.08-.81.69-1.07,5.12-1.49l-.04-.43c-4.62.43-5.62.77-5.51,1.96.1,1.1.82,1.27,3.87.98,1.24-.12,1.99-.26,2.62-.56.55-.27.99-.69,1.35-.99.33-.3.73-.67,1.23-.93.46-.24,1.35-.49,2.9-.63,2.86-.27,3.5-.06,3.57.6.07.74-.54.89-5.76,1.38l.04.43c5.62-.53,6.25-.73,6.15-1.85-.09-.95-.84-1.29-4.03-.99-1.6.15-2.58.43-3.08.7-.5.26-1.02.7-1.33.99Z"/>
              <path class="cls-5" d="M18.55,114.46c-2.5,1.08-3.11,1.19-3.41.48-.32-.75.33-1.24,4.41-3l-.17-.4c-4.26,1.84-5.11,2.47-4.64,3.57.44,1.01,1.17.96,3.98-.26,1.14-.49,1.82-.86,2.32-1.34.44-.43.73-.97.98-1.36.23-.38.49-.86.89-1.27.36-.37,1.13-.88,2.56-1.5,2.64-1.14,3.31-1.14,3.58-.53.29.68-.24,1.02-5.05,3.09l.17.4c5.19-2.24,5.72-2.63,5.28-3.66-.38-.88-1.2-.97-4.14.3-1.47.64-2.32,1.21-2.72,1.62-.4.41-.75.98-.96,1.35-.25.45-.56.94-.91,1.28-.43.39-1.02.73-2.16,1.22Z"/>
              <path class="cls-5" d="M14.56,109.58c.93-.82,1.46-1.38,1.79-1.99.29-.54.4-1.14.51-1.6.1-.43.2-.97.45-1.48.23-.46.81-1.19,1.97-2.21,2.16-1.9,2.8-2.11,3.24-1.61.49.56.09,1.04-3.85,4.5l.28.32c4.24-3.73,4.63-4.27,3.89-5.11-.63-.72-1.44-.55-3.85,1.57-1.2,1.06-1.83,1.87-2.09,2.38-.25.51-.41,1.16-.49,1.58-.1.5-.24,1.07-.47,1.5-.29.51-.74,1-1.68,1.83-2.05,1.8-2.59,2.09-3.1,1.51-.54-.61-.07-1.28,3.27-4.22l-.28-.32c-3.49,3.07-4.1,3.93-3.31,4.82.73.83,1.41.55,3.71-1.48Z"/>
              <path class="cls-5" d="M14.02,94.57c-.82-.49-1.54-.08-3.17,2.68-.82,1.38-1.17,2.34-1.25,2.9s-.03,1.23.02,1.65c.06.51.1,1.09.02,1.57-.12.57-.4,1.18-1.03,2.25-1.39,2.35-1.82,2.79-2.48,2.4-.7-.41-.46-1.19,1.81-5.02l-.37-.22c-2.37,3.99-2.69,5-1.66,5.61.95.56,1.51.09,3.07-2.55.63-1.07.96-1.77,1.09-2.44.11-.6.02-1.21,0-1.67-.04-.44-.11-.98-.03-1.55.08-.51.4-1.38,1.19-2.72,1.46-2.47,2.01-2.87,2.58-2.53.64.38.4.96-2.27,5.47l.37.22c2.88-4.86,3.09-5.49,2.12-6.06Z"/>
            </g>
          </g>
          <path class="cls-6" d="M5.69,125.8l-.24.06,12.56,5.07-.21.66-13.01-3.25.18.22,12.25,4.83-.12.37-11.65-4.63,8.11,9.78-.32.23-8.49-10.29-.23-.09,7.18,11.48-.56.41-8.62-10.28.02.28,7.07,11.11-.32.23-6.71-10.59.81,12.68h-.39l-.82-13.31-.13-.21-.94,13.51H.43l-.93-13.38-.15.24-.81,13.15h-.39l.8-12.51-6.8,10.73-.32-.23,7.16-11.25.02-.24-8.7,10.38-.56-.41,7.11-11.37-.26.1-8.38,10.16-.32-.23,8-9.65-11.81,4.69-.12-.37,12.4-4.89.16-.19-13.14,3.28-.21-.66,12.44-5.02-.27-.07-12.75,3.29-.12-.37,12.15-3.11-12.31-3.15.12-.37,12.91,3.33.24-.06-12.56-5.07.21-.66,13.01,3.25-.18-.22-12.25-4.83.12-.37,11.65,4.63-8.11-9.78.32-.23,8.49,10.29.23.09-7.18-11.48.56-.41,8.62,10.28-.02-.28-7.07-11.11.32-.23,6.71,10.59-.81-12.68h.39l.82,13.31.13.21.94-13.51h.69l.93,13.38.15-.24.81-13.15h.39l-.8,12.51,6.8-10.73.32.23-7.16,11.25-.02.24,8.7-10.38.56.41-7.11,11.37.26-.1,8.38-10.16.32.23-8,9.65,11.81-4.69.12.37-12.41,4.89-.16.19,13.14-3.28.21.66-12.44,5.02.27.07,12.75-3.29.12.37-12.15,3.11,12.31,3.15-.12.37-12.91-3.33ZM4.86,126.01l-.16.04-.04-.12h-.03s.01-.05.01-.05l-.17-.53,12.75-5.12-.03-.08-13.09,3.29-.1.12-.1-.07h-.03s-.01-.03-.01-.03l-.45-.33,7.3-11.64-.07-.05-8.66,10.35v.16h-.13l-.02.02-.03-.02h-.56l-.93-13.71h-.09l-.92,13.46.09.14-.1.07v.03h-.04l-.45.33-8.81-10.54-.07.05,7.17,11.43.15.06-.04.12.02.03-.03.02-.17.53-13.32-3.35-.03.08,12.52,5.03.16-.04.04.12h.03s-.01.05-.01.05l.17.53-12.75,5.12.03.08,13.09-3.29.1-.12.1.07h.03s.01.03.01.03l.45.33-7.3,11.64.07.05,8.66-10.35v-.16h.13l.02-.02.03.02H-.2l.93,13.71h.09l.92-13.46-.09-.14.1-.07v-.03h.04l.45-.33,8.81,10.54.07-.05-7.17-11.43-.15-.06.04-.12-.02-.03.03-.02.17-.53,13.32,3.35.03-.08-12.52-5.03Z"/>
        </g>
        <g>
          <g>
            <path class="cls-3" d="M236.21,7.54c-.76,2.35-2.97,2.2-10.44-.23-1.94-.63-4.41-1.55-5.78-2.05l.3-.92c1.36.5,3.84,1.42,5.78,2.05,6.75,2.19,8.7,2.43,9.22.85.48-1.48-1.06-2.83-15.47-7.51-14.21-4.62-16.35-4.8-16.92-3.07-.5,1.53,1.24,2.61,7.63,4.68,1.12.37,2.67.81,3.56,1.04l-.3.92c-.89-.23-2.44-.68-3.56-1.04-.76-.25-1.45-.48-2.09-.71,2.34,1.38,5.66,3.69,10.54,7.23,12.96,9.41,14.03,11.32,12.61,13.28-1.45,2-3.51,1.17-9.86-3.44-1.65-1.2-3.72-2.84-4.86-3.73l.57-.78c1.14.9,3.21,2.53,4.86,3.73,5.74,4.17,7.53,5,8.51,3.66.92-1.26-.13-3.02-12.39-11.93C206.02.79,204.04-.05,202.97,1.43c-.95,1.3.38,2.86,5.81,6.81.96.7,2.29,1.6,3.06,2.09l-.57.78c-.77-.49-2.11-1.4-3.06-2.09-.64-.47-1.23-.91-1.77-1.32,1.8,2.04,4.24,5.26,7.79,10.14,9.41,12.96,9.84,15.1,7.89,16.53-2,1.45-3.7.03-8.31-6.32-1.2-1.65-2.66-3.85-3.47-5.05l.78-.57c.81,1.21,2.27,3.4,3.47,5.05,4.17,5.74,5.61,7.08,6.96,6.1,1.26-.92.81-2.91-8.1-15.17-8.78-12.09-10.41-13.5-11.88-12.43-1.3.95-.53,2.84,3.42,8.28.69.96,1.69,2.23,2.27,2.94l-.78.57c-.58-.71-1.57-1.98-2.27-2.94-.47-.64-.89-1.24-1.28-1.8,1.08,2.49,2.41,6.31,4.27,12.05,4.95,15.23,4.7,17.41,2.39,18.15-2.35.76-3.53-1.11-5.95-8.58-.63-1.94-1.34-4.48-1.74-5.88l.92-.3c.4,1.4,1.11,3.93,1.74,5.88,2.19,6.75,3.15,8.47,4.73,7.96,1.48-.48,1.67-2.52-3.02-16.93-4.62-14.21-5.73-16.05-7.46-15.49-1.53.5-1.38,2.54.7,8.93.37,1.12.91,2.64,1.25,3.49l-.92.3c-.33-.85-.88-2.37-1.25-3.49-.25-.76-.46-1.46-.66-2.11.26,2.7.34,6.75.34,12.78,0,16.02-.91,18.01-3.33,18.01s-3.01-2.15-3.01-10c0-2.04.11-4.68.16-6.13h.97c-.05,1.45-.16,4.08-.16,6.13,0,7.09.38,9.03,2.04,9.03,1.56,0,2.37-1.88,2.37-17.04s-.48-17.04-2.31-17.04c-1.61,0-2.1,1.99-2.1,8.71,0,1.18.05,2.79.11,3.71h-.97c-.05-.91-.11-2.53-.11-3.71,0-.8,0-1.53.02-2.21-.59,2.65-1.76,6.52-3.62,12.26-4.95,15.23-6.43,16.84-8.73,16.09-2.35-.76-2.2-2.97.23-10.44.63-1.94,1.55-4.41,2.05-5.78l.92.3c-.5,1.36-1.42,3.84-2.05,5.78-2.19,6.75-2.43,8.7-.85,9.22,1.48.48,2.83-1.06,7.51-15.47,4.62-14.21,4.8-16.35,3.07-16.92-1.53-.5-2.61,1.24-4.68,7.63-.37,1.12-.81,2.67-1.04,3.56l-.92-.3c.23-.89.68-2.44,1.04-3.56.25-.76.48-1.45.71-2.09-1.38,2.34-3.69,5.66-7.23,10.54-9.41,12.96-11.32,14.03-13.28,12.61-2-1.45-1.17-3.51,3.44-9.86,1.2-1.65,2.84-3.72,3.73-4.86l.78.57c-.9,1.14-2.53,3.21-3.73,4.86-4.17,5.74-5,7.53-3.66,8.51,1.26.92,3.02-.13,11.93-12.39,8.78-12.09,9.62-14.07,8.14-15.14-1.3-.95-2.86.38-6.81,5.81-.7.96-1.6,2.29-2.09,3.06l-.78-.57c.49-.77,1.4-2.11,2.09-3.06.47-.64.91-1.23,1.32-1.77-2.04,1.8-5.26,4.24-10.14,7.79-12.96,9.41-15.1,9.84-16.53,7.89-1.45-2-.03-3.7,6.32-8.31,1.65-1.2,3.85-2.66,5.05-3.47l.57.78c-1.21.81-3.4,2.27-5.05,3.47-5.74,4.17-7.08,5.61-6.1,6.96.92,1.26,2.91.81,15.17-8.1,12.09-8.78,13.5-10.41,12.43-11.88-.95-1.3-2.84-.53-8.28,3.42-.96.7-2.23,1.69-2.94,2.27l-.57-.78c.71-.58,1.98-1.57,2.94-2.27.64-.47,1.24-.89,1.8-1.28-2.49,1.08-6.31,2.41-12.05,4.27-15.23,4.95-17.41,4.7-18.15,2.39-.76-2.35,1.11-3.53,8.58-5.95,1.94-.63,4.48-1.34,5.88-1.74l.3.92c-1.4.4-3.93,1.11-5.88,1.74-6.75,2.19-8.47,3.15-7.96,4.73.48,1.48,2.52,1.67,16.93-3.02,14.21-4.62,16.05-5.73,15.49-7.46-.5-1.53-2.54-1.38-8.93.7-1.12.37-2.64.91-3.49,1.25l-.3-.92c.85-.33,2.37-.88,3.49-1.25.76-.25,1.46-.46,2.11-.66-2.7.26-6.75.34-12.78.34-16.02,0-18.01-.91-18.01-3.33s2.15-3.01,10-3.01c2.04,0,4.68.11,6.13.16v.97c-1.45-.05-4.08-.16-6.13-.16-7.09,0-9.03.38-9.03,2.04,0,1.56,1.88,2.37,17.04,2.37s17.04-.48,17.04-2.31c0-1.61-1.99-2.1-8.71-2.1-1.18,0-2.79.05-3.71.11v-.97c.91-.05,2.53-.11,3.71-.11.8,0,1.53,0,2.21.02-2.65-.59-6.52-1.76-12.26-3.62-15.23-4.95-16.84-6.43-16.09-8.73.76-2.35,2.97-2.2,10.44.23,1.94.63,4.41,1.55,5.78,2.05l-.3.92c-1.36-.5-3.84-1.42-5.78-2.05-6.75-2.19-8.7-2.43-9.22-.85-.48,1.48,1.06,2.83,15.47,7.51,14.21,4.62,16.35,4.8,16.92,3.07.5-1.53-1.24-2.61-7.63-4.68-1.12-.37-2.67-.81-3.56-1.04l.3-.92c.89.23,2.44.68,3.56,1.04.76.25,1.45.48,2.09.71-2.34-1.38-5.66-3.69-10.54-7.23-12.96-9.41-14.03-11.32-12.61-13.28,1.45-2,3.51-1.17,9.86,3.44,1.65,1.2,3.72,2.84,4.86,3.73l-.57.78c-1.14-.9-3.21-2.53-4.86-3.73-5.74-4.17-7.53-5-8.51-3.66-.92,1.26.13,3.02,12.39,11.93,12.09,8.78,14.07,9.62,15.14,8.14.95-1.3-.38-2.86-5.81-6.81-.96-.7-2.29-1.6-3.06-2.09l.57-.78c.77.49,2.11,1.4,3.06,2.09.64.47,1.23.91,1.77,1.32-1.8-2.04-4.24-5.26-7.79-10.14-9.41-12.96-9.84-15.1-7.89-16.53,2-1.45,3.7-.03,8.31,6.32,1.2,1.65,2.66,3.85,3.47,5.05l-.78.57c-.81-1.21-2.27-3.4-3.47-5.05-4.17-5.74-5.61-7.08-6.96-6.1-1.26.92-.81,2.91,8.1,15.17,8.78,12.09,10.41,13.5,11.88,12.43,1.3-.95.53-2.84-3.42-8.28-.7-.96-1.69-2.23-2.27-2.94l.78-.57c.58.71,1.57,1.98,2.27,2.94.47.64.89,1.24,1.28,1.8-1.08-2.49-2.41-6.31-4.27-12.05-4.95-15.23-4.7-17.41-2.39-18.15,2.35-.76,3.53,1.11,5.95,8.58.63,1.94,1.34,4.48,1.74,5.88l-.92.3c-.4-1.4-1.11-3.93-1.74-5.88-2.19-6.75-3.15-8.47-4.73-7.96-1.48.48-1.67,2.52,3.02,16.93,4.62,14.21,5.73,16.05,7.46,15.49,1.53-.5,1.38-2.54-.7-8.93-.37-1.12-.91-2.64-1.25-3.49l.92-.3c.33.85.88,2.37,1.25,3.49.25.76.46,1.46.66,2.11-.26-2.7-.34-6.75-.34-12.78,0-16.02.91-18.01,3.33-18.01s3.01,2.15,3.01,10c0,2.04-.11,4.68-.16,6.13h-.97c.05-1.45.16-4.08.16-6.13,0-7.09-.38-9.03-2.04-9.03-1.56,0-2.37,1.88-2.37,17.04s.48,17.04,2.31,17.04c1.61,0,2.1-1.99,2.1-8.71,0-1.18-.05-2.79-.11-3.71h.97c.05.91.11,2.53.11,3.71,0,.8,0,1.53-.02,2.21.59-2.65,1.76-6.52,3.62-12.26,4.95-15.23,6.43-16.84,8.73-16.09,2.35.76,2.2,2.97-.23,10.44-.63,1.94-1.55,4.41-2.05,5.78l-.92-.3c.5-1.36,1.42-3.84,2.05-5.78,2.19-6.75,2.43-8.7.85-9.22-1.48-.48-2.83,1.06-7.51,15.47-4.62,14.21-4.8,16.35-3.07,16.92,1.53.5,2.61-1.24,4.68-7.63.37-1.12.81-2.67,1.04-3.56l.92.3c-.23.89-.68,2.44-1.04,3.56-.25.76-.48,1.45-.71,2.09,1.38-2.34,3.69-5.66,7.23-10.54,9.41-12.96,11.32-14.03,13.28-12.61,2,1.45,1.17,3.51-3.44,9.86-1.2,1.65-2.84,3.72-3.73,4.86l-.78-.57c.9-1.14,2.53-3.21,3.73-4.86,4.17-5.74,5-7.53,3.66-8.51-1.26-.92-3.02.13-11.93,12.39-8.78,12.09-9.62,14.07-8.14,15.14,1.3.95,2.86-.38,6.81-5.81.7-.96,1.6-2.29,2.09-3.06l.78.57c-.49.77-1.4,2.11-2.09,3.06-.47.64-.91,1.23-1.32,1.77,2.04-1.8,5.26-4.24,10.14-7.79,12.96-9.41,15.1-9.84,16.53-7.89,1.45,2,.03,3.7-6.32,8.31-1.65,1.2-3.85,2.66-5.05,3.47l-.57-.78c1.21-.81,3.4-2.27,5.05-3.47,5.74-4.17,7.08-5.61,6.1-6.96-.92-1.26-2.91-.81-15.17,8.1-12.09,8.78-13.5,10.41-12.43,11.88.95,1.3,2.84.53,8.28-3.42.96-.7,2.23-1.69,2.94-2.27l.57.78c-.71.58-1.98,1.57-2.94,2.27-.64.47-1.24.89-1.8,1.28,2.49-1.08,6.31-2.41,12.05-4.27,15.23-4.95,17.41-4.7,18.15-2.39.76,2.35-1.11,3.53-8.58,5.95-1.94.63-4.48,1.34-5.88,1.74l-.3-.92c1.4-.4,3.93-1.11,5.88-1.74,6.75-2.19,8.47-3.15,7.96-4.73-.48-1.48-2.52-1.67-16.93,3.02-14.21,4.62-16.05,5.73-15.49,7.46.5,1.53,2.54,1.38,8.93-.7,1.12-.37,2.64-.91,3.49-1.25l.3.92c-.85.33-2.37.88-3.49,1.25-.76.25-1.46.46-2.11.66,2.7-.26,6.75-.34,12.78-.34,16.02,0,18.01.91,18.01,3.33s-2.15,3.01-10,3.01c-2.04,0-4.68-.11-6.13-.16v-.97c1.45.05,4.08.16,6.13.16,7.09,0,9.03-.38,9.03-2.04,0-1.56-1.88-2.37-17.04-2.37s-17.04.48-17.04,2.31c0,1.61,1.99,2.1,8.71,2.1,1.18,0,2.79-.05,3.71-.11v.97c-.91.05-2.53.11-3.71.11-.8,0-1.53,0-2.21-.02,2.65.59,6.52,1.76,12.26,3.62,15.23,4.95,16.84,6.43,16.09,8.73ZM203.48-5.18c-2.31-.42-3.09-1.24-3.09-2.68,0-.82.21-1.45.95-1.92-2.33.31-3.32-.23-3.76-1.6-.25-.78-.25-1.44.31-2.12-2.12,1.01-3.23.81-4.07-.36-.48-.67-.68-1.3-.36-2.11-1.7,1.62-2.82,1.76-3.98.92-.67-.48-1.05-1.02-1-1.9-1.12,2.06-2.14,2.55-3.5,2.11-.78-.25-1.31-.65-1.53-1.5-.42,2.31-1.24,3.09-2.68,3.09-.82,0-1.45-.21-1.92-.95.31,2.33-.23,3.32-1.6,3.76-.78.25-1.44.25-2.12-.31,1.01,2.12.81,3.23-.36,4.07-.67.48-1.3.68-2.11.36,1.62,1.7,1.76,2.82.92,3.98-.48.67-1.02,1.05-1.9,1,2.06,1.12,2.55,2.14,2.11,3.5-.25.78-.65,1.31-1.5,1.53,2.31.42,3.09,1.24,3.09,2.68,0,.82-.21,1.45-.95,1.92,2.33-.31,3.32.23,3.76,1.6.25.78.25,1.44-.31,2.12,2.12-1.01,3.23-.81,4.07.36.48.67.68,1.3.36,2.11,1.7-1.62,2.82-1.76,3.98-.92.67.48,1.05,1.02,1,1.9,1.12-2.06,2.14-2.55,3.5-2.11.78.25,1.31.65,1.53,1.5.42-2.31,1.24-3.09,2.68-3.09.82,0,1.45.21,1.92.95-.31-2.33.23-3.32,1.6-3.76.78-.25,1.44-.25,2.12.31-1.01-2.12-.81-3.23.36-4.07.67-.48,1.3-.68,2.11-.36-1.62-1.7-1.76-2.82-.92-3.98.48-.67,1.02-1.05,1.9-1-2.06-1.12-2.55-2.14-2.11-3.5.25-.78.65-1.31,1.5-1.53Z"/>
            <g>
              <path class="cls-4" d="M148.95,3.15c.79-.24,1.64-.71,2.16-1.04.63-.39,1.37-.81,2.05-.98.82-.2,1.8-.21,3.59-.03,3.93.39,4.77.68,4.66,1.78-.12,1.17-1.28,1.34-7.69.71l-.06.62c6.69.66,8.2.46,8.37-1.27.16-1.59-.81-2.03-5.22-2.46-1.79-.18-2.91-.18-3.87.07-.86.23-1.6.71-2.19,1.04-.55.33-1.22.75-2.01.99-.72.21-2.05.32-4.29.1-4.14-.41-5-.87-4.9-1.84.1-1.07,1.01-1.12,8.56-.38l.06-.62c-8.14-.8-9.09-.68-9.25.94-.14,1.38.84,2.07,5.46,2.52,2.31.23,3.78.09,4.57-.14Z"/>
              <path class="cls-4" d="M153.47,13.39c.48-.57,1.05-1.19,1.64-1.57.72-.44,1.64-.75,3.4-1.14,3.86-.85,4.75-.83,4.98.25.25,1.15-.8,1.67-7.1,3.05l.13.61c6.56-1.44,7.94-2.1,7.57-3.79-.34-1.56-1.4-1.68-5.73-.73-1.76.39-2.82.73-3.66,1.27-.75.48-1.3,1.17-1.76,1.66-.43.48-.93,1.09-1.61,1.56-.62.42-1.85.94-4.05,1.42-4.06.89-5.02.71-5.23-.23-.23-1.05.62-1.38,8.03-3.01l-.13-.61c-7.98,1.75-8.85,2.16-8.5,3.75.3,1.35,1.44,1.71,5.97.71,2.27-.5,3.63-1.08,4.31-1.55.68-.47,1.34-1.18,1.73-1.66Z"/>
              <path class="cls-4" d="M163.16,19.25c3.41-2,4.26-2.26,4.82-1.3.6,1.02-.25,1.83-5.81,5.09l.32.54c5.8-3.4,6.91-4.45,6.03-5.95-.81-1.37-1.85-1.17-5.67,1.08-1.55.91-2.46,1.56-3.09,2.33-.56.69-.88,1.52-1.16,2.13-.26.59-.55,1.33-1.05,1.98-.46.59-1.47,1.46-3.41,2.6-3.59,2.1-4.55,2.23-5.05,1.39-.54-.93.16-1.5,6.71-5.34l-.32-.54c-7.05,4.14-7.75,4.79-6.93,6.19.7,1.2,1.9,1.18,5.9-1.17,2-1.17,3.12-2.15,3.62-2.8s.91-1.54,1.13-2.11c.28-.69.63-1.46,1.08-2,.55-.64,1.33-1.22,2.88-2.13Z"/>
              <path class="cls-4" d="M174.82,22.76c-1.19-1.06-2.12-.54-5.06,2.78-1.2,1.35-1.85,2.24-2.22,3.17-.32.83-.36,1.71-.45,2.38-.06.64-.11,1.43-.38,2.21-.25.7-.95,1.85-2.44,3.53-2.76,3.11-3.64,3.53-4.37,2.88-.8-.71-.31-1.48,4.73-7.15l-.47-.41c-5.43,6.11-5.89,6.95-4.68,8.03,1.04.92,2.17.53,5.25-2.94,1.54-1.74,2.3-3.01,2.57-3.78s.39-1.74.42-2.36c.05-.74.15-1.58.41-2.23.32-.78.89-1.57,2.08-2.92,2.62-2.95,3.35-3.46,4.18-2.73.88.78.33,1.82-3.95,6.64l.47.41c4.46-5.02,5.19-6.37,3.9-7.52Z"/>
              <path class="cls-4" d="M182.41,25.7c-1.46-.64-2.18.14-3.96,4.21-.72,1.65-1.07,2.71-1.13,3.7-.05.89.18,1.74.31,2.4.14.63.34,1.39.32,2.22-.02.75-.33,2.05-1.23,4.11-1.66,3.81-2.37,4.48-3.26,4.09-.98-.43-.75-1.31,2.29-8.26l-.57-.25c-3.27,7.49-3.46,8.43-1.97,9.08,1.27.55,2.23-.16,4.08-4.41.93-2.13,1.26-3.57,1.28-4.39s-.17-1.78-.32-2.37c-.18-.72-.34-1.55-.3-2.25.07-.84.36-1.77,1.08-3.42,1.58-3.62,2.12-4.33,3.13-3.88,1.08.47.88,1.63-1.7,7.53l.57.25c2.69-6.16,2.97-7.66,1.38-8.35Z"/>
              <path class="cls-4" d="M190.46,26.77c1.17.12,1.34,1.28.71,7.69l.62.06c.66-6.69.46-8.2-1.27-8.37-1.59-.16-2.03.81-2.46,5.22-.18,1.79-.18,2.91.07,3.87.23.86.71,1.6,1.04,2.19.33.55.75,1.22.99,2.01.21.72.32,2.05.1,4.29-.41,4.14-.87,5-1.84,4.9-1.07-.1-1.12-1.01-.38-8.56l-.62-.06c-.8,8.14-.68,9.09.94,9.25,1.38.14,2.07-.84,2.52-5.46.23-2.31.09-3.78-.14-4.57s-.71-1.64-1.04-2.16c-.39-.63-.81-1.37-.98-2.05-.2-.82-.21-1.8-.03-3.59.39-3.93.68-4.77,1.78-4.66Z"/>
            </g>
            <g>
              <path class="cls-5" d="M163.17,5.42c.38-.35.82-.73,1.26-.93.53-.24,1.19-.38,2.43-.49,2.72-.25,3.33-.17,3.4.6.08.81-.69,1.07-5.12,1.49l.04.43c4.62-.43,5.62-.77,5.51-1.96-.1-1.1-.82-1.27-3.87-.98-1.24.12-1.99.26-2.62.56-.55.27-.99.69-1.35.99-.33.3-.73.67-1.23.93-.46.24-1.35.49-2.9.63-2.86.27-3.5.06-3.57-.6-.07-.74.54-.89,5.76-1.38l-.04-.43c-5.62.53-6.25.73-6.15,1.85.09.95.84,1.29,4.03.99,1.6-.15,2.58-.43,3.08-.7.5-.26,1.02-.7,1.33-.99Z"/>
              <path class="cls-5" d="M169.32,10.26c2.5-1.08,3.11-1.19,3.41-.48.32.75-.33,1.24-4.41,3l.17.4c4.26-1.84,5.11-2.47,4.64-3.57-.44-1.01-1.17-.96-3.98.26-1.14.49-1.82.86-2.32,1.34-.44.43-.73.97-.98,1.36-.23.38-.49.86-.89,1.27-.36.37-1.13.88-2.56,1.5-2.64,1.14-3.31,1.14-3.58.53-.29-.68.24-1.02,5.05-3.09l-.17-.4c-5.19,2.24-5.72,2.63-5.28,3.66.38.88,1.2.97,4.14-.3,1.47-.64,2.32-1.21,2.72-1.62s.75-.98.96-1.35c.25-.45.56-.94.91-1.28.43-.39,1.02-.73,2.16-1.22Z"/>
              <path class="cls-5" d="M177.02,13.66c-.73-.83-1.41-.55-3.71,1.48-.93.82-1.46,1.38-1.79,1.99-.29.54-.4,1.14-.51,1.6-.1.43-.2.97-.45,1.48-.23.46-.81,1.19-1.97,2.21-2.16,1.9-2.8,2.11-3.24,1.61-.49-.56-.09-1.04,3.85-4.5l-.28-.32c-4.24,3.73-4.63,4.27-3.89,5.11.63.72,1.44.55,3.85-1.57,1.2-1.06,1.83-1.87,2.09-2.38s.41-1.16.49-1.58c.1-.5.24-1.07.47-1.5.29-.51.74-1,1.68-1.83,2.05-1.8,2.59-2.09,3.1-1.51.54.61.07,1.28-3.27,4.22l.28.32c3.49-3.07,4.1-3.93,3.31-4.82Z"/>
              <path class="cls-5" d="M181.97,16.31c-.95-.56-1.51-.09-3.07,2.55-.63,1.07-.96,1.77-1.09,2.44-.11.6-.02,1.21,0,1.67.04.44.11.98.03,1.55-.08.51-.4,1.38-1.19,2.72-1.46,2.47-2.01,2.87-2.58,2.53-.64-.38-.4-.96,2.27-5.47l-.37-.22c-2.88,4.86-3.09,5.49-2.12,6.06.82.49,1.54.08,3.17-2.68.82-1.38,1.17-2.34,1.25-2.9s.03-1.23-.02-1.65c-.06-.51-.1-1.09-.02-1.57.12-.57.4-1.18,1.03-2.25,1.39-2.35,1.82-2.79,2.48-2.4.7.41.46,1.19-1.81,5.02l.37.22c2.37-3.99,2.69-5,1.66-5.61Z"/>
              <path class="cls-5" d="M187.4,17.73c.79.18.81.99-.17,5.33l.42.09c1.02-4.53,1.01-5.59-.16-5.85-1.07-.24-1.46.38-2.13,3.37-.27,1.21-.37,1.98-.28,2.66.08.61.35,1.16.53,1.59.18.41.41.9.51,1.46.08.51.05,1.43-.29,2.95-.63,2.8-1.02,3.35-1.68,3.2-.72-.16-.68-.79.47-5.9l-.42-.09c-1.24,5.51-1.24,6.17-.14,6.42.93.21,1.49-.4,2.19-3.53.35-1.56.38-2.59.29-3.15s-.35-1.18-.53-1.57c-.21-.47-.44-1.01-.5-1.49-.07-.58.01-1.25.28-2.46.6-2.66.87-3.21,1.62-3.05Z"/>
            </g>
          </g>
          <path class="cls-6" d="M193.56-.2l-.24.06,12.56,5.07-.21.66-13.01-3.25.18.22,12.25,4.83-.12.37-11.65-4.63,8.11,9.78-.32.23-8.49-10.29-.23-.09,7.18,11.48-.56.41-8.62-10.28.02.28,7.07,11.11-.32.23-6.71-10.59.81,12.68h-.39l-.82-13.31-.13-.21-.94,13.51h-.69l-.93-13.38-.15.24-.81,13.15h-.39l.8-12.51-6.8,10.73-.32-.23,7.16-11.25.02-.24-8.7,10.38-.56-.41,7.11-11.37-.26.1-8.38,10.16-.32-.23,8-9.65-11.81,4.69-.12-.37,12.4-4.89.16-.19-13.14,3.28-.21-.66,12.44-5.02-.27-.07-12.75,3.29-.12-.37,12.15-3.11-12.31-3.15.12-.37L183.23-.04l.24-.06-12.56-5.07.21-.66,13.01,3.25-.18-.22-12.25-4.83.12-.37,11.65,4.63-8.11-9.78.32-.23,8.49,10.29.23.09-7.18-11.48.56-.41,8.62,10.28-.02-.28-7.07-11.11.32-.23,6.71,10.59-.81-12.68h.39l.82,13.31.13.21.94-13.51h.69l.93,13.38.15-.24.81-13.15h.39l-.8,12.51,6.8-10.73.32.23-7.16,11.25-.02.24,8.7-10.38.56.41-7.11,11.37.26-.1,8.38-10.16.32.23-8,9.65,11.81-4.69.12.37-12.41,4.89-.16.19,13.14-3.28.21.66-12.44,5.02.27.07,12.75-3.29.12.37-12.15,3.11,12.31,3.15-.12.37-12.91-3.33ZM192.74,0l-.16.04-.04-.12h-.03s.01-.05.01-.05l-.17-.53,12.75-5.12-.03-.08-13.09,3.29-.1.12-.1-.07h-.03s-.01-.03-.01-.03l-.45-.33,7.3-11.64-.07-.05-8.66,10.35v.16h-.13l-.02.02-.03-.02h-.56l-.93-13.71h-.09l-.92,13.46.09.14-.1.07v.03h-.04l-.45.33-8.81-10.54-.07.05,7.17,11.43.15.06-.04.12.02.03-.03.02-.17.53-13.32-3.35-.03.08L184.06-.25l.16-.04.04.12h.03s-.01.05-.01.05l.17.53-12.75,5.12.03.08,13.09-3.29.1-.12.1.07h.03s.01.03.01.03l.45.33-7.3,11.64.07.05,8.66-10.35v-.16h.13l.02-.02.03.02h.56l.93,13.71h.09l.92-13.46-.09-.14.1-.07v-.03h.04l.45-.33,8.81,10.54.07-.05-7.17-11.43-.15-.06.04-.12-.02-.03.03-.02.17-.53,13.32,3.35.03-.08L192.74,0Z"/>
        </g>
        <g>
          <g>
            <path class="cls-3" d="M142.27,70.54c-.76,2.35-2.97,2.2-10.44-.23-1.94-.63-4.41-1.55-5.78-2.05l.3-.92c1.36.5,3.84,1.42,5.78,2.05,6.75,2.19,8.7,2.43,9.22.85.48-1.48-1.06-2.83-15.47-7.51-14.21-4.62-16.35-4.8-16.92-3.07-.5,1.53,1.24,2.61,7.63,4.68,1.12.37,2.67.81,3.56,1.04l-.3.92c-.89-.23-2.44-.68-3.56-1.04-.76-.25-1.45-.48-2.09-.71,2.34,1.38,5.66,3.69,10.54,7.23,12.96,9.41,14.03,11.32,12.61,13.28-1.45,2-3.51,1.17-9.86-3.44-1.65-1.2-3.72-2.84-4.86-3.73l.57-.78c1.14.9,3.21,2.53,4.86,3.73,5.74,4.17,7.53,5,8.51,3.66.92-1.26-.13-3.02-12.39-11.93-12.09-8.78-14.07-9.62-15.14-8.14-.95,1.3.38,2.86,5.81,6.81.96.7,2.29,1.6,3.06,2.09l-.57.78c-.77-.49-2.11-1.4-3.06-2.09-.64-.47-1.23-.91-1.77-1.32,1.8,2.04,4.24,5.26,7.79,10.14,9.41,12.96,9.84,15.1,7.89,16.53-2,1.45-3.7.03-8.31-6.32-1.2-1.65-2.66-3.85-3.47-5.05l.78-.57c.81,1.21,2.27,3.4,3.47,5.05,4.17,5.74,5.61,7.08,6.96,6.1,1.26-.92.81-2.91-8.1-15.17-8.78-12.09-10.41-13.5-11.88-12.43-1.3.95-.53,2.84,3.42,8.28.69.96,1.69,2.23,2.27,2.94l-.78.57c-.58-.71-1.57-1.98-2.27-2.94-.47-.64-.89-1.24-1.28-1.8,1.08,2.49,2.41,6.31,4.27,12.05,4.95,15.23,4.7,17.41,2.39,18.15-2.35.76-3.53-1.11-5.95-8.58-.63-1.94-1.34-4.48-1.74-5.88l.92-.3c.4,1.4,1.11,3.93,1.74,5.88,2.19,6.75,3.15,8.47,4.73,7.96,1.48-.48,1.67-2.52-3.02-16.93-4.62-14.21-5.73-16.05-7.46-15.49-1.53.5-1.38,2.54.7,8.93.37,1.12.91,2.64,1.25,3.49l-.92.3c-.33-.85-.88-2.37-1.25-3.49-.25-.76-.46-1.46-.66-2.11.26,2.7.34,6.75.34,12.78,0,16.02-.91,18.01-3.33,18.01s-3.01-2.15-3.01-10c0-2.04.11-4.68.16-6.13h.97c-.05,1.45-.16,4.08-.16,6.13,0,7.09.38,9.03,2.04,9.03,1.56,0,2.37-1.88,2.37-17.04s-.48-17.04-2.31-17.04c-1.61,0-2.1,1.99-2.1,8.71,0,1.18.05,2.79.11,3.71h-.97c-.05-.91-.11-2.53-.11-3.71,0-.8,0-1.53.02-2.21-.59,2.65-1.76,6.52-3.62,12.26-4.95,15.23-6.43,16.84-8.73,16.09-2.35-.76-2.2-2.97.23-10.44.63-1.94,1.55-4.41,2.05-5.78l.92.3c-.5,1.36-1.42,3.84-2.05,5.78-2.19,6.75-2.43,8.7-.85,9.22,1.48.48,2.83-1.06,7.51-15.47,4.62-14.21,4.8-16.35,3.07-16.92-1.53-.5-2.61,1.24-4.68,7.63-.37,1.12-.81,2.67-1.04,3.56l-.92-.3c.23-.89.68-2.44,1.04-3.56.25-.76.48-1.45.71-2.09-1.38,2.34-3.69,5.66-7.23,10.54-9.41,12.96-11.32,14.03-13.28,12.61-2-1.45-1.17-3.51,3.44-9.86,1.2-1.65,2.84-3.72,3.73-4.86l.78.57c-.9,1.14-2.53,3.21-3.73,4.86-4.17,5.74-5,7.53-3.66,8.51,1.26.92,3.02-.13,11.93-12.39,8.78-12.09,9.62-14.07,8.14-15.14-1.3-.95-2.86.38-6.81,5.81-.7.96-1.6,2.29-2.09,3.06l-.78-.57c.49-.77,1.4-2.11,2.09-3.06.47-.64.91-1.23,1.32-1.77-2.04,1.8-5.26,4.24-10.14,7.79-12.96,9.41-15.1,9.84-16.53,7.89-1.45-2-.03-3.7,6.32-8.31,1.65-1.2,3.85-2.66,5.05-3.47l.57.78c-1.21.81-3.4,2.27-5.05,3.47-5.74,4.17-7.08,5.61-6.1,6.96.92,1.26,2.91.81,15.17-8.1,12.09-8.78,13.5-10.41,12.43-11.88-.95-1.3-2.84-.53-8.28,3.42-.96.7-2.23,1.69-2.94,2.27l-.57-.78c.71-.58,1.98-1.57,2.94-2.27.64-.47,1.24-.89,1.8-1.28-2.49,1.08-6.31,2.41-12.05,4.27-15.23,4.95-17.41,4.7-18.15,2.39-.76-2.35,1.11-3.53,8.58-5.95,1.94-.63,4.48-1.34,5.88-1.74l.3.92c-1.4.4-3.93,1.11-5.88,1.74-6.75,2.19-8.47,3.15-7.96,4.73.48,1.48,2.52,1.67,16.93-3.02,14.21-4.62,16.05-5.73,15.49-7.46-.5-1.53-2.54-1.38-8.93.7-1.12.37-2.64.91-3.49,1.25l-.3-.92c.85-.33,2.37-.88,3.49-1.25.76-.25,1.46-.46,2.11-.66-2.7.26-6.75.34-12.78.34-16.02,0-18.01-.91-18.01-3.33s2.15-3.01,10-3.01c2.04,0,4.68.11,6.13.16v.97c-1.45-.05-4.08-.16-6.13-.16-7.09,0-9.03.38-9.03,2.04,0,1.56,1.88,2.37,17.04,2.37s17.04-.48,17.04-2.31c0-1.61-1.99-2.1-8.71-2.1-1.18,0-2.79.05-3.71.11v-.97c.91-.05,2.53-.11,3.71-.11.8,0,1.53,0,2.21.02-2.65-.59-6.52-1.76-12.26-3.62-15.23-4.95-16.84-6.43-16.09-8.73.76-2.35,2.97-2.2,10.44.23,1.94.63,4.41,1.55,5.78,2.05l-.3.92c-1.36-.5-3.84-1.42-5.78-2.05-6.75-2.19-8.7-2.43-9.22-.85-.48,1.48,1.06,2.83,15.47,7.51,14.21,4.62,16.35,4.8,16.92,3.07.5-1.53-1.24-2.61-7.63-4.68-1.12-.37-2.67-.81-3.56-1.04l.3-.92c.89.23,2.44.68,3.56,1.04.76.25,1.45.48,2.09.71-2.34-1.38-5.66-3.69-10.54-7.23-12.96-9.41-14.03-11.32-12.61-13.28,1.45-2,3.51-1.17,9.86,3.44,1.65,1.2,3.72,2.84,4.86,3.73l-.57.78c-1.14-.9-3.21-2.53-4.86-3.73-5.74-4.17-7.53-5-8.51-3.66-.92,1.26.13,3.02,12.39,11.93,12.09,8.78,14.07,9.62,15.14,8.14.95-1.3-.38-2.86-5.81-6.81-.96-.7-2.29-1.6-3.06-2.09l.57-.78c.77.49,2.11,1.4,3.06,2.09.64.47,1.23.91,1.77,1.32-1.8-2.04-4.24-5.26-7.79-10.14-9.41-12.96-9.84-15.1-7.89-16.53,2-1.45,3.7-.03,8.31,6.32,1.2,1.65,2.66,3.85,3.47,5.05l-.78.57c-.81-1.21-2.27-3.4-3.47-5.05-4.17-5.74-5.61-7.08-6.96-6.1-1.26.92-.81,2.91,8.1,15.17,8.78,12.09,10.41,13.5,11.88,12.43,1.3-.95.53-2.84-3.42-8.28-.7-.96-1.69-2.23-2.27-2.94l.78-.57c.58.71,1.57,1.98,2.27,2.94.47.64.89,1.24,1.28,1.8-1.08-2.49-2.41-6.31-4.27-12.05-4.95-15.23-4.7-17.41-2.39-18.15,2.35-.76,3.53,1.11,5.95,8.58.63,1.94,1.34,4.48,1.74,5.88l-.92.3c-.4-1.4-1.11-3.93-1.74-5.88-2.19-6.75-3.15-8.47-4.73-7.96-1.48.48-1.67,2.52,3.02,16.93,4.62,14.21,5.73,16.05,7.46,15.49,1.53-.5,1.38-2.54-.7-8.93-.37-1.12-.91-2.64-1.25-3.49l.92-.3c.33.85.88,2.37,1.25,3.49.25.76.46,1.46.66,2.11-.26-2.7-.34-6.75-.34-12.78,0-16.02.91-18.01,3.33-18.01s3.01,2.15,3.01,10c0,2.04-.11,4.68-.16,6.13h-.97c.05-1.45.16-4.08.16-6.13,0-7.09-.38-9.03-2.04-9.03-1.56,0-2.37,1.88-2.37,17.04s.48,17.04,2.31,17.04c1.61,0,2.1-1.99,2.1-8.71,0-1.18-.05-2.79-.11-3.71h.97c.05.91.11,2.53.11,3.71,0,.8,0,1.53-.02,2.21.59-2.65,1.76-6.52,3.62-12.26,4.95-15.23,6.43-16.84,8.73-16.09,2.35.76,2.2,2.97-.23,10.44-.63,1.94-1.55,4.41-2.05,5.78l-.92-.3c.5-1.36,1.42-3.84,2.05-5.78,2.19-6.75,2.43-8.7.85-9.22-1.48-.48-2.83,1.06-7.51,15.47-4.62,14.21-4.8,16.35-3.07,16.92,1.53.5,2.61-1.24,4.68-7.63.37-1.12.81-2.67,1.04-3.56l.92.3c-.23.89-.68,2.44-1.04,3.56-.25.76-.48,1.45-.71,2.09,1.38-2.34,3.69-5.66,7.23-10.54,9.41-12.96,11.32-14.03,13.28-12.61,2,1.45,1.17,3.51-3.44,9.86-1.2,1.65-2.84,3.72-3.73,4.86l-.78-.57c.9-1.14,2.53-3.21,3.73-4.86,4.17-5.74,5-7.53,3.66-8.51-1.26-.92-3.02.13-11.93,12.39-8.78,12.09-9.62,14.07-8.14,15.14,1.3.95,2.86-.38,6.81-5.81.7-.96,1.6-2.29,2.09-3.06l.78.57c-.49.77-1.4,2.11-2.09,3.06-.47.64-.91,1.23-1.32,1.77,2.04-1.8,5.26-4.24,10.14-7.79,12.96-9.41,15.1-9.84,16.53-7.89,1.45,2,.03,3.7-6.32,8.31-1.65,1.2-3.85,2.66-5.05,3.47l-.57-.78c1.21-.81,3.4-2.27,5.05-3.47,5.74-4.17,7.08-5.61,6.1-6.96-.92-1.26-2.91-.81-15.17,8.1-12.09,8.78-13.5,10.41-12.43,11.88.95,1.3,2.84.53,8.28-3.42.96-.7,2.23-1.69,2.94-2.27l.57.78c-.71.58-1.98,1.57-2.94,2.27-.64.47-1.24.89-1.8,1.28,2.49-1.08,6.31-2.41,12.05-4.27,15.23-4.95,17.41-4.7,18.15-2.39.76,2.35-1.11,3.53-8.58,5.95-1.94.63-4.48,1.34-5.88,1.74l-.3-.92c1.4-.4,3.93-1.11,5.88-1.74,6.75-2.19,8.47-3.15,7.96-4.73-.48-1.48-2.52-1.67-16.93,3.02-14.21,4.62-16.05,5.73-15.49,7.46.5,1.53,2.54,1.38,8.93-.7,1.12-.37,2.64-.91,3.49-1.25l.3.92c-.85.33-2.37.88-3.49,1.25-.76.25-1.46.46-2.11.66,2.7-.26,6.75-.34,12.78-.34,16.02,0,18.01.91,18.01,3.33s-2.15,3.01-10,3.01c-2.04,0-4.68-.11-6.13-.16v-.97c1.45.05,4.08.16,6.13.16,7.09,0,9.03-.38,9.03-2.04,0-1.56-1.88-2.37-17.04-2.37s-17.04.48-17.04,2.31c0,1.61,1.99,2.1,8.71,2.1,1.18,0,2.79-.05,3.71-.11v.97c-.91.05-2.53.11-3.71.11-.8,0-1.53,0-2.21-.02,2.65.59,6.52,1.76,12.26,3.62,15.23,4.95,16.84,6.43,16.09,8.73ZM109.54,57.82c-2.31-.42-3.09-1.24-3.09-2.68,0-.82.21-1.45.95-1.92-2.33.31-3.32-.23-3.76-1.6-.25-.78-.25-1.44.31-2.12-2.12,1.01-3.23.81-4.07-.36-.48-.67-.68-1.3-.36-2.11-1.7,1.62-2.82,1.76-3.98.92-.67-.48-1.05-1.02-1-1.9-1.12,2.06-2.14,2.55-3.5,2.11-.78-.25-1.31-.65-1.53-1.5-.42,2.31-1.24,3.09-2.68,3.09-.82,0-1.45-.21-1.92-.95.31,2.33-.23,3.32-1.6,3.76-.78.25-1.44.25-2.12-.31,1.01,2.12.81,3.23-.36,4.07-.67.48-1.3.68-2.11.36,1.62,1.7,1.76,2.82.92,3.98-.48.67-1.02,1.05-1.9,1,2.06,1.12,2.55,2.14,2.11,3.5-.25.78-.65,1.31-1.5,1.53,2.31.42,3.09,1.24,3.09,2.68,0,.82-.21,1.45-.95,1.92,2.33-.31,3.32.23,3.76,1.6.25.78.25,1.44-.31,2.12,2.12-1.01,3.23-.81,4.07.36.48.67.68,1.3.36,2.11,1.7-1.62,2.82-1.76,3.98-.92.67.48,1.05,1.02,1,1.9,1.12-2.06,2.14-2.55,3.5-2.11.78.25,1.31.65,1.53,1.5.42-2.31,1.24-3.09,2.68-3.09.82,0,1.45.21,1.92.95-.31-2.33.23-3.32,1.6-3.76.78-.25,1.44-.25,2.12.31-1.01-2.12-.81-3.23.36-4.07.67-.48,1.3-.68,2.11-.36-1.62-1.7-1.76-2.82-.92-3.98.48-.67,1.02-1.05,1.9-1-2.06-1.12-2.55-2.14-2.11-3.5.25-.78.65-1.31,1.5-1.53Z"/>
            <g>
              <path class="cls-4" d="M91.35,36.82c-1.17-.12-1.34-1.28-.71-7.69l-.62-.06c-.66,6.69-.46,8.2,1.27,8.37,1.59.16,2.03-.81,2.46-5.22.18-1.79.18-2.91-.07-3.87-.23-.86-.71-1.6-1.04-2.19-.33-.55-.75-1.22-.99-2.01-.21-.72-.32-2.05-.1-4.29.41-4.14.87-5,1.84-4.9,1.07.1,1.12,1.01.38,8.56l.62.06c.8-8.14.68-9.09-.94-9.25-1.38-.14-2.07.84-2.52,5.46-.23,2.31-.09,3.78.14,4.57s.71,1.64,1.04,2.16c.39.63.81,1.37.98,2.05.2.82.21,1.8.03,3.59-.39,3.93-.68,4.77-1.78,4.66Z"/>
              <path class="cls-4" d="M79.19,27.16c.47.68,1.18,1.34,1.66,1.73.57.48,1.19,1.05,1.57,1.64.44.72.75,1.64,1.14,3.4.85,3.86.83,4.75-.25,4.98-1.15.25-1.67-.8-3.05-7.1l-.61.13c1.44,6.56,2.1,7.94,3.79,7.57,1.56-.34,1.68-1.4.73-5.73-.39-1.76-.73-2.82-1.27-3.66-.48-.75-1.17-1.3-1.66-1.76-.48-.43-1.09-.93-1.56-1.61-.42-.62-.94-1.85-1.42-4.05-.89-4.06-.71-5.02.23-5.23,1.05-.23,1.38.62,3.01,8.03l.61-.13c-1.75-7.98-2.16-8.85-3.75-8.5-1.35.3-1.71,1.44-.71,5.97.5,2.27,1.08,3.63,1.55,4.31Z"/>
              <path class="cls-4" d="M68.74,33.48c.65.5,1.54.91,2.11,1.13.69.28,1.46.63,2,1.08.64.55,1.22,1.33,2.13,2.88,2,3.41,2.26,4.26,1.3,4.82-1.02.6-1.83-.25-5.09-5.81l-.54.32c3.4,5.8,4.45,6.91,5.95,6.03,1.37-.81,1.17-1.85-1.08-5.67-.91-1.55-1.56-2.46-2.33-3.09-.69-.56-1.52-.88-2.13-1.16-.59-.26-1.33-.55-1.98-1.05-.59-.46-1.46-1.47-2.6-3.41-2.1-3.59-2.23-4.55-1.39-5.05.93-.54,1.5.16,5.34,6.71l.54-.32c-4.14-7.05-4.79-7.75-6.19-6.93-1.2.7-1.18,1.9,1.17,5.9,1.17,2,2.15,3.12,2.8,3.62Z"/>
              <path class="cls-4" d="M56.98,40.16c1.74,1.54,3.01,2.3,3.78,2.57s1.74.39,2.36.42c.74.05,1.58.15,2.23.41.78.32,1.57.89,2.92,2.08,2.95,2.62,3.46,3.35,2.73,4.18-.78.88-1.82.33-6.64-3.95l-.41.47c5.02,4.46,6.37,5.19,7.52,3.9,1.06-1.19.54-2.12-2.78-5.06-1.35-1.2-2.24-1.85-3.17-2.22-.83-.32-1.71-.36-2.38-.45-.64-.06-1.43-.11-2.21-.38-.7-.25-1.85-.95-3.53-2.44-3.11-2.76-3.53-3.64-2.88-4.37.71-.8,1.48-.31,7.15,4.73l.41-.47c-6.11-5.43-6.95-5.89-8.03-4.68-.92,1.04-.53,2.17,2.94,5.25Z"/>
              <path class="cls-4" d="M51.64,52.71c2.13.93,3.57,1.26,4.39,1.28s1.77-.17,2.37-.32c.72-.18,1.55-.34,2.25-.3.84.07,1.77.36,3.42,1.08,3.62,1.58,4.33,2.12,3.88,3.13-.47,1.08-1.63.88-7.53-1.7l-.25.57c6.16,2.69,7.66,2.97,8.35,1.38.64-1.46-.14-2.18-4.21-3.96-1.65-.72-2.71-1.07-3.7-1.13-.89-.05-1.74.18-2.4.31-.63.14-1.39.34-2.22.32-.75-.02-2.05-.33-4.11-1.23-3.81-1.66-4.48-2.37-4.09-3.26.43-.98,1.31-.75,8.26,2.29l.25-.57c-7.49-3.27-8.43-3.46-9.08-1.97-.55,1.27.16,2.23,4.41,4.08Z"/>
              <path class="cls-4" d="M55.01,66.15c.79-.24,1.64-.71,2.16-1.04.63-.39,1.37-.81,2.05-.98.82-.2,1.8-.21,3.59-.03,3.93.39,4.77.68,4.66,1.78-.12,1.17-1.28,1.34-7.69.71l-.06.62c6.69.66,8.2.46,8.37-1.27.16-1.59-.81-2.03-5.22-2.46-1.79-.18-2.91-.18-3.87.07-.86.23-1.6.71-2.19,1.04-.55.33-1.22.75-2.01.99-.72.21-2.05.32-4.29.1-4.14-.41-5-.87-4.9-1.84.1-1.07,1.01-1.12,8.56-.38l.06-.62c-8.14-.8-9.09-.68-9.25.94-.14,1.38.84,2.07,5.46,2.52,2.31.23,3.78.09,4.57-.14Z"/>
              <path class="cls-4" d="M59.53,76.39c.48-.57,1.05-1.19,1.64-1.57.72-.44,1.64-.75,3.4-1.14,3.86-.85,4.75-.83,4.98.25.25,1.15-.8,1.67-7.1,3.05l.13.61c6.56-1.44,7.94-2.1,7.57-3.79-.34-1.56-1.4-1.68-5.73-.73-1.76.39-2.82.73-3.66,1.27-.75.48-1.3,1.17-1.76,1.66-.43.48-.93,1.09-1.61,1.56-.62.42-1.85.94-4.05,1.42-4.06.89-5.02.71-5.23-.23-.23-1.05.62-1.38,8.03-3.01l-.13-.61c-7.98,1.75-8.85,2.16-8.5,3.75.3,1.35,1.44,1.71,5.97.71,2.27-.5,3.63-1.08,4.31-1.55.68-.47,1.34-1.18,1.73-1.66Z"/>
              <path class="cls-4" d="M69.22,82.25c3.41-2,4.26-2.26,4.82-1.3.6,1.02-.25,1.83-5.81,5.09l.32.54c5.8-3.4,6.91-4.45,6.03-5.95-.81-1.37-1.85-1.17-5.67,1.08-1.55.91-2.46,1.56-3.09,2.33-.56.69-.88,1.52-1.16,2.13-.26.59-.55,1.33-1.05,1.98-.46.59-1.47,1.46-3.41,2.6-3.59,2.1-4.55,2.23-5.05,1.39-.54-.93.16-1.5,6.71-5.34l-.32-.54c-7.05,4.14-7.75,4.79-6.93,6.19.7,1.2,1.9,1.18,5.9-1.17,2-1.17,3.12-2.15,3.62-2.8s.91-1.54,1.13-2.11c.28-.69.63-1.46,1.08-2,.55-.64,1.33-1.22,2.88-2.13Z"/>
              <path class="cls-4" d="M80.88,85.76c-1.19-1.06-2.12-.54-5.06,2.78-1.2,1.35-1.85,2.24-2.22,3.17-.32.83-.36,1.71-.45,2.38-.06.64-.11,1.43-.38,2.21-.25.7-.95,1.85-2.44,3.53-2.76,3.11-3.64,3.53-4.37,2.88-.8-.71-.31-1.48,4.73-7.15l-.47-.41c-5.43,6.11-5.89,6.95-4.68,8.03,1.04.92,2.17.53,5.25-2.94,1.54-1.74,2.3-3.01,2.57-3.78s.39-1.74.42-2.36c.05-.74.15-1.58.41-2.23.32-.78.89-1.57,2.08-2.92,2.62-2.95,3.35-3.46,4.18-2.73.88.78.33,1.82-3.95,6.64l.47.41c4.46-5.02,5.19-6.37,3.9-7.52Z"/>
              <path class="cls-4" d="M88.47,88.7c-1.46-.64-2.18.14-3.96,4.21-.72,1.65-1.07,2.71-1.13,3.7-.05.89.18,1.74.31,2.4.14.63.34,1.39.32,2.22-.02.75-.33,2.05-1.23,4.11-1.66,3.81-2.37,4.48-3.26,4.09-.98-.43-.75-1.31,2.29-8.26l-.57-.25c-3.27,7.49-3.46,8.43-1.97,9.08,1.27.55,2.23-.16,4.08-4.41.93-2.13,1.26-3.57,1.28-4.39s-.17-1.78-.32-2.37c-.18-.72-.34-1.55-.3-2.25.07-.84.36-1.77,1.08-3.42,1.58-3.62,2.12-4.33,3.13-3.88,1.08.47.88,1.63-1.7,7.53l.57.25c2.69-6.16,2.97-7.66,1.38-8.35Z"/>
              <path class="cls-4" d="M96.52,89.77c1.17.12,1.34,1.28.71,7.69l.62.06c.66-6.69.46-8.2-1.27-8.37-1.59-.16-2.03.81-2.46,5.22-.18,1.79-.18,2.91.07,3.87.23.86.71,1.6,1.04,2.19.33.55.75,1.22.99,2.01.21.72.32,2.05.1,4.29-.41,4.14-.87,5-1.84,4.9-1.07-.1-1.12-1.01-.38-8.56l-.62-.06c-.8,8.14-.68,9.09.94,9.25,1.38.14,2.07-.84,2.52-5.46.23-2.31.09-3.78-.14-4.57s-.71-1.64-1.04-2.16c-.39-.63-.81-1.37-.98-2.05-.2-.82-.21-1.8-.03-3.59.39-3.93.68-4.77,1.78-4.66Z"/>
              <path class="cls-4" d="M108.69,99.43c-.47-.68-1.18-1.34-1.66-1.73-.57-.48-1.19-1.05-1.57-1.64-.44-.72-.75-1.64-1.14-3.4-.85-3.86-.83-4.75.25-4.98,1.15-.25,1.67.8,3.05,7.1l.61-.13c-1.44-6.56-2.1-7.94-3.79-7.57-1.56.34-1.68,1.4-.73,5.73.39,1.76.73,2.82,1.27,3.66.48.75,1.17,1.3,1.66,1.76.48.43,1.09.93,1.56,1.61.42.62.94,1.85,1.42,4.05.89,4.06.71,5.02-.23,5.23-1.05.23-1.38-.62-3.01-8.03l-.61.13c1.75,7.98,2.16,8.85,3.75,8.5,1.35-.3,1.71-1.44.71-5.97-.5-2.27-1.08-3.63-1.55-4.31Z"/>
              <path class="cls-4" d="M119.13,93.1c-.65-.5-1.54-.91-2.11-1.13-.69-.28-1.46-.63-2-1.08-.64-.55-1.22-1.33-2.13-2.88-2-3.41-2.26-4.26-1.3-4.82,1.02-.6,1.83.25,5.09,5.81l.54-.32c-3.4-5.8-4.45-6.91-5.95-6.03-1.37.81-1.17,1.85,1.08,5.67.91,1.55,1.56,2.46,2.33,3.09.69.56,1.52.88,2.13,1.16.59.26,1.33.55,1.98,1.05.59.46,1.46,1.47,2.6,3.41,2.1,3.59,2.23,4.55,1.39,5.05-.93.54-1.5-.16-5.34-6.71l-.54.32c4.14,7.05,4.79,7.75,6.19,6.93,1.2-.7,1.18-1.9-1.17-5.9-1.17-2-2.15-3.12-2.8-3.62Z"/>
              <path class="cls-4" d="M130.89,86.43c-1.74-1.54-3.01-2.3-3.78-2.57-.78-.27-1.74-.39-2.36-.42-.74-.05-1.58-.15-2.23-.41-.78-.32-1.57-.89-2.92-2.08-2.95-2.62-3.46-3.35-2.73-4.18.78-.88,1.82-.33,6.64,3.95l.41-.47c-5.02-4.46-6.37-5.19-7.52-3.9-1.06,1.19-.54,2.12,2.78,5.06,1.35,1.2,2.24,1.85,3.17,2.22.83.32,1.71.36,2.38.45.64.06,1.43.11,2.21.38.7.25,1.85.95,3.53,2.44,3.11,2.76,3.53,3.64,2.88,4.37-.71.8-1.48.31-7.15-4.73l-.41.47c6.11,5.43,6.95,5.89,8.03,4.68.92-1.04.53-2.17-2.94-5.25Z"/>
              <path class="cls-4" d="M136.23,73.88c-2.13-.93-3.57-1.26-4.39-1.28-.82-.02-1.77.17-2.37.32-.72.18-1.55.34-2.25.3-.84-.07-1.77-.36-3.42-1.08-3.62-1.58-4.33-2.12-3.88-3.13.47-1.08,1.63-.88,7.53,1.7l.25-.57c-6.16-2.69-7.66-2.97-8.35-1.38-.64,1.46.14,2.18,4.21,3.96,1.65.72,2.71,1.07,3.7,1.13.89.05,1.74-.18,2.4-.31.63-.14,1.39-.34,2.22-.32.75.02,2.05.33,4.11,1.23,3.81,1.66,4.48,2.37,4.09,3.26-.43.98-1.31.75-8.26-2.29l-.25.57c7.49,3.27,8.43,3.46,9.08,1.97.55-1.27-.16-2.23-4.41-4.08Z"/>
              <path class="cls-4" d="M137.44,60.29c-2.31-.23-3.78-.09-4.57.14s-1.64.71-2.16,1.04c-.63.39-1.37.81-2.05.98-.82.2-1.8.21-3.59.03-3.93-.39-4.77-.68-4.66-1.78.12-1.17,1.28-1.34,7.69-.71l.06-.62c-6.69-.66-8.2-.46-8.37,1.27-.16,1.59.81,2.03,5.22,2.46,1.79.18,2.91.18,3.87-.07.86-.23,1.6-.71,2.19-1.04.55-.33,1.22-.75,2.01-.99.72-.21,2.05-.32,4.29-.1,4.14.41,5,.87,4.9,1.84-.1,1.07-1.01,1.12-8.56.38l-.06.62c8.14.8,9.09.68,9.25-.94.14-1.38-.84-2.07-5.46-2.52Z"/>
              <path class="cls-4" d="M128.34,50.2c-.48.57-1.05,1.19-1.64,1.57-.72.44-1.64.75-3.4,1.14-3.86.85-4.75.83-4.98-.25-.25-1.15.8-1.67,7.1-3.05l-.13-.61c-6.56,1.44-7.94,2.1-7.57,3.79.34,1.56,1.4,1.68,5.73.73,1.76-.39,2.82-.73,3.66-1.27.75-.48,1.3-1.17,1.76-1.66.43-.48.93-1.09,1.61-1.56.62-.42,1.85-.94,4.05-1.42,4.06-.89,5.02-.71,5.23.23.23,1.05-.62,1.38-8.03,3.01l.13.61c7.98-1.75,8.85-2.16,8.5-3.75-.3-1.35-1.44-1.71-5.97-.71-2.27.5-3.63,1.08-4.31,1.55-.68.47-1.34,1.18-1.73,1.66Z"/>
              <path class="cls-4" d="M118.65,44.34c-3.41,2-4.26,2.26-4.82,1.3-.6-1.02.25-1.83,5.81-5.09l-.32-.54c-5.8,3.4-6.91,4.45-6.03,5.95.81,1.37,1.85,1.17,5.67-1.08,1.55-.91,2.46-1.56,3.09-2.33.56-.69.88-1.52,1.16-2.13.26-.59.55-1.33,1.05-1.98.46-.59,1.47-1.46,3.41-2.6,3.59-2.1,4.55-2.23,5.05-1.39.54.93-.16,1.5-6.71,5.34l.32.54c7.05-4.14,7.75-4.79,6.93-6.19-.7-1.2-1.9-1.18-5.9,1.17-2,1.17-3.12,2.15-3.62,2.8-.5.65-.91,1.54-1.13,2.11-.28.69-.63,1.46-1.08,2-.55.64-1.33,1.22-2.88,2.13Z"/>
              <path class="cls-4" d="M112.05,38.04c1.2-1.35,1.85-2.24,2.22-3.17.32-.83.36-1.71.45-2.38.06-.64.11-1.43.38-2.21.25-.7.95-1.85,2.44-3.53,2.76-3.11,3.64-3.53,4.37-2.88.8.71.31,1.48-4.73,7.15l.47.41c5.43-6.11,5.89-6.95,4.68-8.03-1.04-.92-2.17-.53-5.25,2.94-1.54,1.74-2.3,3.01-2.57,3.78-.27.78-.39,1.74-.42,2.36-.05.74-.15,1.58-.41,2.23-.32.78-.89,1.57-2.08,2.92-2.62,2.95-3.35,3.46-4.18,2.73-.88-.78-.33-1.82,3.95-6.64l-.47-.41c-4.46,5.02-5.19,6.37-3.9,7.52,1.19,1.06,2.12.54,5.06-2.78Z"/>
              <path class="cls-4" d="M108.61,16.58c-1.27-.55-2.23.16-4.08,4.41-.93,2.13-1.26,3.57-1.28,4.39s.17,1.78.32,2.37c.18.72.34,1.55.3,2.25-.07.84-.36,1.77-1.08,3.42-1.58,3.62-2.12,4.33-3.13,3.88-1.08-.47-.88-1.63,1.7-7.53l-.57-.25c-2.69,6.16-2.97,7.66-1.38,8.35,1.46.64,2.18-.14,3.96-4.21.72-1.65,1.07-2.71,1.13-3.7.05-.89-.18-1.74-.31-2.4-.14-.63-.34-1.39-.32-2.22.02-.75.33-2.05,1.23-4.11,1.66-3.81,2.37-4.48,3.26-4.09.98.43.75,1.31-2.29,8.26l.57.25c3.27-7.49,3.46-8.43,1.97-9.08Z"/>
            </g>
            <g>
              <path class="cls-5" d="M94.41,43.99c-.79-.18-.81-.99.17-5.33l-.42-.09c-1.02,4.53-1.01,5.59.16,5.85,1.07.24,1.46-.38,2.13-3.37.27-1.21.37-1.98.28-2.66-.08-.61-.35-1.16-.53-1.59-.18-.41-.41-.9-.51-1.46-.08-.51-.05-1.43.29-2.95.63-2.8,1.02-3.35,1.68-3.2.72.16.68.79-.47,5.9l.42.09c1.24-5.51,1.24-6.17.14-6.42-.93-.21-1.49.4-2.19,3.53-.35,1.56-.38,2.59-.29,3.15s.35,1.18.53,1.57c.21.47.44,1.01.5,1.49.07.58-.01,1.25-.28,2.46-.6,2.66-.87,3.21-1.62,3.05Z"/>
              <path class="cls-5" d="M86.89,36.33c.26.5.7,1.02.99,1.33.35.38.73.82.93,1.26.24.53.38,1.19.49,2.43.25,2.72.17,3.33-.6,3.4-.81.08-1.07-.69-1.49-5.12l-.43.04c.43,4.62.77,5.62,1.96,5.51,1.1-.1,1.27-.82.98-3.87-.12-1.24-.26-1.99-.56-2.62-.27-.55-.69-.99-.99-1.35-.3-.33-.67-.73-.93-1.23-.24-.46-.49-1.35-.63-2.9-.27-2.86-.06-3.5.6-3.57.74-.07.89.54,1.38,5.76l.43-.04c-.53-5.62-.73-6.25-1.85-6.15-.95.09-1.29.84-.99,4.03.15,1.6.43,2.58.7,3.08Z"/>
              <path class="cls-5" d="M79.19,39.78c.41.4.98.75,1.35.96.45.25.94.56,1.28.91.39.43.73,1.02,1.22,2.16,1.08,2.5,1.19,3.11.48,3.41-.75.32-1.24-.33-3-4.41l-.4.17c1.84,4.26,2.47,5.11,3.57,4.64,1.01-.44.96-1.17-.26-3.98-.49-1.14-.86-1.82-1.34-2.32-.43-.44-.97-.73-1.36-.98-.38-.23-.86-.49-1.27-.89-.37-.36-.88-1.13-1.5-2.56-1.14-2.64-1.14-3.31-.53-3.58.68-.29,1.02.24,3.09,5.05l.4-.17c-2.24-5.19-2.63-5.72-3.66-5.28-.88.38-.97,1.2.3,4.14.64,1.47,1.21,2.32,1.62,2.72Z"/>
              <path class="cls-5" d="M70.56,43.36c1.06,1.2,1.87,1.83,2.38,2.09s1.16.41,1.58.49c.5.1,1.07.24,1.5.47.51.29,1,.74,1.83,1.68,1.8,2.05,2.09,2.59,1.51,3.1-.61.54-1.28.07-4.22-3.27l-.32.28c3.07,3.49,3.93,4.1,4.82,3.31.83-.73.55-1.41-1.48-3.71-.82-.93-1.38-1.46-1.99-1.79-.54-.29-1.14-.4-1.6-.51-.43-.1-.97-.2-1.48-.45-.46-.23-1.19-.81-2.21-1.97-1.9-2.16-2.11-2.8-1.61-3.24.56-.49,1.04-.09,4.5,3.85l.32-.28c-3.73-4.24-4.27-4.63-5.11-3.89-.72.63-.55,1.44,1.57,3.85Z"/>
              <path class="cls-5" d="M65.83,51.51c1.38.82,2.34,1.17,2.9,1.25s1.23.03,1.65-.02c.51-.06,1.09-.1,1.57-.02.57.12,1.18.4,2.25,1.03,2.35,1.39,2.79,1.82,2.4,2.48-.41.7-1.19.46-5.02-1.81l-.22.37c3.99,2.37,5,2.69,5.61,1.66.56-.95.09-1.51-2.55-3.07-1.07-.63-1.77-.96-2.44-1.09-.6-.11-1.21-.02-1.67,0-.44.04-.98.11-1.55.03-.51-.08-1.38-.4-2.72-1.19-2.47-1.46-2.87-2.01-2.53-2.58.38-.64.96-.4,5.47,2.27l.22-.37c-4.86-2.88-5.49-3.09-6.06-2.12-.49.82-.08,1.54,2.68,3.17Z"/>
              <path class="cls-5" d="M67.01,61.02c.56-.09,1.18-.35,1.57-.53.47-.21,1.01-.44,1.49-.5.58-.07,1.25.01,2.46.28,2.66.6,3.21.87,3.05,1.62-.18.79-.99.81-5.33-.17l-.09.42c4.53,1.02,5.59,1.01,5.85-.16.24-1.07-.38-1.46-3.37-2.13-1.21-.27-1.98-.37-2.66-.28-.61.08-1.16.35-1.59.53-.41.18-.9.41-1.46.51-.51.08-1.43.05-2.95-.29-2.8-.63-3.35-1.02-3.2-1.68.16-.72.79-.68,5.9.47l.09-.42c-5.51-1.24-6.17-1.24-6.42-.14-.21.93.4,1.49,3.53,2.19,1.56.35,2.59.38,3.15.29Z"/>
              <path class="cls-5" d="M69.23,68.42c.38-.35.82-.73,1.26-.93.53-.24,1.19-.38,2.43-.49,2.72-.25,3.33-.17,3.4.6.08.81-.69,1.07-5.12,1.49l.04.43c4.62-.43,5.62-.77,5.51-1.96-.1-1.1-.82-1.27-3.87-.98-1.24.12-1.99.26-2.62.56-.55.27-.99.69-1.35.99-.33.3-.73.67-1.23.93-.46.24-1.35.49-2.9.63-2.86.27-3.5.06-3.57-.6-.07-.74.54-.89,5.76-1.38l-.04-.43c-5.62.53-6.25.73-6.15,1.85.09.95.84,1.29,4.03.99,1.6-.15,2.58-.43,3.08-.7.5-.26,1.02-.7,1.33-.99Z"/>
              <path class="cls-5" d="M75.38,73.26c2.5-1.08,3.11-1.19,3.41-.48.32.75-.33,1.24-4.41,3l.17.4c4.26-1.84,5.11-2.47,4.64-3.57-.44-1.01-1.17-.96-3.98.26-1.14.49-1.82.86-2.32,1.34-.44.43-.73.97-.98,1.36-.23.38-.49.86-.89,1.27-.36.37-1.13.88-2.56,1.5-2.64,1.14-3.31,1.14-3.58.53-.29-.68.24-1.02,5.05-3.09l-.17-.4c-5.19,2.24-5.72,2.63-5.28,3.66.38.88,1.2.97,4.14-.3,1.47-.64,2.32-1.21,2.72-1.62s.75-.98.96-1.35c.25-.45.56-.94.91-1.28.43-.39,1.02-.73,2.16-1.22Z"/>
              <path class="cls-5" d="M83.08,76.66c-.73-.83-1.41-.55-3.71,1.48-.93.82-1.46,1.38-1.79,1.99-.29.54-.4,1.14-.51,1.6-.1.43-.2.97-.45,1.48-.23.46-.81,1.19-1.97,2.21-2.16,1.9-2.8,2.11-3.24,1.61-.49-.56-.09-1.04,3.85-4.5l-.28-.32c-4.24,3.73-4.63,4.27-3.89,5.11.63.72,1.44.55,3.85-1.57,1.2-1.06,1.83-1.87,2.09-2.38s.41-1.16.49-1.58c.1-.5.24-1.07.47-1.5.29-.51.74-1,1.68-1.83,2.05-1.8,2.59-2.09,3.1-1.51.54.61.07,1.28-3.27,4.22l.28.32c3.49-3.07,4.1-3.93,3.31-4.82Z"/>
              <path class="cls-5" d="M88.03,79.31c-.95-.56-1.51-.09-3.07,2.55-.63,1.07-.96,1.77-1.09,2.44-.11.6-.02,1.21,0,1.67.04.44.11.98.03,1.55-.08.51-.4,1.38-1.19,2.72-1.46,2.47-2.01,2.87-2.58,2.53-.64-.38-.4-.96,2.27-5.47l-.37-.22c-2.88,4.86-3.09,5.49-2.12,6.06.82.49,1.54.08,3.17-2.68.82-1.38,1.17-2.34,1.25-2.9s.03-1.23-.02-1.65c-.06-.51-.1-1.09-.02-1.57.12-.57.4-1.18,1.03-2.25,1.39-2.35,1.82-2.79,2.48-2.4.7.41.46,1.19-1.81,5.02l.37.22c2.37-3.99,2.69-5,1.66-5.61Z"/>
              <path class="cls-5" d="M93.47,80.73c.79.18.81.99-.17,5.33l.42.09c1.02-4.53,1.01-5.59-.16-5.85-1.07-.24-1.46.38-2.13,3.37-.27,1.21-.37,1.98-.28,2.66.08.61.35,1.16.53,1.59.18.41.41.9.51,1.46.08.51.05,1.43-.29,2.95-.63,2.8-1.02,3.35-1.68,3.2-.72-.16-.68-.79.47-5.9l-.42-.09c-1.24,5.51-1.24,6.17-.14,6.42.93.21,1.49-.4,2.19-3.53.35-1.56.38-2.59.29-3.15s-.35-1.18-.53-1.57c-.21-.47-.44-1.01-.5-1.49-.07-.58.01-1.25.28-2.46.6-2.66.87-3.21,1.62-3.05Z"/>
              <path class="cls-5" d="M100.99,88.39c-.26-.5-.7-1.02-.99-1.33-.35-.38-.73-.82-.93-1.26-.24-.53-.38-1.19-.49-2.43-.25-2.72-.17-3.33.6-3.4.81-.08,1.07.69,1.49,5.12l.43-.04c-.43-4.62-.77-5.62-1.96-5.51-1.1.1-1.27.82-.98,3.87.12,1.24.26,1.99.56,2.62.27.55.69.99.99,1.35.3.33.67.73.93,1.23.24.46.49,1.35.63,2.9.27,2.86.06,3.5-.6,3.57-.74.07-.89-.54-1.38-5.76l-.43.04c.53,5.62.73,6.25,1.85,6.15.95-.09,1.29-.84.99-4.03-.15-1.6-.43-2.58-.7-3.08Z"/>
              <path class="cls-5" d="M108.69,84.93c-.41-.4-.98-.75-1.35-.96-.45-.25-.94-.56-1.28-.91-.39-.43-.73-1.02-1.22-2.16-1.08-2.5-1.19-3.11-.48-3.41.75-.32,1.24.33,3,4.41l.4-.17c-1.84-4.26-2.47-5.11-3.57-4.64-1.01.44-.96,1.17.26,3.98.49,1.14.86,1.82,1.34,2.32.43.44.97.73,1.36.98.38.23.86.49,1.27.89.37.36.88,1.13,1.5,2.56,1.14,2.64,1.14,3.31.53,3.58-.68.29-1.02-.24-3.09-5.05l-.4.17c2.24,5.19,2.63,5.72,3.66,5.28.88-.38.97-1.2-.3-4.14-.64-1.47-1.21-2.32-1.62-2.72Z"/>
              <path class="cls-5" d="M117.32,81.36c-1.06-1.2-1.87-1.83-2.38-2.09-.51-.25-1.16-.41-1.58-.49-.5-.1-1.07-.24-1.5-.47-.51-.29-1-.74-1.83-1.68-1.8-2.05-2.09-2.59-1.51-3.1.61-.54,1.28-.07,4.22,3.27l.32-.28c-3.07-3.49-3.93-4.1-4.82-3.31-.83.73-.55,1.41,1.48,3.71.82.93,1.38,1.46,1.99,1.79.54.29,1.14.4,1.6.51.43.1.97.2,1.48.45.46.23,1.19.81,2.21,1.97,1.9,2.16,2.11,2.8,1.61,3.24-.56.49-1.04.09-4.5-3.85l-.32.28c3.73,4.24,4.27,4.63,5.11,3.89.72-.63.55-1.44-1.57-3.85Z"/>
              <path class="cls-5" d="M122.04,73.2c-1.38-.82-2.34-1.17-2.9-1.25-.56-.08-1.23-.03-1.65.02-.51.06-1.09.1-1.57.02-.57-.12-1.18-.4-2.25-1.03-2.35-1.39-2.79-1.82-2.4-2.48.41-.7,1.19-.46,5.02,1.81l.22-.37c-3.99-2.37-5-2.69-5.61-1.66-.56.95-.09,1.51,2.55,3.07,1.07.63,1.77.96,2.44,1.09.6.11,1.21.02,1.67,0,.44-.04.98-.11,1.55-.03.51.08,1.38.4,2.72,1.19,2.47,1.46,2.87,2.01,2.53,2.58-.38.64-.96.4-5.47-2.27l-.22.37c4.86,2.88,5.49,3.09,6.06,2.12.49-.82.08-1.54-2.68-3.17Z"/>
              <path class="cls-5" d="M124.02,63.99c-1.56-.35-2.59-.38-3.15-.29s-1.18.35-1.57.53c-.47.21-1.01.44-1.49.5-.58.07-1.25-.01-2.46-.28-2.66-.6-3.21-.87-3.05-1.62.18-.79.99-.81,5.33.17l.09-.42c-4.53-1.02-5.59-1.01-5.85.16-.24,1.07.38,1.46,3.37,2.13,1.21.27,1.98.37,2.66.28.61-.08,1.16-.35,1.59-.53.41-.18.9-.41,1.46-.51.51-.08,1.43-.05,2.95.29,2.8.63,3.35,1.02,3.2,1.68-.16.72-.79.68-5.9-.47l-.09.42c5.51,1.24,6.17,1.24,6.42.14.21-.93-.4-1.49-3.53-2.19Z"/>
              <path class="cls-5" d="M118.64,56.3c-.38.35-.82.73-1.26.93-.53.24-1.19.38-2.43.49-2.72.25-3.33.17-3.4-.6-.08-.81.69-1.07,5.12-1.49l-.04-.43c-4.62.43-5.62.77-5.51,1.96.1,1.1.82,1.27,3.87.98,1.24-.12,1.99-.26,2.62-.56.55-.27.99-.69,1.35-.99.33-.3.73-.67,1.23-.93.46-.24,1.35-.49,2.9-.63,2.86-.27,3.5-.06,3.57.6.07.74-.54.89-5.76,1.38l.04.43c5.62-.53,6.25-.73,6.15-1.85-.09-.95-.84-1.29-4.03-.99-1.6.15-2.58.43-3.08.7-.5.26-1.02.7-1.33.99Z"/>
              <path class="cls-5" d="M112.49,51.46c-2.5,1.08-3.11,1.19-3.41.48-.32-.75.33-1.24,4.41-3l-.17-.4c-4.26,1.84-5.11,2.47-4.64,3.57.44,1.01,1.17.96,3.98-.26,1.14-.49,1.82-.86,2.32-1.34.44-.43.73-.97.98-1.36.23-.38.49-.86.89-1.27.36-.37,1.13-.88,2.56-1.5,2.64-1.14,3.31-1.14,3.58-.53.29.68-.24,1.02-5.05,3.09l.17.4c5.19-2.24,5.72-2.63,5.28-3.66-.38-.88-1.2-.97-4.14.3-1.47.64-2.32,1.21-2.72,1.62-.4.41-.75.98-.96,1.35-.25.45-.56.94-.91,1.28-.43.39-1.02.73-2.16,1.22Z"/>
              <path class="cls-5" d="M108.5,46.58c.93-.82,1.46-1.38,1.79-1.99.29-.54.4-1.14.51-1.6.1-.43.2-.97.45-1.48.23-.46.81-1.19,1.97-2.21,2.16-1.9,2.8-2.11,3.24-1.61.49.56.09,1.04-3.85,4.5l.28.32c4.24-3.73,4.63-4.27,3.89-5.11-.63-.72-1.44-.55-3.85,1.57-1.2,1.06-1.83,1.87-2.09,2.38-.25.51-.41,1.16-.49,1.58-.1.5-.24,1.07-.47,1.5-.29.51-.74,1-1.68,1.83-2.05,1.8-2.59,2.09-3.1,1.51-.54-.61-.07-1.28,3.27-4.22l-.28-.32c-3.49,3.07-4.1,3.93-3.31,4.82.73.83,1.41.55,3.71-1.48Z"/>
              <path class="cls-5" d="M107.96,31.57c-.82-.49-1.54-.08-3.17,2.68-.82,1.38-1.17,2.34-1.25,2.9s-.03,1.23.02,1.65c.06.51.1,1.09.02,1.57-.12.57-.4,1.18-1.03,2.25-1.39,2.35-1.82,2.79-2.48,2.4-.7-.41-.46-1.19,1.81-5.02l-.37-.22c-2.37,3.99-2.69,5-1.66,5.61.95.56,1.51.09,3.07-2.55.63-1.07.96-1.77,1.09-2.44.11-.6.02-1.21,0-1.67-.04-.44-.11-.98-.03-1.55.08-.51.4-1.38,1.19-2.72,1.46-2.47,2.01-2.87,2.58-2.53.64.38.4.96-2.27,5.47l.37.22c2.88-4.86,3.09-5.49,2.12-6.06Z"/>
            </g>
          </g>
          <path class="cls-6" d="M99.63,62.8l-.24.06,12.56,5.07-.21.66-13.01-3.25.18.22,12.25,4.83-.12.37-11.65-4.63,8.11,9.78-.32.23-8.49-10.29-.23-.09,7.18,11.48-.56.41-8.62-10.28.02.28,7.07,11.11-.32.23-6.71-10.59.81,12.68h-.39l-.82-13.31-.13-.21-.94,13.51h-.69l-.93-13.38-.15.24-.81,13.15h-.39l.8-12.51-6.8,10.73-.32-.23,7.16-11.25.02-.24-8.7,10.38-.56-.41,7.11-11.37-.26.1-8.38,10.16-.32-.23,8-9.65-11.81,4.69-.12-.37,12.4-4.89.16-.19-13.14,3.28-.21-.66,12.44-5.02-.27-.07-12.75,3.29-.12-.37,12.15-3.11-12.31-3.15.12-.37,12.91,3.33.24-.06-12.56-5.07.21-.66,13.01,3.25-.18-.22-12.25-4.83.12-.37,11.65,4.63-8.11-9.78.32-.23,8.49,10.29.23.09-7.18-11.48.56-.41,8.62,10.28-.02-.28-7.07-11.11.32-.23,6.71,10.59-.81-12.68h.39l.82,13.31.13.21.94-13.51h.69l.93,13.38.15-.24.81-13.15h.39l-.8,12.51,6.8-10.73.32.23-7.16,11.25-.02.24,8.7-10.38.56.41-7.11,11.37.26-.1,8.38-10.16.32.23-8,9.65,11.81-4.69.12.37-12.41,4.89-.16.19,13.14-3.28.21.66-12.44,5.02.27.07,12.75-3.29.12.37-12.15,3.11,12.31,3.15-.12.37-12.91-3.33ZM98.8,63.01l-.16.04-.04-.12h-.03s.01-.05.01-.05l-.17-.53,12.75-5.12-.03-.08-13.09,3.29-.1.12-.1-.07h-.03s-.01-.03-.01-.03l-.45-.33,7.3-11.64-.07-.05-8.66,10.35v.16h-.13l-.02.02-.03-.02h-.56l-.93-13.71h-.09l-.92,13.46.09.14-.1.07v.03h-.04l-.45.33-8.81-10.54-.07.05,7.17,11.43.15.06-.04.12.02.03-.03.02-.17.53-13.32-3.35-.03.08,12.52,5.03.16-.04.04.12h.03s-.01.05-.01.05l.17.53-12.75,5.12.03.08,13.09-3.29.1-.12.1.07h.03s.01.03.01.03l.45.33-7.3,11.64.07.05,8.66-10.35v-.16h.13l.02-.02.03.02h.56l.93,13.71h.09l.92-13.46-.09-.14.1-.07v-.03h.04l.45-.33,8.81,10.54.07-.05-7.17-11.43-.15-.06.04-.12-.02-.03.03-.02.17-.53,13.32,3.35.03-.08-12.52-5.03Z"/>
        </g>
        <g>
          <g>
            <path class="cls-3" d="M48.34,7.54c-.76,2.35-2.97,2.2-10.44-.23-1.94-.63-4.41-1.55-5.78-2.05l.3-.92c1.36.5,3.84,1.42,5.78,2.05,6.75,2.19,8.7,2.43,9.22.85.48-1.48-1.06-2.83-15.47-7.51C17.73-4.89,15.59-5.08,15.02-3.34c-.5,1.53,1.24,2.61,7.63,4.68,1.12.37,2.67.81,3.56,1.04l-.3.92c-.89-.23-2.44-.68-3.56-1.04-.76-.25-1.45-.48-2.09-.71,2.34,1.38,5.66,3.69,10.54,7.23,12.96,9.41,14.03,11.32,12.61,13.28-1.45,2-3.51,1.17-9.86-3.44-1.65-1.2-3.72-2.84-4.86-3.73l.57-.78c1.14.9,3.21,2.53,4.86,3.73,5.74,4.17,7.53,5,8.51,3.66.92-1.26-.13-3.02-12.39-11.93C18.15.79,16.17-.05,15.09,1.43c-.95,1.3.38,2.86,5.81,6.81.96.7,2.29,1.6,3.06,2.09l-.57.78c-.77-.49-2.11-1.4-3.06-2.09-.64-.47-1.23-.91-1.77-1.32,1.8,2.04,4.24,5.26,7.79,10.14,9.41,12.96,9.84,15.1,7.89,16.53-2,1.45-3.7.03-8.31-6.32-1.2-1.65-2.66-3.85-3.47-5.05l.78-.57c.81,1.21,2.27,3.4,3.47,5.05,4.17,5.74,5.61,7.08,6.96,6.1,1.26-.92.81-2.91-8.1-15.17C16.79,6.32,15.16,4.91,13.69,5.99c-1.3.95-.53,2.84,3.42,8.28.69.96,1.69,2.23,2.27,2.94l-.78.57c-.58-.71-1.57-1.98-2.27-2.94-.47-.64-.89-1.24-1.28-1.8,1.08,2.49,2.41,6.31,4.27,12.05,4.95,15.23,4.7,17.41,2.39,18.15-2.35.76-3.53-1.11-5.95-8.58-.63-1.94-1.34-4.48-1.74-5.88l.92-.3c.4,1.4,1.11,3.93,1.74,5.88,2.19,6.75,3.15,8.47,4.73,7.96,1.48-.48,1.67-2.52-3.02-16.93-4.62-14.21-5.73-16.05-7.46-15.49-1.53.5-1.38,2.54.7,8.93.37,1.12.91,2.64,1.25,3.49l-.92.3c-.33-.85-.88-2.37-1.25-3.49-.25-.76-.46-1.46-.66-2.11.26,2.7.34,6.75.34,12.78,0,16.02-.91,18.01-3.33,18.01s-3.01-2.15-3.01-10c0-2.04.11-4.68.16-6.13h.97c-.05,1.45-.16,4.08-.16,6.13,0,7.09.38,9.03,2.04,9.03,1.56,0,2.37-1.88,2.37-17.04s-.48-17.04-2.31-17.04c-1.61,0-2.1,1.99-2.1,8.71,0,1.18.05,2.79.11,3.71h-.97c-.05-.91-.11-2.53-.11-3.71,0-.8,0-1.53.02-2.21-.59,2.65-1.76,6.52-3.62,12.26-4.95,15.23-6.43,16.84-8.73,16.09-2.35-.76-2.2-2.97.23-10.44.63-1.94,1.55-4.41,2.05-5.78l.92.3c-.5,1.36-1.42,3.84-2.05,5.78-2.19,6.75-2.43,8.7-.85,9.22,1.48.48,2.83-1.06,7.51-15.47C4.16,17,4.34,14.85,2.61,14.29,1.07,13.79,0,15.53-2.08,21.92c-.37,1.12-.81,2.67-1.04,3.56l-.92-.3c.23-.89.68-2.44,1.04-3.56.25-.76.48-1.45.71-2.09-1.38,2.34-3.69,5.66-7.23,10.54-9.41,12.96-11.32,14.03-13.28,12.61-2-1.45-1.17-3.51,3.44-9.86,1.2-1.65,2.84-3.72,3.73-4.86l.78.57c-.9,1.14-2.53,3.21-3.73,4.86-4.17,5.74-5,7.53-3.66,8.51,1.26.92,3.02-.13,11.93-12.39C-1.53,17.41-.69,15.43-2.16,14.36c-1.3-.95-2.86.38-6.81,5.81-.7.96-1.6,2.29-2.09,3.06l-.78-.57c.49-.77,1.4-2.11,2.09-3.06.47-.64.91-1.23,1.32-1.77-2.04,1.8-5.26,4.24-10.14,7.79-12.96,9.41-15.1,9.84-16.53,7.89-1.45-2-.03-3.7,6.32-8.31,1.65-1.2,3.85-2.66,5.05-3.47l.57.78c-1.21.81-3.4,2.27-5.05,3.47-5.74,4.17-7.08,5.61-6.1,6.96.92,1.26,2.91.81,15.17-8.1C-7.06,16.05-5.65,14.43-6.72,12.95c-.95-1.3-2.84-.53-8.28,3.42-.96.7-2.23,1.69-2.94,2.27l-.57-.78c.71-.58,1.98-1.57,2.94-2.27.64-.47,1.24-.89,1.8-1.28-2.49,1.08-6.31,2.41-12.05,4.27-15.23,4.95-17.41,4.7-18.15,2.39-.76-2.35,1.11-3.53,8.58-5.95,1.94-.63,4.48-1.34,5.88-1.74l.3.92c-1.4.4-3.93,1.11-5.88,1.74-6.75,2.19-8.47,3.15-7.96,4.73.48,1.48,2.52,1.67,16.93-3.02,14.21-4.62,16.05-5.73,15.49-7.46-.5-1.53-2.54-1.38-8.93.7-1.12.37-2.64.91-3.49,1.25l-.3-.92c.85-.33,2.37-.88,3.49-1.25.76-.25,1.46-.46,2.11-.66-2.7.26-6.75.34-12.78.34-16.02,0-18.01-.91-18.01-3.33s2.15-3.01,10-3.01c2.04,0,4.68.11,6.13.16v.97c-1.45-.05-4.08-.16-6.13-.16-7.09,0-9.03.38-9.03,2.04,0,1.56,1.88,2.37,17.04,2.37s17.04-.48,17.04-2.31c0-1.61-1.99-2.1-8.71-2.1-1.18,0-2.79.05-3.71.11v-.97c.91-.05,2.53-.11,3.71-.11.8,0,1.53,0,2.21.02-2.65-.59-6.52-1.76-12.26-3.62-15.23-4.95-16.84-6.43-16.09-8.73.76-2.35,2.97-2.2,10.44.23,1.94.63,4.41,1.55,5.78,2.05l-.3.92c-1.36-.5-3.84-1.42-5.78-2.05-6.75-2.19-8.7-2.43-9.22-.85-.48,1.48,1.06,2.83,15.47,7.51C-17.73,3.42-15.59,3.61-15.02,1.87c.5-1.53-1.24-2.61-7.63-4.68-1.12-.37-2.67-.81-3.56-1.04l.3-.92c.89.23,2.44.68,3.56,1.04.76.25,1.45.48,2.09.71-2.34-1.38-5.66-3.69-10.54-7.23-12.96-9.41-14.03-11.32-12.61-13.28,1.45-2,3.51-1.17,9.86,3.44,1.65,1.2,3.72,2.84,4.86,3.73l-.57.78c-1.14-.9-3.21-2.53-4.86-3.73-5.74-4.17-7.53-5-8.51-3.66-.92,1.26.13,3.02,12.39,11.93C-18.15-2.26-16.17-1.42-15.09-2.9c.95-1.3-.38-2.86-5.81-6.81-.96-.7-2.29-1.6-3.06-2.09l.57-.78c.77.49,2.11,1.4,3.06,2.09.64.47,1.23.91,1.77,1.32-1.8-2.04-4.24-5.26-7.79-10.14-9.41-12.96-9.84-15.1-7.89-16.53,2-1.45,3.7-.03,8.31,6.32,1.2,1.65,2.66,3.85,3.47,5.05l-.78.57c-.81-1.21-2.27-3.4-3.47-5.05-4.17-5.74-5.61-7.08-6.96-6.1-1.26.92-.81,2.91,8.1,15.17C-16.79-7.8-15.16-6.38-13.69-7.46c1.3-.95.53-2.84-3.42-8.28-.7-.96-1.69-2.23-2.27-2.94l.78-.57c.58.71,1.57,1.98,2.27,2.94.47.64.89,1.24,1.28,1.8-1.08-2.49-2.41-6.31-4.27-12.05-4.95-15.23-4.7-17.41-2.39-18.15,2.35-.76,3.53,1.11,5.95,8.58.63,1.94,1.34,4.48,1.74,5.88l-.92.3c-.4-1.4-1.11-3.93-1.74-5.88-2.19-6.75-3.15-8.47-4.73-7.96-1.48.48-1.67,2.52,3.02,16.93,4.62,14.21,5.73,16.05,7.46,15.49,1.53-.5,1.38-2.54-.7-8.93-.37-1.12-.91-2.64-1.25-3.49l.92-.3c.33.85.88,2.37,1.25,3.49.25.76.46,1.46.66,2.11-.26-2.7-.34-6.75-.34-12.78,0-16.02.91-18.01,3.33-18.01s3.01,2.15,3.01,10c0,2.04-.11,4.68-.16,6.13h-.97c.05-1.45.16-4.08.16-6.13,0-7.09-.38-9.03-2.04-9.03-1.56,0-2.37,1.88-2.37,17.04s.48,17.04,2.31,17.04c1.61,0,2.1-1.99,2.1-8.71,0-1.18-.05-2.79-.11-3.71h.97c.05.91.11,2.53.11,3.71,0,.8,0,1.53-.02,2.21.59-2.65,1.76-6.52,3.62-12.26,4.95-15.23,6.43-16.84,8.73-16.09,2.35.76,2.2,2.97-.23,10.44-.63,1.94-1.55,4.41-2.05,5.78l-.92-.3c.5-1.36,1.42-3.84,2.05-5.78,2.19-6.75,2.43-8.7.85-9.22-1.48-.48-2.83,1.06-7.51,15.47-4.62,14.21-4.8,16.35-3.07,16.92C-1.07-15.26,0-17,2.08-23.39c.37-1.12.81-2.67,1.04-3.56l.92.3c-.23.89-.68,2.44-1.04,3.56-.25.76-.48,1.45-.71,2.09,1.38-2.34,3.69-5.66,7.23-10.54,9.41-12.96,11.32-14.03,13.28-12.61,2,1.45,1.17,3.51-3.44,9.86-1.2,1.65-2.84,3.72-3.73,4.86l-.78-.57c.9-1.14,2.53-3.21,3.73-4.86,4.17-5.74,5-7.53,3.66-8.51-1.26-.92-3.02.13-11.93,12.39C1.53-18.88.69-16.9,2.16-15.83c1.3.95,2.86-.38,6.81-5.81.7-.96,1.6-2.29,2.09-3.06l.78.57c-.49.77-1.4,2.11-2.09,3.06-.47.64-.91,1.23-1.32,1.77,2.04-1.8,5.26-4.24,10.14-7.79,12.96-9.41,15.1-9.84,16.53-7.89,1.45,2,.03,3.7-6.32,8.31-1.65,1.2-3.85,2.66-5.05,3.47l-.57-.78c1.21-.81,3.4-2.27,5.05-3.47,5.74-4.17,7.08-5.61,6.1-6.96-.92-1.26-2.91-.81-15.17,8.1C7.06-17.52,5.65-15.9,6.72-14.42c.95,1.3,2.84.53,8.28-3.42.96-.7,2.23-1.69,2.94-2.27l.57.78c-.71.58-1.98,1.57-2.94,2.27-.64.47-1.24.89-1.8,1.28,2.49-1.08,6.31-2.41,12.05-4.27,15.23-4.95,17.41-4.7,18.15-2.39.76,2.35-1.11,3.53-8.58,5.95-1.94.63-4.48,1.34-5.88,1.74l-.3-.92c1.4-.4,3.93-1.11,5.88-1.74,6.75-2.19,8.47-3.15,7.96-4.73-.48-1.48-2.52-1.67-16.93,3.02-14.21,4.62-16.05,5.73-15.49,7.46.5,1.53,2.54,1.38,8.93-.7,1.12-.37,2.64-.91,3.49-1.25l.3.92c-.85.33-2.37.88-3.49,1.25-.76.25-1.46.46-2.11.66,2.7-.26,6.75-.34,12.78-.34,16.02,0,18.01.91,18.01,3.33s-2.15,3.01-10,3.01c-2.04,0-4.68-.11-6.13-.16v-.97c1.45.05,4.08.16,6.13.16,7.09,0,9.03-.38,9.03-2.04,0-1.56-1.88-2.37-17.04-2.37s-17.04.48-17.04,2.31c0,1.61,1.99,2.1,8.71,2.1,1.18,0,2.79-.05,3.71-.11v.97c-.91.05-2.53.11-3.71.11-.8,0-1.53,0-2.21-.02,2.65.59,6.52,1.76,12.26,3.62,15.23,4.95,16.84,6.43,16.09,8.73ZM15.6-5.18c-2.31-.42-3.09-1.24-3.09-2.68,0-.82.21-1.45.95-1.92-2.33.31-3.32-.23-3.76-1.6-.25-.78-.25-1.44.31-2.12-2.12,1.01-3.23.81-4.07-.36-.48-.67-.68-1.3-.36-2.11-1.7,1.62-2.82,1.76-3.98.92-.67-.48-1.05-1.02-1-1.9-1.12,2.06-2.14,2.55-3.5,2.11-.78-.25-1.31-.65-1.53-1.5-.42,2.31-1.24,3.09-2.68,3.09-.82,0-1.45-.21-1.92-.95.31,2.33-.23,3.32-1.6,3.76-.78.25-1.44.25-2.12-.31,1.01,2.12.81,3.23-.36,4.07-.67.48-1.3.68-2.11.36,1.62,1.7,1.76,2.82.92,3.98-.48.67-1.02,1.05-1.9,1,2.06,1.12,2.55,2.14,2.11,3.5-.25.78-.65,1.31-1.5,1.53,2.31.42,3.09,1.24,3.09,2.68,0,.82-.21,1.45-.95,1.92,2.33-.31,3.32.23,3.76,1.6.25.78.25,1.44-.31,2.12,2.12-1.01,3.23-.81,4.07.36.48.67.68,1.3.36,2.11,1.7-1.62,2.82-1.76,3.98-.92.67.48,1.05,1.02,1,1.9,1.12-2.06,2.14-2.55,3.5-2.11.78.25,1.31.65,1.53,1.5.42-2.31,1.24-3.09,2.68-3.09.82,0,1.45.21,1.92.95-.31-2.33.23-3.32,1.6-3.76.78-.25,1.44-.25,2.12.31-1.01-2.12-.81-3.23.36-4.07.67-.48,1.3-.68,2.11-.36-1.62-1.7-1.76-2.82-.92-3.98.48-.67,1.02-1.05,1.9-1-2.06-1.12-2.55-2.14-2.11-3.5.25-.78.65-1.31,1.5-1.53Z"/>
            <g>
              <path class="cls-4" d="M2.59,26.77c1.17.12,1.34,1.28.71,7.69l.62.06c.66-6.69.46-8.2-1.27-8.37-1.59-.16-2.03.81-2.46,5.22-.18,1.79-.18,2.91.07,3.87.23.86.71,1.6,1.04,2.19.33.55.75,1.22.99,2.01.21.72.32,2.05.1,4.29-.41,4.14-.87,5-1.84,4.9-1.07-.1-1.12-1.01-.38-8.56l-.62-.06c-.8,8.14-.68,9.09.94,9.25,1.38.14,2.07-.84,2.52-5.46.23-2.31.09-3.78-.14-4.57s-.71-1.64-1.04-2.16c-.39-.63-.81-1.37-.98-2.05-.2-.82-.21-1.8-.03-3.59.39-3.93.68-4.77,1.78-4.66Z"/>
              <path class="cls-4" d="M14.75,36.43c-.47-.68-1.18-1.34-1.66-1.73-.57-.48-1.19-1.05-1.57-1.64-.44-.72-.75-1.64-1.14-3.4-.85-3.86-.83-4.75.25-4.98,1.15-.25,1.67.8,3.05,7.1l.61-.13c-1.44-6.56-2.1-7.94-3.79-7.57-1.56.34-1.68,1.4-.73,5.73.39,1.76.73,2.82,1.27,3.66.48.75,1.17,1.3,1.66,1.76.48.43,1.09.93,1.56,1.61.42.62.94,1.85,1.42,4.05.89,4.06.71,5.02-.23,5.23-1.05.23-1.38-.62-3.01-8.03l-.61.13c1.75,7.98,2.16,8.85,3.75,8.5,1.35-.3,1.71-1.44.71-5.97-.5-2.27-1.08-3.63-1.55-4.31Z"/>
              <path class="cls-4" d="M25.19,30.1c-.65-.5-1.54-.91-2.11-1.13-.69-.28-1.46-.63-2-1.08-.64-.55-1.22-1.33-2.13-2.88-2-3.41-2.26-4.26-1.3-4.82,1.02-.6,1.83.25,5.09,5.81l.54-.32c-3.4-5.8-4.45-6.91-5.95-6.03-1.37.81-1.17,1.85,1.08,5.67.91,1.55,1.56,2.46,2.33,3.09.69.56,1.52.88,2.13,1.16.59.26,1.33.55,1.98,1.05.59.46,1.46,1.47,2.6,3.41,2.1,3.59,2.23,4.55,1.39,5.05-.93.54-1.5-.16-5.34-6.71l-.54.32c4.14,7.05,4.79,7.75,6.19,6.93,1.2-.7,1.18-1.9-1.17-5.9-1.17-2-2.15-3.12-2.8-3.62Z"/>
              <path class="cls-4" d="M36.96,23.43c-1.74-1.54-3.01-2.3-3.78-2.57-.78-.27-1.74-.39-2.36-.42-.74-.05-1.58-.15-2.23-.41-.78-.32-1.57-.89-2.92-2.08-2.95-2.62-3.46-3.35-2.73-4.18.78-.88,1.82-.33,6.64,3.95l.41-.47c-5.02-4.46-6.37-5.19-7.52-3.9-1.06,1.19-.54,2.12,2.78,5.06,1.35,1.2,2.24,1.85,3.17,2.22.83.32,1.71.36,2.38.45.64.06,1.43.11,2.21.38.7.25,1.85.95,3.53,2.44,3.11,2.76,3.53,3.64,2.88,4.37-.71.8-1.48.31-7.15-4.73l-.41.47c6.11,5.43,6.95,5.89,8.03,4.68.92-1.04.53-2.17-2.94-5.25Z"/>
              <path class="cls-4" d="M42.3,10.88c-2.13-.93-3.57-1.26-4.39-1.28-.82-.02-1.77.17-2.37.32-.72.18-1.55.34-2.25.3-.84-.07-1.77-.36-3.42-1.08-3.62-1.58-4.33-2.12-3.88-3.13.47-1.08,1.63-.88,7.53,1.7l.25-.57c-6.16-2.69-7.66-2.97-8.35-1.38-.64,1.46.14,2.18,4.21,3.96,1.65.72,2.71,1.07,3.7,1.13.89.05,1.74-.18,2.4-.31.63-.14,1.39-.34,2.22-.32.75.02,2.05.33,4.11,1.23,3.81,1.66,4.48,2.37,4.09,3.26-.43.98-1.31.75-8.26-2.29l-.25.57c7.49,3.27,8.43,3.46,9.08,1.97.55-1.27-.16-2.23-4.41-4.08Z"/>
              <path class="cls-4" d="M43.5-2.71c-2.31-.23-3.78-.09-4.57.14s-1.64.71-2.16,1.04c-.63.39-1.37.81-2.05.98-.82.2-1.8.21-3.59.03-3.93-.39-4.77-.68-4.66-1.78.12-1.17,1.28-1.34,7.69-.71l.06-.62c-6.69-.66-8.2-.46-8.37,1.27-.16,1.59.81,2.03,5.22,2.46,1.79.18,2.91.18,3.87-.07.86-.23,1.6-.71,2.19-1.04.55-.33,1.22-.75,2.01-.99.72-.21,2.05-.32,4.29-.1,4.14.41,5,.87,4.9,1.84-.1,1.07-1.01,1.12-8.56.38l-.06.62c8.14.8,9.09.68,9.25-.94.14-1.38-.84-2.07-5.46-2.52Z"/>
            </g>
            <g>
              <path class="cls-5" d="M-.47,17.73c.79.18.81.99-.17,5.33l.42.09c1.02-4.53,1.01-5.59-.16-5.85-1.07-.24-1.46.38-2.13,3.37-.27,1.21-.37,1.98-.28,2.66.08.61.35,1.16.53,1.59.18.41.41.9.51,1.46.08.51.05,1.43-.29,2.95-.63,2.8-1.02,3.35-1.68,3.2-.72-.16-.68-.79.47-5.9l-.42-.09c-1.24,5.51-1.24,6.17-.14,6.42.93.21,1.49-.4,2.19-3.53.35-1.56.38-2.59.29-3.15s-.35-1.18-.53-1.57c-.21-.47-.44-1.01-.5-1.49-.07-.58.01-1.25.28-2.46.6-2.66.87-3.21,1.62-3.05Z"/>
              <path class="cls-5" d="M7.05,25.39c-.26-.5-.7-1.02-.99-1.33-.35-.38-.73-.82-.93-1.26-.24-.53-.38-1.19-.49-2.43-.25-2.72-.17-3.33.6-3.4.81-.08,1.07.69,1.49,5.12l.43-.04c-.43-4.62-.77-5.62-1.96-5.51-1.1.1-1.27.82-.98,3.87.12,1.24.26,1.99.56,2.62.27.55.69.99.99,1.35.3.33.67.73.93,1.23.24.46.49,1.35.63,2.9.27,2.86.06,3.5-.6,3.57-.74.07-.89-.54-1.38-5.76l-.43.04c.53,5.62.73,6.25,1.85,6.15.95-.09,1.29-.84.99-4.03-.15-1.6-.43-2.58-.7-3.08Z"/>
              <path class="cls-5" d="M14.75,21.93c-.41-.4-.98-.75-1.35-.96-.45-.25-.94-.56-1.28-.91-.39-.43-.73-1.02-1.22-2.16-1.08-2.5-1.19-3.11-.48-3.41.75-.32,1.24.33,3,4.41l.4-.17c-1.84-4.26-2.47-5.11-3.57-4.64-1.01.44-.96,1.17.26,3.98.49,1.14.86,1.82,1.34,2.32.43.44.97.73,1.36.98.38.23.86.49,1.27.89.37.36.88,1.13,1.5,2.56,1.14,2.64,1.14,3.31.53,3.58-.68.29-1.02-.24-3.09-5.05l-.4.17c2.24,5.19,2.63,5.72,3.66,5.28.88-.38.97-1.2-.3-4.14-.64-1.47-1.21-2.32-1.62-2.72Z"/>
              <path class="cls-5" d="M23.38,18.36c-1.06-1.2-1.87-1.83-2.38-2.09-.51-.25-1.16-.41-1.58-.49-.5-.1-1.07-.24-1.5-.47-.51-.29-1-.74-1.83-1.68-1.8-2.05-2.09-2.59-1.51-3.1.61-.54,1.28-.07,4.22,3.27l.32-.28c-3.07-3.49-3.93-4.1-4.82-3.31-.83.73-.55,1.41,1.48,3.71.82.93,1.38,1.46,1.99,1.79.54.29,1.14.4,1.6.51.43.1.97.2,1.48.45.46.23,1.19.81,2.21,1.97,1.9,2.16,2.11,2.8,1.61,3.24-.56.49-1.04.09-4.5-3.85l-.32.28c3.73,4.24,4.27,4.63,5.11,3.89.72-.63.55-1.44-1.57-3.85Z"/>
              <path class="cls-5" d="M28.11,10.2c-1.38-.82-2.34-1.17-2.9-1.25-.56-.08-1.23-.03-1.65.02-.51.06-1.09.1-1.57.02-.57-.12-1.18-.4-2.25-1.03-2.35-1.39-2.79-1.82-2.4-2.48.41-.7,1.19-.46,5.02,1.81l.22-.37c-3.99-2.37-5-2.69-5.61-1.66-.56.95-.09,1.51,2.55,3.07,1.07.63,1.77.96,2.44,1.09.6.11,1.21.02,1.67,0,.44-.04.98-.11,1.55-.03.51.08,1.38.4,2.72,1.19,2.47,1.46,2.87,2.01,2.53,2.58-.38.64-.96.4-5.47-2.27l-.22.37c4.86,2.88,5.49,3.09,6.06,2.12.49-.82.08-1.54-2.68-3.17Z"/>
              <path class="cls-5" d="M30.08.99c-1.56-.35-2.59-.38-3.15-.29s-1.18.35-1.57.53c-.47.21-1.01.44-1.49.5-.58.07-1.25-.01-2.46-.28-2.66-.6-3.21-.87-3.05-1.62.18-.79.99-.81,5.33.17l.09-.42c-4.53-1.02-5.59-1.01-5.85.16-.24,1.07.38,1.46,3.37,2.13,1.21.27,1.98.37,2.66.28.61-.08,1.16-.35,1.59-.53.41-.18.9-.41,1.46-.51.51-.08,1.43-.05,2.95.29,2.8.63,3.35,1.02,3.2,1.68-.16.72-.79.68-5.9-.47l-.09.42c5.51,1.24,6.17,1.24,6.42.14.21-.93-.4-1.49-3.53-2.19Z"/>
            </g>
          </g>
          <path class="cls-6" d="M5.69-.2l-.24.06,12.56,5.07-.21.66L4.79,2.34l.18.22,12.25,4.83-.12.37L5.44,3.13l8.11,9.78-.32.23L4.75,2.85l-.23-.09,7.18,11.48-.56.41L2.53,4.37l.02.28,7.07,11.11-.32.23L2.6,5.4l.81,12.68h-.39l-.82-13.31-.13-.21-.94,13.51H.43L-.49,4.7l-.15.24-.81,13.15h-.39l.8-12.51-6.8,10.73-.32-.23L-1,4.82l.02-.24-8.7,10.38-.56-.41L-3.13,3.18l-.26.1-8.38,10.16-.32-.23L-4.09,3.56l-11.81,4.69-.12-.37L-3.61,2.98l.16-.19-13.14,3.28-.21-.66L-4.37.4l-.27-.07-12.75,3.29-.12-.37L-5.37.15l-12.31-3.15.12-.37L-4.64-.04l.24-.06-12.56-5.07.21-.66L-3.74-2.58l-.18-.22-12.25-4.83.12-.37L-4.4-3.37l-8.11-9.78.32-.23L-3.7-3.09l.23.09-7.18-11.48.56-.41L-1.49-4.61l-.02-.28-7.07-11.11.32-.23L-1.55-5.64l-.81-12.68h.39l.82,13.31.13.21L-.08-18.32h.69l.93,13.38.15-.24.81-13.15h.39l-.8,12.51,6.8-10.73.32.23L2.04-5.06l-.02.24,8.7-10.38.56.41L4.18-3.42l.26-.1,8.38-10.16.32.23L5.13-3.8l11.81-4.69.12.37L4.65-3.22l-.16.19,13.14-3.28.21.66L5.42-.64l.27.07,12.75-3.29.12.37L6.41-.39l12.31,3.15-.12.37L5.69-.2ZM4.86,0l-.16.04-.04-.12h-.03s.01-.05.01-.05l-.17-.53,12.75-5.12-.03-.08L4.11-2.57l-.1.12-.1-.07h-.03s-.01-.03-.01-.03l-.45-.33,7.3-11.64-.07-.05L1.99-4.21v.16h-.13l-.02.02-.03-.02h-.56l-.93-13.71h-.09L-.7-4.29l.09.14-.1.07v.03h-.04l-.45.33-8.81-10.54-.07.05L-2.91-2.78l.15.06-.04.12.02.03-.03.02-.17.53-13.32-3.35-.03.08L-3.82-.25l.16-.04.04.12h.03s-.01.05-.01.05l.17.53-12.75,5.12.03.08L-3.07,2.33l.1-.12.1.07h.03s.01.03.01.03l.45.33-7.3,11.64.07.05L-.94,3.97v-.16h.13l.02-.02.03.02H-.2l.93,13.71h.09l.92-13.46-.09-.14.1-.07v-.03h.04l.45-.33,8.81,10.54.07-.05L3.96,2.54l-.15-.06.04-.12-.02-.03.03-.02.17-.53,13.32,3.35.03-.08L4.86,0Z"/>
        </g>
      </g>
    </pattern>
  </defs>
  <rect class="cls-7" y="0" width="720" height="720"/>
  <rect class="cls-2" y="0" width="720" height="720"/>
</svg>