<?xml version="1.0" encoding="UTF-8"?>
<svg id="Layer_1" data-name="Layer 1" xmlns="http://www.w3.org/2000/svg" xmlns:xlink="http://www.w3.org/1999/xlink" viewBox="0 0 720 720">
  <defs>
    <style>
      .cls-1 {
        fill: none;
      }

      .cls-1, .cls-2, .cls-3, .cls-4, .cls-5 {
        stroke-width: 0px;
      }

      .cls-2 {
        fill: url(#One_Letter_Pattern);
      }

      .cls-3 {
        fill: #0f145b;
      }

      .cls-4 {
        fill: #e1eef9;
      }

      .cls-5 {
        fill: #ffd56c;
      }
    </style>
    <pattern id="One_Letter_Pattern" data-name="One Letter Pattern" x="0" y="0" width="245.31" height="234" patternTransform="translate(-245.31 0)" patternUnits="userSpaceOnUse" viewBox="0 0 245.31 234">
      <g>
        <rect class="cls-1" x="0" width="245.31" height="234"/>
        <g>
          <path class="cls-3" d="M298.2,213.47c0,4.08-.14,5.92-1.12,6.8-4.45,4.04-16.42,5.68-24.62,5.68h0c-12.44,0-22.86-6.19-27.15-16.38-4.29,10.19-14.71,16.38-27.15,16.38h0c-8.2,0-20.17-1.64-24.62-5.68-.98-.89-1.12-2.72-1.12-6.8,0-11.82,1.35-17.58,1.35-26.31,0-.72.39-1.08.78-1.08s.78.36.78,1.08c0,.49-.22.94-.22,5.03,0,8.07,9.14,30.76,22.59,30.76,15.05,0,18.98-7.73,18.98-17.99,0-9.79-5.61-14.63-19.35-22.57-19.81-11.45-23.5-20.3-23.5-31.87,0-15.07,12.23-22.78,29.98-22.78,8.2,0,15.81,1.15,17.1,2.4.71.69.93,2.78.93,5.19,0,3.88-.57,8.58-.57,9.59,0,2.31,1.93-15.94,2.73-19.44.07-.29.39-.43.75-.43.19,0,.39.04.56.12.18-.07.37-.12.56-.12.36,0,.69.14.75.43.8,3.5,2.73,21.74,2.73,19.44,0-1.01-.57-5.71-.57-9.59,0-2.41.22-4.51.93-5.19,1.29-1.24,8.9-2.4,17.1-2.4,17.75,0,29.98,7.71,29.98,22.78,0,11.57-3.69,20.42-23.5,31.87-13.74,7.94-19.35,12.78-19.35,22.57s3.93,17.99,18.98,17.99c13.45,0,22.59-22.68,22.59-30.76,0-4.08-.22-4.53-.22-5.03,0-.72.39-1.08.78-1.08s.78.36.78,1.08c0,8.73,1.35,14.49,1.35,26.31Z"/>
          <path class="cls-5" d="M201.69,218.1c-1.95-1.83-4.04-4.8-4.74-6.9-.05-.17-.22-.16-.23,0h0c-.03.98-.11,2.02-.11,2.97s.08,1.8.37,2.43c.22.36.8.64,1.53.89.95.32,2.14.59,3.14.91.13.04.18-.19.05-.29Z"/>
          <path class="cls-5" d="M232.64,132.17c2.07,1.69,4.37,4.5,5.21,6.56.06.16.23.15.23-.01h0c-.08-1.95.04-4.14-.64-5.37-.24-.34-.84-.58-1.59-.78-.97-.26-2.18-.44-3.19-.69-.13-.03-.16.2-.02.29Z"/>
          <path class="cls-4" d="M203.86,144.93c0,7.42,2.17,11.93,21.52,22.69,11.21,6.23,17.15,12.78,19.93,19.67,2.79-6.88,8.72-13.43,19.93-19.67,19.35-10.76,21.52-15.26,21.52-22.69,0-8.83-6.57-13.68-14.96-13.68-11.1,0-20.31,11.18-21.75,22.27-.29,2.21-.33,4.53-.33,6.82,0,.85-.21,1.28-.42,1.28s-.42-.43-.42-1.28c0-9.8-2.27-27.12-3.58-32.61-1.31,5.5-3.58,22.81-3.58,32.61,0,.85-.21,1.28-.42,1.28s-.42-.43-.42-1.28c0-2.28-.04-4.61-.33-6.82-1.45-11.09-10.65-22.27-21.75-22.27-8.39,0-14.96,4.85-14.96,13.68Z"/>
          <path class="cls-5" d="M241.92,197.29c-2.07-10.8-11.54-18.03-21.1-24.2-8.46-5.46-17.09-10.13-20.65-18.71-.18-.54-.79-.21-.58.24,3.69,8.89,11.93,15.63,20.39,21.09,9.56,6.17,18.81,11.46,21.32,21.71h0c.14.59.75.56.62-.12Z"/>
        </g>
        <g>
          <path class="cls-3" d="M175.55,271.97c0,4.08-.14,5.92-1.12,6.8-4.45,4.04-16.42,5.68-24.62,5.68h0c-12.44,0-22.86-6.19-27.15-16.38-4.29,10.19-14.71,16.38-27.15,16.38h0c-8.2,0-20.17-1.64-24.62-5.68-.98-.89-1.12-2.72-1.12-6.8,0-11.82,1.35-17.58,1.35-26.31,0-.72.39-1.08.78-1.08s.78.36.78,1.08c0,.49-.22.94-.22,5.03,0,8.07,9.14,30.76,22.59,30.76,15.05,0,18.98-7.73,18.98-17.99,0-9.79-5.61-14.63-19.35-22.57-19.81-11.45-23.5-20.3-23.5-31.87,0-15.07,12.23-22.78,29.98-22.78,8.2,0,15.81,1.15,17.1,2.4.71.69.93,2.78.93,5.19,0,3.88-.57,8.58-.57,9.59,0,2.31,1.93-15.94,2.73-19.44.07-.29.39-.43.75-.43.19,0,.39.04.56.12.18-.07.37-.12.56-.12.36,0,.69.14.75.43.8,3.5,2.73,21.74,2.73,19.44,0-1.01-.57-5.71-.57-9.59,0-2.41.22-4.51.93-5.19,1.29-1.24,8.9-2.4,17.1-2.4,17.75,0,29.98,7.71,29.98,22.78,0,11.57-3.69,20.42-23.5,31.87-13.74,7.94-19.35,12.78-19.35,22.57s3.93,17.99,18.98,17.99c13.45,0,22.59-22.68,22.59-30.76,0-4.08-.22-4.53-.22-5.03,0-.72.39-1.08.78-1.08s.78.36.78,1.08c0,8.73,1.35,14.49,1.35,26.31Z"/>
          <path class="cls-5" d="M129.89,197.21c0,.16.18.18.23.01.84-2.05,3.14-4.87,5.21-6.56.14-.09.1-.33-.02-.29-1.01.24-2.23.43-3.19.69-.75.2-1.34.44-1.59.78-.67,1.23-.56,3.42-.64,5.37h0Z"/>
          <path class="cls-5" d="M109.99,190.67c2.07,1.69,4.37,4.5,5.21,6.56.06.16.23.15.23-.01h0c-.08-1.95.04-4.14-.64-5.37-.24-.34-.84-.58-1.59-.78-.97-.26-2.18-.44-3.19-.69-.13-.03-.16.2-.02.29Z"/>
          <path class="cls-4" d="M81.2,203.43c0,7.42,2.17,11.93,21.52,22.69,11.21,6.23,17.15,12.78,19.93,19.67,2.79-6.88,8.72-13.43,19.93-19.67,19.35-10.76,21.52-15.26,21.52-22.69,0-8.83-6.57-13.68-14.96-13.68-11.1,0-20.31,11.18-21.75,22.27-.29,2.21-.33,4.53-.33,6.82,0,.85-.21,1.28-.42,1.28s-.42-.43-.42-1.28c0-9.8-2.27-27.12-3.58-32.61-1.31,5.5-3.58,22.81-3.58,32.61,0,.85-.21,1.28-.42,1.28s-.42-.43-.42-1.28c0-2.28-.04-4.61-.33-6.82-1.45-11.09-10.65-22.27-21.75-22.27-8.39,0-14.96,4.85-14.96,13.68Z"/>
          <path class="cls-5" d="M119.27,255.79c-2.07-10.8-11.54-18.03-21.1-24.2-8.46-5.46-17.09-10.13-20.65-18.71-.18-.54-.79-.21-.58.24,3.69,8.89,11.93,15.63,20.39,21.09,9.56,6.17,18.81,11.46,21.32,21.71h0c.14.59.75.56.62-.12Z"/>
          <path class="cls-5" d="M147.99,234.21c8.46-5.46,16.71-12.2,20.39-21.09.2-.45-.4-.77-.58-.24-3.56,8.58-12.19,13.25-20.65,18.71-9.56,6.17-19.03,13.4-21.1,24.2-.13.68.47.71.62.13h0c2.51-10.25,11.77-15.54,21.32-21.71Z"/>
        </g>
        <g>
          <path class="cls-3" d="M52.89,213.47c0,4.08-.14,5.92-1.12,6.8-4.45,4.04-16.42,5.68-24.62,5.68h0C14.71,225.95,4.29,219.76,0,209.57c-4.29,10.19-14.71,16.38-27.15,16.38h0c-8.2,0-20.17-1.64-24.62-5.68-.98-.89-1.12-2.72-1.12-6.8,0-11.82,1.35-17.58,1.35-26.31,0-.72.39-1.08.78-1.08s.78.36.78,1.08c0,.49-.22.94-.22,5.03,0,8.07,9.14,30.76,22.59,30.76,15.05,0,18.98-7.73,18.98-17.99,0-9.79-5.61-14.63-19.35-22.57-19.81-11.45-23.5-20.3-23.5-31.87,0-15.07,12.23-22.78,29.98-22.78,8.2,0,15.81,1.15,17.1,2.4.71.69.93,2.78.93,5.19,0,3.88-.57,8.58-.57,9.59,0,2.31,1.93-15.94,2.73-19.44.07-.29.39-.43.75-.43.19,0,.39.04.56.12.18-.07.37-.12.56-.12.36,0,.69.14.75.43.8,3.5,2.73,21.74,2.73,19.44,0-1.01-.57-5.71-.57-9.59,0-2.41.22-4.51.93-5.19,1.29-1.24,8.9-2.4,17.1-2.4,17.75,0,29.98,7.71,29.98,22.78,0,11.57-3.69,20.42-23.5,31.87-13.74,7.94-19.35,12.78-19.35,22.57s3.93,17.99,18.98,17.99c13.45,0,22.59-22.68,22.59-30.76,0-4.08-.22-4.53-.22-5.03,0-.72.39-1.08.78-1.08s.78.36.78,1.08c0,8.73,1.35,14.49,1.35,26.31Z"/>
          <path class="cls-5" d="M7.23,138.71c0,.16.18.18.23.01.84-2.05,3.14-4.87,5.21-6.56.14-.09.1-.33-.02-.29-1.01.24-2.23.43-3.19.69-.75.2-1.34.44-1.59.78-.67,1.23-.56,3.42-.64,5.37h0Z"/>
          <path class="cls-4" d="M-41.46,144.93c0,7.42,2.17,11.93,21.52,22.69C-8.72,173.85-2.79,180.4,0,187.28c2.79-6.88,8.72-13.43,19.93-19.67,19.35-10.76,21.52-15.26,21.52-22.69,0-8.83-6.57-13.68-14.96-13.68-11.1,0-20.31,11.18-21.75,22.27-.29,2.21-.33,4.53-.33,6.82,0,.85-.21,1.28-.42,1.28s-.42-.43-.42-1.28C3.58,150.54,1.31,133.22,0,127.73c-1.31,5.5-3.58,22.81-3.58,32.61,0,.85-.21,1.28-.42,1.28s-.42-.43-.42-1.28c0-2.28-.04-4.61-.33-6.82-1.45-11.09-10.65-22.27-21.75-22.27-8.39,0-14.96,4.85-14.96,13.68Z"/>
          <path class="cls-5" d="M25.33,175.71c8.46-5.46,16.71-12.2,20.39-21.09.2-.45-.4-.77-.58-.24-3.56,8.58-12.19,13.25-20.65,18.71-9.56,6.17-19.03,13.4-21.1,24.2-.13.68.47.71.62.13h0c2.51-10.25,11.77-15.54,21.32-21.71Z"/>
          <path class="cls-5" d="M48.7,214.17c0-.95-.08-1.99-.11-2.98h0c-.02-.16-.19-.16-.23,0-.69,2.11-2.79,5.07-4.74,6.9-.13.1-.08.33.05.29.99-.31,2.19-.58,3.14-.91.73-.25,1.31-.53,1.53-.89.29-.63.37-1.49.37-2.43Z"/>
        </g>
        <g>
          <path class="cls-3" d="M298.2,96.47c0,4.08-.14,5.92-1.12,6.8-4.45,4.04-16.42,5.68-24.62,5.68h0c-12.44,0-22.86-6.19-27.15-16.38-4.29,10.19-14.71,16.38-27.15,16.38h0c-8.2,0-20.17-1.64-24.62-5.68-.98-.89-1.12-2.72-1.12-6.8,0-11.82,1.35-17.58,1.35-26.31,0-.72.39-1.08.78-1.08s.78.36.78,1.08c0,.49-.22.94-.22,5.03,0,8.07,9.14,30.76,22.59,30.76,15.05,0,18.98-7.73,18.98-17.99,0-9.79-5.61-14.63-19.35-22.57-19.81-11.45-23.5-20.3-23.5-31.87,0-15.07,12.23-22.78,29.98-22.78,8.2,0,15.81,1.15,17.1,2.4.71.69.93,2.78.93,5.19,0,3.88-.57,8.58-.57,9.59,0,2.31,1.93-15.94,2.73-19.44.07-.29.39-.43.75-.43.19,0,.39.04.56.12.18-.07.37-.12.56-.12.36,0,.69.14.75.43.8,3.5,2.73,21.74,2.73,19.44,0-1.01-.57-5.71-.57-9.59,0-2.41.22-4.51.93-5.19,1.29-1.24,8.9-2.4,17.1-2.4,17.75,0,29.98,7.71,29.98,22.78,0,11.57-3.69,20.42-23.5,31.87-13.74,7.94-19.35,12.78-19.35,22.57s3.93,17.99,18.98,17.99c13.45,0,22.59-22.68,22.59-30.76,0-4.08-.22-4.53-.22-5.03,0-.72.39-1.08.78-1.08s.78.36.78,1.08c0,8.73,1.35,14.49,1.35,26.31Z"/>
          <path class="cls-5" d="M201.69,101.1c-1.95-1.83-4.04-4.8-4.74-6.9-.05-.17-.22-.16-.23,0h0c-.03.98-.11,2.02-.11,2.97s.08,1.8.37,2.43c.22.36.8.64,1.53.89.95.32,2.14.59,3.14.91.13.04.18-.19.05-.29Z"/>
          <path class="cls-5" d="M232.64,15.17c2.07,1.69,4.37,4.5,5.21,6.56.06.16.23.15.23-.01h0c-.08-1.95.04-4.14-.64-5.37-.24-.34-.84-.58-1.59-.78-.97-.26-2.18-.44-3.19-.69-.13-.03-.16.2-.02.29Z"/>
          <path class="cls-4" d="M203.86,27.93c0,7.42,2.17,11.93,21.52,22.69,11.21,6.23,17.15,12.78,19.93,19.67,2.79-6.88,8.72-13.43,19.93-19.67,19.35-10.76,21.52-15.26,21.52-22.69,0-8.83-6.57-13.68-14.96-13.68-11.1,0-20.31,11.18-21.75,22.27-.29,2.21-.33,4.53-.33,6.82,0,.85-.21,1.28-.42,1.28s-.42-.43-.42-1.28c0-9.8-2.27-27.12-3.58-32.61-1.31,5.5-3.58,22.81-3.58,32.61,0,.85-.21,1.28-.42,1.28s-.42-.43-.42-1.28c0-2.28-.04-4.61-.33-6.82-1.45-11.09-10.65-22.27-21.75-22.27-8.39,0-14.96,4.85-14.96,13.68Z"/>
          <path class="cls-5" d="M241.92,80.29c-2.07-10.8-11.54-18.03-21.1-24.2-8.46-5.46-17.09-10.13-20.65-18.71-.18-.54-.79-.21-.58.24,3.69,8.89,11.93,15.63,20.39,21.09,9.56,6.17,18.81,11.46,21.32,21.71h0c.14.59.75.56.62-.12Z"/>
        </g>
        <g>
          <path class="cls-3" d="M175.55,154.97c0,4.08-.14,5.92-1.12,6.8-4.45,4.04-16.42,5.68-24.62,5.68h0c-12.44,0-22.86-6.19-27.15-16.38-4.29,10.19-14.71,16.38-27.15,16.38h0c-8.2,0-20.17-1.64-24.62-5.68-.98-.89-1.12-2.72-1.12-6.8,0-11.82,1.35-17.58,1.35-26.31,0-.72.39-1.08.78-1.08s.78.36.78,1.08c0,.49-.22.94-.22,5.03,0,8.07,9.14,30.76,22.59,30.76,15.05,0,18.98-7.73,18.98-17.99,0-9.79-5.61-14.63-19.35-22.57-19.81-11.45-23.5-20.3-23.5-31.87,0-15.07,12.23-22.78,29.98-22.78,8.2,0,15.81,1.15,17.1,2.4.71.69.93,2.78.93,5.19,0,3.88-.57,8.58-.57,9.59,0,2.31,1.93-15.94,2.73-19.44.07-.29.39-.43.75-.43.19,0,.39.04.56.12.18-.07.37-.12.56-.12.36,0,.69.14.75.43.8,3.5,2.73,21.74,2.73,19.44,0-1.01-.57-5.71-.57-9.59,0-2.41.22-4.51.93-5.19,1.29-1.24,8.9-2.4,17.1-2.4,17.75,0,29.98,7.71,29.98,22.78,0,11.57-3.69,20.42-23.5,31.87-13.74,7.94-19.35,12.78-19.35,22.57s3.93,17.99,18.98,17.99c13.45,0,22.59-22.68,22.59-30.76,0-4.08-.22-4.53-.22-5.03,0-.72.39-1.08.78-1.08s.78.36.78,1.08c0,8.73,1.35,14.49,1.35,26.31Z"/>
          <path class="cls-5" d="M79.04,159.6c-1.95-1.83-4.04-4.8-4.74-6.9-.05-.17-.22-.16-.23,0h0c-.03.98-.11,2.02-.11,2.97s.08,1.8.37,2.43c.22.36.8.64,1.53.89.95.32,2.14.59,3.14.91.13.04.18-.19.05-.29Z"/>
          <path class="cls-5" d="M129.89,80.21c0,.16.18.18.23.01.84-2.05,3.14-4.87,5.21-6.56.14-.09.1-.33-.02-.29-1.01.24-2.23.43-3.19.69-.75.2-1.34.44-1.59.78-.67,1.23-.56,3.42-.64,5.37h0Z"/>
          <path class="cls-5" d="M109.99,73.67c2.07,1.69,4.37,4.5,5.21,6.56.06.16.23.15.23-.01h0c-.08-1.95.04-4.14-.64-5.37-.24-.34-.84-.58-1.59-.78-.97-.26-2.18-.44-3.19-.69-.13-.03-.16.2-.02.29Z"/>
          <path class="cls-4" d="M81.2,86.43c0,7.42,2.17,11.93,21.52,22.69,11.21,6.23,17.15,12.78,19.93,19.67,2.79-6.88,8.72-13.43,19.93-19.67,19.35-10.76,21.52-15.26,21.52-22.69,0-8.83-6.57-13.68-14.96-13.68-11.1,0-20.31,11.18-21.75,22.27-.29,2.21-.33,4.53-.33,6.82,0,.85-.21,1.28-.42,1.28s-.42-.43-.42-1.28c0-9.8-2.27-27.12-3.58-32.61-1.31,5.5-3.58,22.81-3.58,32.61,0,.85-.21,1.28-.42,1.28s-.42-.43-.42-1.28c0-2.28-.04-4.61-.33-6.82-1.45-11.09-10.65-22.27-21.75-22.27-8.39,0-14.96,4.85-14.96,13.68Z"/>
          <path class="cls-5" d="M119.27,138.79c-2.07-10.8-11.54-18.03-21.1-24.2-8.46-5.46-17.09-10.13-20.65-18.71-.18-.54-.79-.21-.58.24,3.69,8.89,11.93,15.63,20.39,21.09,9.56,6.17,18.81,11.46,21.32,21.71h0c.14.59.75.56.62-.12Z"/>
          <path class="cls-5" d="M147.99,117.21c8.46-5.46,16.71-12.2,20.39-21.09.2-.45-.4-.77-.58-.24-3.56,8.58-12.19,13.25-20.65,18.71-9.56,6.17-19.03,13.4-21.1,24.2-.13.68.47.71.62.13h0c2.51-10.25,11.77-15.54,21.32-21.71Z"/>
          <path class="cls-5" d="M171.36,155.67c0-.95-.08-1.99-.11-2.98h0c-.02-.16-.19-.16-.23,0-.69,2.11-2.79,5.07-4.74,6.9-.13.1-.08.33.05.29.99-.31,2.19-.58,3.14-.91.73-.25,1.31-.53,1.53-.89.29-.63.37-1.49.37-2.43Z"/>
        </g>
        <g>
          <path class="cls-3" d="M52.89,96.47c0,4.08-.14,5.92-1.12,6.8-4.45,4.04-16.42,5.68-24.62,5.68h0C14.71,108.95,4.29,102.76,0,92.57c-4.29,10.19-14.71,16.38-27.15,16.38h0c-8.2,0-20.17-1.64-24.62-5.68-.98-.89-1.12-2.72-1.12-6.8,0-11.82,1.35-17.58,1.35-26.31,0-.72.39-1.08.78-1.08s.78.36.78,1.08c0,.49-.22.94-.22,5.03,0,8.07,9.14,30.76,22.59,30.76,15.05,0,18.98-7.73,18.98-17.99,0-9.79-5.61-14.63-19.35-22.57-19.81-11.45-23.5-20.3-23.5-31.87,0-15.07,12.23-22.78,29.98-22.78,8.2,0,15.81,1.15,17.1,2.4.71.69.93,2.78.93,5.19,0,3.88-.57,8.58-.57,9.59,0,2.31,1.93-15.94,2.73-19.44.07-.29.39-.43.75-.43.19,0,.39.04.56.12.18-.07.37-.12.56-.12.36,0,.69.14.75.43.8,3.5,2.73,21.74,2.73,19.44,0-1.01-.57-5.71-.57-9.59,0-2.41.22-4.51.93-5.19,1.29-1.24,8.9-2.4,17.1-2.4,17.75,0,29.98,7.71,29.98,22.78,0,11.57-3.69,20.42-23.5,31.87-13.74,7.94-19.35,12.78-19.35,22.57s3.93,17.99,18.98,17.99c13.45,0,22.59-22.68,22.59-30.76,0-4.08-.22-4.53-.22-5.03,0-.72.39-1.08.78-1.08s.78.36.78,1.08c0,8.73,1.35,14.49,1.35,26.31Z"/>
          <path class="cls-5" d="M7.23,21.71c0,.16.18.18.23.01.84-2.05,3.14-4.87,5.21-6.56.14-.09.1-.33-.02-.29-1.01.24-2.23.43-3.19.69-.75.2-1.34.44-1.59.78-.67,1.23-.56,3.42-.64,5.37h0Z"/>
          <path class="cls-4" d="M-41.46,27.93c0,7.42,2.17,11.93,21.52,22.69C-8.72,56.85-2.79,63.4,0,70.28c2.79-6.88,8.72-13.43,19.93-19.67,19.35-10.76,21.52-15.26,21.52-22.69,0-8.83-6.57-13.68-14.96-13.68-11.1,0-20.31,11.18-21.75,22.27-.29,2.21-.33,4.53-.33,6.82,0,.85-.21,1.28-.42,1.28s-.42-.43-.42-1.28C3.58,33.54,1.31,16.22,0,10.73c-1.31,5.5-3.58,22.81-3.58,32.61,0,.85-.21,1.28-.42,1.28s-.42-.43-.42-1.28c0-2.28-.04-4.61-.33-6.82-1.45-11.09-10.65-22.27-21.75-22.27-8.39,0-14.96,4.85-14.96,13.68Z"/>
          <path class="cls-5" d="M25.33,58.71c8.46-5.46,16.71-12.2,20.39-21.09.2-.45-.4-.77-.58-.24-3.56,8.58-12.19,13.25-20.65,18.71-9.56,6.17-19.03,13.4-21.1,24.2-.13.68.47.71.62.13h0c2.51-10.25,11.77-15.54,21.32-21.71Z"/>
          <path class="cls-5" d="M48.7,97.17c0-.95-.08-1.99-.11-2.98h0c-.02-.16-.19-.16-.23,0-.69,2.11-2.79,5.07-4.74,6.9-.13.1-.08.33.05.29.99-.31,2.19-.58,3.14-.91.73-.25,1.31-.53,1.53-.89.29-.63.37-1.49.37-2.43Z"/>
        </g>
        <g>
          <path class="cls-3" d="M175.55,37.97c0,4.08-.14,5.92-1.12,6.8-4.45,4.04-16.42,5.68-24.62,5.68h0c-12.44,0-22.86-6.19-27.15-16.38-4.29,10.19-14.71,16.38-27.15,16.38h0c-8.2,0-20.17-1.64-24.62-5.68-.98-.89-1.12-2.72-1.12-6.8,0-11.82,1.35-17.58,1.35-26.31,0-.72.39-1.08.78-1.08s.78.36.78,1.08c0,.49-.22.94-.22,5.03,0,8.07,9.14,30.76,22.59,30.76,15.05,0,18.98-7.73,18.98-17.99,0-9.79-5.61-14.63-19.35-22.57-19.81-11.45-23.5-20.3-23.5-31.87,0-15.07,12.23-22.78,29.98-22.78,8.2,0,15.81,1.15,17.1,2.4.71.69.93,2.78.93,5.19,0,3.88-.57,8.58-.57,9.59,0,2.31,1.93-15.94,2.73-19.44.07-.29.39-.43.75-.43.19,0,.39.04.56.12.18-.07.37-.12.56-.12.36,0,.69.14.75.43.8,3.5,2.73,21.74,2.73,19.44,0-1.01-.57-5.71-.57-9.59,0-2.41.22-4.51.93-5.19,1.29-1.24,8.9-2.4,17.1-2.4,17.75,0,29.98,7.71,29.98,22.78,0,11.57-3.69,20.42-23.5,31.87-13.74,7.94-19.35,12.78-19.35,22.57s3.93,17.99,18.98,17.99c13.45,0,22.59-22.68,22.59-30.76,0-4.08-.22-4.53-.22-5.03,0-.72.39-1.08.78-1.08s.78.36.78,1.08c0,8.73,1.35,14.49,1.35,26.31Z"/>
          <path class="cls-5" d="M79.04,42.6c-1.95-1.83-4.04-4.8-4.74-6.9-.05-.17-.22-.16-.23,0h0c-.03.98-.11,2.02-.11,2.97s.08,1.8.37,2.43c.22.36.8.64,1.53.89.95.32,2.14.59,3.14.91.13.04.18-.19.05-.29Z"/>
          <path class="cls-4" d="M81.2-30.57c0,7.42,2.17,11.93,21.52,22.69,11.21,6.23,17.15,12.78,19.93,19.67,2.79-6.88,8.72-13.43,19.93-19.67,19.35-10.76,21.52-15.26,21.52-22.69,0-8.83-6.57-13.68-14.96-13.68-11.1,0-20.31,11.18-21.75,22.27-.29,2.21-.33,4.53-.33,6.82,0,.85-.21,1.28-.42,1.28s-.42-.43-.42-1.28c0-9.8-2.27-27.12-3.58-32.61-1.31,5.5-3.58,22.81-3.58,32.61,0,.85-.21,1.28-.42,1.28s-.42-.43-.42-1.28c0-2.28-.04-4.61-.33-6.82-1.45-11.09-10.65-22.27-21.75-22.27-8.39,0-14.96,4.85-14.96,13.68Z"/>
          <path class="cls-5" d="M119.27,21.79c-2.07-10.8-11.54-18.03-21.1-24.2-8.46-5.46-17.09-10.13-20.65-18.71-.18-.54-.79-.21-.58.24,3.69,8.89,11.93,15.63,20.39,21.09,9.56,6.17,18.81,11.46,21.32,21.71h0c.14.59.75.56.62-.12Z"/>
          <path class="cls-5" d="M147.99.21c8.46-5.46,16.71-12.2,20.39-21.09.2-.45-.4-.77-.58-.24-3.56,8.58-12.19,13.25-20.65,18.71-9.56,6.17-19.03,13.4-21.1,24.2-.13.68.47.71.62.13h0c2.51-10.25,11.77-15.54,21.32-21.71Z"/>
          <path class="cls-5" d="M171.36,38.67c0-.95-.08-1.99-.11-2.98h0c-.02-.16-.19-.16-.23,0-.69,2.11-2.79,5.07-4.74,6.9-.13.1-.08.33.05.29.99-.31,2.19-.58,3.14-.91.73-.25,1.31-.53,1.53-.89.29-.63.37-1.49.37-2.43Z"/>
        </g>
      </g>
    </pattern>
  </defs>
  <rect class="cls-4" x="3.33" width="713.33" height="720"/>
  <rect class="cls-2" x="0" y="0" width="720" height="720"/>
</svg>