<?xml version="1.0" encoding="utf-8"?>
<!-- Generator: Adobe Illustrator 28.1.0, SVG Export Plug-In . SVG Version: 6.00 Build 0)  -->
<svg version="1.1" id="Layer_2_00000111156249354537760040000018071321658943448732_"
	 xmlns="http://www.w3.org/2000/svg" xmlns:xlink="http://www.w3.org/1999/xlink" x="0px" y="0px" viewBox="0 0 576.9 504.1"
	 style="enable-background:new 0 0 576.9 504.1;" xml:space="preserve">
<style type="text/css">
	.st0{fill:#E8E9EB;}
</style>
<g id="Layer_1-2">
	<g>
		<path class="st0" d="M0,342.2c0.2-7,0.6-13.1,0.7-19.4C1,305.9,1.2,289,1.6,272c0-0.9,0.6-2,1.3-2.6c3.8-3.9,7.6-7.7,11.5-11.5
			c9.1-8.9,18.2-17.8,27.2-26.8c22.3-22,44.5-44.1,66.8-66.1c11.7-11.6,23.6-23,35.3-34.6c23.1-22.9,46.3-45.7,69.3-68.8
			c13-13,25.7-26.4,38.6-39.7c6.6-6.7,13.1-13.5,19.7-20.2c0.5-0.6,1.2-1.1,1.9-1.7c0.8,0.6,1.6,1,2.2,1.7
			c12.3,12.3,24.6,24.7,36.9,37c18.5,18.6,36.9,37.4,55.5,56c19.6,19.6,39.5,38.9,59.1,58.4c11.6,11.6,23.1,23.4,34.7,35
			c11.8,11.8,23.7,23.4,35.5,35.1c19.7,19.5,39.4,39,59.1,58.5c6.7,6.6,13.4,13.2,20.1,19.8c0.3,0.3,0.5,1,0.5,1.5
			c0,23.6,0.1,47.2,0.1,70.8c0,2.5,0,5,0,7.5c-0.2,0-0.5,0.1-0.7,0.1c-0.4-0.3-0.9-0.6-1.3-1c-9.3-9.8-18.4-19.6-27.8-29.2
			c-17.5-17.7-35-35.3-52.6-53c-19.6-19.6-39.4-39.2-59-58.9c-21-21-41.9-42-62.9-63c-19.5-19.6-38.9-39.3-58.4-58.8
			c-13.3-13.3-26.7-26.5-40.1-39.7c-0.4-0.4-0.7-0.7-1.1-1.1c-2.1-2.2-2.1-2.2-4.3-0.1c-7.1,6.9-14.2,13.8-21.3,20.8
			c-12.7,12.4-25.4,24.9-38.1,37.4c-20.2,19.9-40.4,39.8-60.6,59.8c-16.7,16.6-33.2,33.3-49.8,49.9c-17.2,17.1-34.6,34.1-51.8,51.3
			C32.2,310.2,17.6,325,2.8,339.7C2.1,340.5,1.3,341.1,0,342.2L0,342.2z"/>
		<path class="st0" d="M575.7,504.1c-0.8-0.6-1.3-0.9-1.6-1.4c-14.6-16.6-30.8-31.8-46.4-47.4c-15.6-15.6-31.1-31.3-46.7-46.9
			c-14.4-14.4-28.9-28.6-43.2-43c-13.8-13.9-27.3-27.9-41.1-41.7c-17.9-18-36-35.8-54.1-53.7c-16.2-16.1-32.5-32.1-48.9-48.1
			c-4.4-4.3-9.2-8.2-13.7-12.3c-0.4-0.4-0.5-1.3-0.5-1.9c0.4-23,0.8-46,1.2-69c0-2.1,0-4.2,0-6.8c0.7,0.5,1.3,0.8,1.7,1.2
			c12.8,13,25.4,26.1,38.2,39.1c10.7,10.8,21.5,21.4,32.2,32.2c16.6,16.7,33.2,33.5,49.9,50.2c14.6,14.7,29.4,29.3,44.1,44
			c12.2,12.2,24.3,24.4,36.5,36.6c9.1,9.1,18,18.4,27.1,27.5c20.2,20.4,40.3,40.7,60.5,61c0.8,0.8,1.6,1.7,2.3,2.6
			c0.3,0.4,0.6,1,0.5,1.3c-0.8,1.3,0.1,1.9,1,2.1c1.9,0.5,1.9,1.8,1.9,3.3c-0.2,19.8-0.4,39.5-0.6,59.3c0,3.2,0,6.4,0.1,9.5
			C575.9,502.5,575.8,503.1,575.7,504.1L575.7,504.1z"/>
	</g>
</g>
</svg>
