<?xml version="1.0" encoding="UTF-8"?>
<svg id="Layer_2" data-name="Layer 2" xmlns="http://www.w3.org/2000/svg" viewBox="0 0 250 175.47">
  <defs>
    <style>
      .cls-1 {
        fill: #26292c;
        stroke-width: 0px;
      }
    </style>
  </defs>
  <g id="Layer_1-2" data-name="Layer 1">
    <path class="cls-1" d="M187.18,0q26.35,23.53,52.7,47.07l1.45,1.86,8.68,23.53q-27.72,9.39-55.43,18.79-14.46,15.28-28.92,30.55-9.8-2.48-19.6-4.95-22.01,29.31-44.02,58.63l-28.6-9.08,4.66-14.24-4.66-5.57Q36.71,124.17,0,101.78l17.51,7.23q12.53-2.27,25.06-4.54c2.45-5.01,20.63-35.91,21.05-38.19,1.28-6.98-6.01-16.55-7.23-23.74,7.64.21,12.82-2,19.92-4.95q5.62,2.89,11.25,5.78l14.78-6.61q3.21,4.34,6.43,8.67l16.07,6.19q10.6-4.54,21.21-9.08Q166.61,21.26,187.18,0Z"/>
  </g>
</svg>