<?xml version="1.0" encoding="UTF-8"?>
<svg id="Layer_2" data-name="Layer 2" xmlns="http://www.w3.org/2000/svg" viewBox="0 0 204.64 242.89">
  <defs>
    <style>
      .cls-1 {
        fill: #26292c;
        stroke-width: 0px;
      }
    </style>
  </defs>
  <g id="Layer_1-2" data-name="Layer 1">
    <g>
      <path class="cls-1" d="M183.83,8.22c.02.8,0,1.74,0,2.56.59,68.85-.85,137.79-.64,206.65-35.68.74-71.53-.28-107.25-.16V.22C111.63.03,147.33.36,183.03.22c.56.25.77,6.84.8,8Z"/>
      <path class="cls-1" d="M75.94.22v217.06c-8.75.03-49.28-.1-52.98.32-14.77,1.66-14.04,14.28,5.12,17.93h167.44l1.76-1.12V13.18c-.47-3.76-8.93-1.99-13.45-2.4,0-.83.02-1.77,0-2.56,7.69,1.8,13.45-12.18,20.49-5.92l.32,239.15-1.12.8q-87.24.32-174.48.64c-12.27-.66-27.05-8.94-28.65-22.25C-.2,215.78.05,135.98.06,122.67c.01-13.22-.1-91.91.64-96.68C2.37,15.23,10.86,5.99,21.03,2.46,31.38-1.13,62.79.29,75.94.22Z"/>
    </g>
  </g>
</svg>