<?xml version="1.0" encoding="UTF-8"?>
<svg id="Layer_2" data-name="Layer 2" xmlns="http://www.w3.org/2000/svg" viewBox="0 0 248.73 167.62">
  <defs>
    <style>
      .cls-1 {
        fill: #26292c;
      }

      .cls-1, .cls-2, .cls-3 {
        stroke-width: 0px;
      }

      .cls-2 {
        fill: #fefefe;
      }

      .cls-3 {
        fill: #010100;
      }
    </style>
  </defs>
  <g id="Layer_1-2" data-name="Layer 1">
    <g>
      <path class="cls-1" d="M205.33,10.18c-23.15-1.02-40.25,8.57-48.41,30.54-17.91.01-35.81,0-53.73,0-4.21-13.68-17.19-25.61-31.09-28.91-9.18-2.18-18.63-.46-27.95-1.36C47.05-2.76,63.63.47,73.75.09l.55,10.91h100.91l.55-10.91c10.09.38,26.29-2.78,29.59,10.09Z"/>
      <path class="cls-1" d="M214.06,156.63c-.54,3.27-1.08,6.57-1.77,9.82-16.02-2.48-33.13-42.14-39.68-56.73,3.13.24,5.11-1.93,11.18,4.77,5.69,6.28,22.9,33.3,30.27,42.13Z"/>
      <path class="cls-3" d="M225.24,167c-1.28.11-10.69.15-11.05-.27.33-2.74.83-5.45,1.23-8.18,3.3,3.33,4.48,8.89,9.82,8.45Z"/>
      <g>
        <path class="cls-1" d="M225.24,167c-5.34.43-6.52-5.12-9.82-8.45,3.24-22.52,7.31-44.91,10.09-67.5l-1.09-.27c-4.27,21.78-6.74,43.95-10.36,65.86-7.37-8.84-24.58-35.86-30.27-42.13-6.08-6.7-8.05-4.53-11.18-4.77-.03,0,.02-.23-.41-.55h-95.18c-5.66,13.95-23.23,51.12-37.09,56.45-13.51,5.19-32.09.14-37.09-14.18q33.89-20.11,67.77-40.23c-.47-2.22-1.33-.29-4.77.95q-31.64,19.09-63.27,38.18l-.68-.14c-5.2-10.02,1.67-44.2,4.64-56.45C13.74,63.93,28.26,37.4,42.93,10.73l1.23-.27c9.33.9,18.77-.82,27.95,1.36,13.9,3.3,26.88,15.23,31.09,28.91,17.91,0,35.81.01,53.73,0,8.15-21.97,25.26-31.57,48.41-30.54,1.91.43,5.66,9.05,7.64,12.95,5.21,10.29,18.82,38.07,22.09,47.18,5.45,15.21,15.55,59,13.36,73.63-1.68,11.25-11.63,22.05-23.18,23.04Z"/>
        <g>
          <g>
            <path class="cls-2" d="M189.93,57.09c11.09-1.3,11.1,20.88-.27,19.09-8.02-1.26-8.21-18.1.27-19.09Z"/>
            <path class="cls-2" d="M190.74,22.45c9.54-.25,9.66,17.74,1.64,19.09-11.2,1.88-11.75-18.83-1.64-19.09Z"/>
            <path class="cls-2" d="M171.65,42.09c11.11-1.07,13.3,13,3.55,15-12.3,2.52-15.02-13.9-3.55-15Z"/>
            <path class="cls-2" d="M206.83,42.09c11.07-1.14,13.39,13.05,3.55,15-12.02,2.37-14.98-13.83-3.55-15Z"/>
          </g>
          <g>
            <path class="cls-2" d="M55.75,28.18c.6-.15,11.68-.15,12.27,0,4.07,1.03.84,14.12,2.45,17.45,2.88-.29,13.8-.74,15.54.27,2.84,1.64.95,12.66,1.5,15.95l-17.04.41c-1.52,3.3,1.26,16.03-1.91,17.45-.61.28-12.74.25-13.36,0-3.15-1.29-.4-14.3-1.91-17.45l-15.68-.14c.35-19.47-3.56-16.42,16.09-16.91.71-3.26-1.75-16.1,2.05-17.04Z"/>
            <path class="cls-2" d="M102.38,53.82c2.55-1.03-.7,11.39-1.23,12.95-10.03,29.71-48.66,38.74-68.72,13.36-4.66-5.9-10.5-20.44-9.27-23.45,1.22-2.99,1.68,5.39,3.55,10.64,10.11,28.46,45.61,36.13,65.45,12.55,11.29-13.41,8.91-25.51,10.23-26.04Z"/>
          </g>
        </g>
      </g>
    </g>
  </g>
</svg>