<?xml version="1.0" encoding="UTF-8"?>
<svg id="Layer_2" data-name="Layer 2" xmlns="http://www.w3.org/2000/svg" viewBox="0 0 241.58 196.13">
  <defs>
    <style>
      .cls-1 {
        fill: #26292c;
      }

      .cls-1, .cls-2 {
        stroke-width: 0px;
      }

      .cls-2 {
        fill: #fefefd;
      }
    </style>
  </defs>
  <g id="Layer_1-2" data-name="Layer 1">
    <g>
      <path class="cls-1" d="M25.35,158.44c4.29,3.22,6.12,3.12,6.44,3.3.41.23.93,1.12,1.32,1.32,12.35,6.35,24.29,7.28,36-.99.85-.32,1.01,1.58,2.64,2.64,10.94,7.15,33.23.95,43.44-6.61-.2,11.28,1.76,18.71-7.76,27.09-16.84,14.81-58.12,15.66-74.48-4.79-8.19-10.24-6.91-19.09-7.6-21.97Z"/>
      <path class="cls-1" d="M216.26,158.77c-.86,41.73-60.57,45.09-81.75,26.75-9.46-8.19-7.56-16.02-7.76-27.09,9.71,7.26,39.59,15.42,46.08,2.97.98,3.38,12.68,6.3,15.52,6.61,10.6,1.14,19.24-3.77,27.91-9.25Z"/>
      <g>
        <path class="cls-1" d="M115.19,158.11c-10.21,7.55-32.49,13.76-43.44,6.61-1.63-1.07-1.79-2.96-2.64-2.64-11.71,8.27-23.66,7.34-36,.99-.39-.2-.91-1.1-1.32-1.32-.32-.18-2.15-.09-6.44-3.3-1.06-4.49-6.74-6.14-10.07-8.92C-1.15,135.86-4.39,109.46,5.86,91.23c-3.32-13.27,1.32-32.55,15.52-37.65,2.8-14.1,20.33-36.89,36.17-32.2,5.23-16.75,52.41-33.01,57.64-9.74-.65,48.81.87,97.69,0,146.49Z"/>
        <path class="cls-2" d="M44.34,79.17c.81-.19,7.78,7.52,12.22,11.23,10.55,8.81,22.17,16.67,35.18,21.3-9,6.19-31.3-12.57-37.99-19.49-1.14-1.18-11.4-12.58-9.41-13.05Z"/>
      </g>
      <g>
        <path class="cls-1" d="M216.26,158.77c-8.67,5.48-17.31,10.38-27.91,9.25-2.84-.3-14.54-3.23-15.52-6.61-6.49,12.44-36.36,4.29-46.08-2.97-.88-48.91.66-97.9,0-146.82,5.1-23.45,52-6.84,57.64,9.74,15.85-4.52,33.07,17.98,35.84,32.2,14.84,5.45,18.64,24.14,15.52,37.99,10.39,17.93,6.68,44.43-9.41,57.97-4.83,4.06-8.26,3.55-10.07,9.25Z"/>
        <path class="cls-2" d="M197.27,79.17c2.74-.15-5.83,9.36-6.77,10.4-7.12,7.9-30.61,28.54-40.96,22.13,14.78-5.19,27.8-14.32,39.47-24.61,1.14-1,7.69-7.9,8.26-7.93Z"/>
      </g>
    </g>
  </g>
</svg>