<?xml version="1.0" encoding="UTF-8"?>
<svg id="Layer_2" data-name="Layer 2" xmlns="http://www.w3.org/2000/svg" viewBox="0 0 248.63 194.89">
  <defs>
    <style>
      .cls-1 {
        fill: #26292c;
        stroke-width: 0px;
      }
    </style>
  </defs>
  <g id="Layer_1-2" data-name="Layer 1">
    <g>
      <path class="cls-1" d="M151.78.78c3.4-.26,7.59,2.86,10.34,5.12,3.19,2.62,26.23,25.72,32.35,31.71,6.65,6.51,48.96,47.94,51.18,50.93,3.96,5.33,3.85,12.73.4,18.42-3.24,5.34-74.86,72.25-84.99,83.75-9.55,9.18-18.74,1.97-24-9.13q.13-16.17.27-32.35c12.32-13.33,28.54-24.13,30.49-46.12,2.51-28.27-14.31-41.87-30.76-57.01q-.13-16.01-.27-32.03c2.15-4.34,11.08-12.99,14.98-13.29Z"/>
      <path class="cls-1" d="M94.24.14c7.4-1.41,15.48,8.49,16.84,11.69,1.81,4.27.21,27.12.8,33.63-11.07,12.24-26.58,21.88-30.23,41-4.77,25.05,6.76,39.8,21.35,54.61,2.89,2.94,8.28,6.4,8.88,9.13v31.07c-6.08,6-11.87,15.52-20.29,11.05-5.22-2.77-77.18-76.28-88.83-86.48-3.95-5.56-3.43-12.8.13-18.42C6.16,82.27,75.91,16.86,86.29,5.58c1.89-1.61,5.82-5.04,7.95-5.44Z"/>
    </g>
  </g>
</svg>