<?xml version="1.0" encoding="UTF-8"?>
<svg id="Layer_2" data-name="Layer 2" xmlns="http://www.w3.org/2000/svg" viewBox="0 0 239.46 193.66">
  <defs>
    <style>
      .cls-1 {
        fill: #26292c;
      }

      .cls-1, .cls-2, .cls-3 {
        stroke-width: 0px;
      }

      .cls-2 {
        fill: #07060a;
      }

      .cls-3 {
        fill: #fdfdfd;
      }
    </style>
  </defs>
  <g id="Layer_1-2" data-name="Layer 1">
    <g>
      <path class="cls-1" d="M10.36,0h219.9c5.27,1.37,8.65,5.22,9.2,10.71v130.01c-.09,4.75-3.78,9.68-8.6,10.41-4.07.61-64.31-1.25-76.62,0-1.89,19.08-.83,30.88,18.1,38.91,3.33,1.41,10.84,2.68,8.14,3.62H60.74c-1.84-1.33,8.73-3.37,13.88-6.33,15.36-8.84,12.06-21.13,12.07-36.5q-38.16.15-76.32.3c-4.41-.31-8.82-3.97-9.8-8.3-1.46-6.43.49-114.22-.3-131.82C1.47,4.99,4.38,1.63,10.36,0Z"/>
      <g>
        <path class="cls-3" d="M13.38,10.86h214.17c1.54.69,2.85,2.02,3.17,3.77,1.08,6.04-.83,105.81,0,122.77q-110.48.08-220.95.15c.57-16.72-1.23-116.87-.15-122.92.35-1.94,1.82-3.4,3.77-3.77Z"/>
        <path class="cls-1" d="M227.7,133.93l-47.96.3c0-1.15.87.18,1.51-1.66.31-.89,3.72-16.81,3.92-18.4,3.31-26.75-4.53-51.14-23.53-70.28-22.73-22.91-57.11-26.38-85.52-12.22-18.54,11.58-34.58,29.18-39.97,50.83-4.76,19.13-1.54,32.41,2.71,50.98.32.44,1.74-.32,1.51.75-9.24-.07-18.51-.82-27.75,0V14.93l1.36-.75,213.56.3q.08,59.73.15,119.45Z"/>
        <path class="cls-2" d="M40.38,134.23c46.45.35,92.91-.3,139.36,0l47.96-.3-.15.9H13.08l-.45-.6c9.25-.82,18.51-.07,27.75,0Z"/>
      </g>
    </g>
  </g>
</svg>