<?xml version="1.0" encoding="UTF-8"?>
<svg id="Layer_2" data-name="Layer 2" xmlns="http://www.w3.org/2000/svg" viewBox="0 0 247.53 163.52">
  <defs>
    <style>
      .cls-1 {
        fill: #26292c;
        stroke-width: 0px;
      }
    </style>
  </defs>
  <g id="Layer_1-2" data-name="Layer 1">
    <g>
      <path class="cls-1" d="M84.52,27.02c4.67-.4,31.32,9.83,38.52,12.07q19.55-6.04,39.1-12.07,29.18,9.63,58.36,19.26c.06.68-5.15,3.9-6.04,4.31-3.98,1.85-79.11,26.55-83.37,27.6-2.81.69-6.43,1.99-9.2,1.72q-49.88-16.53-99.76-33.06,31.19-9.92,62.39-19.84Z"/>
      <path class="cls-1" d="M123.05,0q62.24,19.98,124.49,39.96l-15.81,4.89q-52.9-17.25-105.8-34.5h-2.87Q68.14,27.6,13.22,44.85L0,39.1Q61.52,19.55,123.05,0Z"/>
      <path class="cls-1" d="M58.65,66.7c14.07,2.79,6.28,9.37,8.34,22.71,4.15,26.89,99.16,28.48,112.7,4.02,2.99-17.4-5.44-25.83,9.77-25.87-1.01,15.72,4.39,27.75-9.49,38.81-23.19,18.49-101.18,18.56-118.16-6.04-6.75-9.78-2.52-22.5-3.16-33.64Z"/>
      <path class="cls-1" d="M220.22,54.05c1.54.35.36,1.2,1.44,2.01-.75,34.79,1.65,69.68,6.9,104.07-4.06,2.98-10.41,3.86-15.24,3.16-9.73-1.4-5.59-4.5-4.89-10.64,1.84-16,4.06-32.25,5.17-48.3,1.17-16.97,0-46.17,1.15-48.3.14-.26,5.18-2.08,5.46-2.01Z"/>
    </g>
  </g>
</svg>