<?xml version="1.0" encoding="UTF-8"?>
<svg id="Layer_2" data-name="Layer 2" xmlns="http://www.w3.org/2000/svg" viewBox="0 0 484.12 73.51">
  <defs>
    <style>
      .cls-1 {
        fill: #fafffd;
      }

      .cls-1, .cls-2 {
        stroke-width: 0px;
      }

      .cls-2 {
        fill: #3c3c3c;
      }
    </style>
  </defs>
  <g id="Layer_1-2" data-name="Layer 1">
    <g>
      <g>
        <path class="cls-1" d="M97.85,15.19c0,2.38-2.02,4.54-4.54,4.54s-3.53-1.58-4.54-3.24c-1.22-1.94-2.45-3.96-5.98-3.96-9.36,0-15.99,7.34-17.28,16.85,2.95-1.8,6.98-3.38,10.58-3.38,5.33,0,11.38,1.87,11.38,11.23v16.85c0,2.16.79,2.81,4.03,3.17v3.02h-15.05v-23.33c0-3.46-2.02-4.82-4.68-4.82-2.38,0-4.39.79-6.48,2.23v1.37c5.54,2.74,9.36,8.42,9.36,15.7,0,12.46-9.29,22.11-25.06,22.11s-30.67-10.44-30.67-29.74c0-8.64,3.96-17.43,9.65-24.05-3.96-1.58-7.99-2.88-12.82-2.88-5.26,0-9.22,1.66-9.22,5.18,0,2.09,1.3,3.53,3.31,3.53,3.02,0,2.95-3.96,6.84-3.96,3.17,0,4.68,2.09,4.68,4.46,0,3.67-3.38,6.55-8.28,6.55-6.12,0-11.59-3.46-11.59-10.87,0-8.14,6.91-12.96,16.85-12.96,7.13,0,12.6,2.16,17.21,4.54,4.1-2.88,8.5-4.54,12.75-4.54,5.54,0,9.43,3.1,9.43,7.7,0,5.11-5.11,7.92-10.15,7.92-3.96,0-7.34-.65-10.37-1.51-2.74,5.18-4.61,12.38-4.61,20.95,0,14.62,7.85,25.06,18.79,25.06,7.7,0,13.47-3.38,16.42-8.64h-17.57v-3.02c3.24-.36,4.03-1.01,4.03-3.17v-15.05c-2.74.79-4.9,2.52-4.9,4.82,0,1.8,1.87,2.59,1.87,5.18,0,2.74-2.09,4.9-5.11,4.9-3.6,0-5.33-3.38-5.33-6.48,0-6.19,5.62-11.81,13.54-13.11,1.15-16.99,16.35-26.71,30.75-26.71,6.12,0,12.75,2.38,12.75,7.56ZM41.68,16.7c2.66,1.51,4.97,2.59,7.2,2.59,2.38,0,3.89-1.08,3.89-2.81,0-2.09-1.73-3.1-3.96-3.1-2.38,0-4.82,1.15-7.13,3.31ZM65.3,40.96v13.11c0,2.16.72,2.81,3.02,3.17v2.02c1.08-2.3,1.66-4.9,1.66-7.78,0-4.61-1.8-8.28-4.68-10.51Z"/>
        <path class="cls-1" d="M106.12,41.76c-.07.65-.07,1.3-.07,1.87,0,8.5,2.59,12.89,8.93,12.89,4.18,0,8.07-2.88,10.58-7.99l3.96,2.23c-3.1,6.34-7.63,10.58-15.91,10.58-11.88,0-18.94-7.42-18.94-17.71s7.2-17.64,17.79-17.64,16.06,6.05,16.06,15.77h-22.39ZM118.07,37.15c0-4.25-2.16-6.84-5.4-6.84-3.96,0-5.69,2.3-6.34,6.84h11.74Z"/>
        <path class="cls-1" d="M194.03,44.42c0,10.37-9.43,16.92-21.31,16.92-5.83,0-10.95-1.37-14.47-3.38l-1.08,2.3h-3.46l-3.89-16.27,2.81-.79c3.53,7.34,10.51,13.54,19.44,13.54,5.47,0,9.65-3.17,9.65-7.34,0-5.69-5.76-7.49-12.75-9.65-8.14-2.52-17.28-5.54-17.28-16.2,0-9.58,8.71-14.76,18.65-14.76,6.19,0,10.44,1.37,13.46,3.24l1.01-2.16h3.46l3.53,14.55-2.66.72c-3.31-7.2-9.65-11.74-17.64-11.74-5.04,0-7.99,2.66-7.99,6.41,0,4.82,5.33,6.41,12.75,8.5,8.35,2.38,17.79,5.18,17.79,16.13Z"/>
        <path class="cls-1" d="M235.57,43.63c0,10.3-7.27,17.71-18.72,17.71s-18.72-7.42-18.72-17.71,7.27-17.64,18.72-17.64,18.72,7.42,18.72,17.64ZM224.2,43.63c0-8.5-1.8-13.32-7.34-13.32s-7.34,4.82-7.34,13.32,1.8,13.39,7.34,13.39,7.34-4.9,7.34-13.39Z"/>
        <path class="cls-1" d="M260.49,32.03l11.02-6.05h4.03v28.08c0,2.16.72,2.81,4.03,3.17v3.02c-5.11,0-10.08.29-15.05,1.08v-3.46c-2.95,1.87-7.13,3.46-10.87,3.46-5.26,0-11.38-1.87-11.38-11.23v-13.1c0-1.51-.5-2.16-1.8-2.16h-2.16v-2.81l11.02-6.05h4.03v24.41c0,3.46,2.02,4.82,4.68,4.82,2.3,0,4.39-.86,6.48-2.16v-16.06c0-1.51-.5-2.16-1.87-2.16h-2.16v-2.81Z"/>
        <path class="cls-1" d="M314.56,49.46c0,7.56-6.55,11.88-14.91,11.88-4.39,0-8.93-1.58-11.16-3.1l-.86,2.02h-2.74l-2.59-11.81,2.45-.65c3.74,6.12,9.58,9.29,14.54,9.29,2.95,0,5.18-1.37,5.18-3.89,0-2.81-3.53-3.96-7.92-5.26-5.83-1.8-13.1-4.18-13.1-11.31,0-6.26,6.19-10.66,13.9-10.66,4.83,0,7.63,1.44,9.79,2.95l.86-1.87h2.66l2.16,10.51-2.66.79c-3.1-5.47-7.78-8.35-11.67-8.35-2.81,0-4.32,1.37-4.32,3.31,0,2.59,3.17,3.67,7.27,4.9,6.62,2.09,13.11,4.32,13.11,11.23Z"/>
        <path class="cls-1" d="M418.96,16.34c0,2.38-2.02,4.54-4.46,4.54-2.16,0-3.53-1.3-4.32-2.88-1.08-2.02-2.59-4.32-6.12-4.32-8.57,0-14.91,6.55-16.2,15.7,2.88-1.8,6.99-3.38,10.66-3.38,5.26,0,11.38,1.87,11.38,11.23v16.85c0,2.16.72,2.81,3.96,3.17v3.02h-15.05v-23.33c0-3.46-2.02-4.82-4.68-4.82-2.38,0-4.39.79-6.48,2.23v2.88c5.47,3.1,9.22,8.06,9.22,14.98,0,12.67-9.86,21.31-26.5,21.31-17.64,0-35.21-12.6-35.21-37.66,0-20.16,16.49-34.85,34.06-34.85,4.82,0,9.58,1.3,12.46,3.24l1.3-3.1h2.81l4.32,10.23-2.45,1.44c-4.46-5.04-9.65-7.2-16.27-7.2-14.69,0-22.32,11.95-22.32,30.24,0,19.3,7.92,33.05,22.83,33.05,8.5,0,14.91-3.1,18-8.64h-17.28v-3.02c3.31-.36,4.03-1.01,4.03-3.17v-15.7h-1.37c-7.06,0-5.4,9.5-12.1,9.5-3.02,0-4.9-2.3-4.9-5.18,0-4.9,5.18-9.07,14.11-9.07,1.44,0,2.95.07,4.39.29,1.37-16.06,16.63-25.13,29.52-25.13,6.12,0,12.67,2.38,12.67,7.56ZM387.64,42.26v11.81c0,2.16.79,2.81,2.81,3.17v1.87c.86-2.02,1.37-4.39,1.37-6.91,0-4.39-1.58-7.71-4.18-9.94Z"/>
        <path class="cls-1" d="M428.46,41.76c-.07.65-.07,1.3-.07,1.87,0,8.5,2.59,12.89,8.93,12.89,4.18,0,8.07-2.88,10.58-7.99l3.96,2.23c-3.1,6.34-7.63,10.58-15.91,10.58-11.88,0-18.94-7.42-18.94-17.71s7.2-17.64,17.79-17.64,16.06,6.05,16.06,15.77h-22.39ZM440.41,37.15c0-4.25-2.16-6.84-5.4-6.84-3.96,0-5.69,2.3-6.34,6.84h11.74Z"/>
        <path class="cls-1" d="M454.74,27.07h4.03v-1.51c0-10.8,7.71-16.78,16.92-16.78,4.82,0,8.42,2.09,8.42,5.76,0,2.95-2.02,5.18-5.11,5.18-4.9,0-4.39-5.76-6.7-5.76-1.66,0-2.52,1.66-2.52,4.1v9h5.98v4.61h-5.98v22.39c0,2.16,1.08,2.81,4.39,3.17v3.02h-19.44v-3.02c3.24-.36,4.03-1.01,4.03-3.17v-22.39h-4.03v-4.61Z"/>
      </g>
      <g>
        <path class="cls-2" d="M96.34,14.19c0,2.38-2.02,4.54-4.54,4.54s-3.53-1.58-4.54-3.24c-1.22-1.94-2.45-3.96-5.98-3.96-9.36,0-15.99,7.34-17.28,16.85,2.95-1.8,6.98-3.38,10.58-3.38,5.33,0,11.38,1.87,11.38,11.23v16.85c0,2.16.79,2.81,4.03,3.17v3.02h-15.05v-23.33c0-3.46-2.02-4.82-4.68-4.82-2.38,0-4.39.79-6.48,2.23v1.37c5.54,2.74,9.36,8.42,9.36,15.7,0,12.46-9.29,22.11-25.06,22.11s-30.67-10.44-30.67-29.74c0-8.64,3.96-17.43,9.65-24.05-3.96-1.58-7.99-2.88-12.82-2.88-5.26,0-9.22,1.66-9.22,5.18,0,2.09,1.3,3.53,3.31,3.53,3.02,0,2.95-3.96,6.84-3.96,3.17,0,4.68,2.09,4.68,4.46,0,3.67-3.38,6.55-8.28,6.55-6.12,0-11.59-3.46-11.59-10.87C0,12.6,6.91,7.78,16.85,7.78c7.13,0,12.6,2.16,17.21,4.54,4.1-2.88,8.5-4.54,12.75-4.54,5.54,0,9.43,3.1,9.43,7.7,0,5.11-5.11,7.92-10.15,7.92-3.96,0-7.34-.65-10.37-1.51-2.74,5.18-4.61,12.38-4.61,20.95,0,14.62,7.85,25.06,18.79,25.06,7.7,0,13.47-3.38,16.42-8.64h-17.57v-3.02c3.24-.36,4.03-1.01,4.03-3.17v-15.05c-2.74.79-4.9,2.52-4.9,4.82,0,1.8,1.87,2.59,1.87,5.18,0,2.74-2.09,4.9-5.11,4.9-3.6,0-5.33-3.38-5.33-6.48,0-6.19,5.62-11.81,13.54-13.11,1.15-16.99,16.35-26.71,30.75-26.71,6.12,0,12.75,2.38,12.75,7.56ZM40.18,15.7c2.66,1.51,4.97,2.59,7.2,2.59,2.38,0,3.89-1.08,3.89-2.81,0-2.09-1.73-3.1-3.96-3.1-2.38,0-4.82,1.15-7.13,3.31ZM63.8,39.96v13.11c0,2.16.72,2.81,3.02,3.17v2.02c1.08-2.3,1.66-4.9,1.66-7.78,0-4.61-1.8-8.28-4.68-10.51Z"/>
        <path class="cls-2" d="M104.62,40.76c-.07.65-.07,1.3-.07,1.87,0,8.5,2.59,12.89,8.93,12.89,4.18,0,8.07-2.88,10.58-7.99l3.96,2.23c-3.1,6.34-7.63,10.58-15.91,10.58-11.88,0-18.94-7.42-18.94-17.71s7.2-17.64,17.79-17.64,16.06,6.05,16.06,15.77h-22.39ZM116.57,36.15c0-4.25-2.16-6.84-5.4-6.84-3.96,0-5.69,2.3-6.34,6.84h11.74Z"/>
        <path class="cls-2" d="M192.53,43.42c0,10.37-9.43,16.92-21.31,16.92-5.83,0-10.95-1.37-14.47-3.38l-1.08,2.3h-3.46l-3.89-16.27,2.81-.79c3.53,7.34,10.51,13.54,19.44,13.54,5.47,0,9.65-3.17,9.65-7.34,0-5.69-5.76-7.49-12.75-9.65-8.14-2.52-17.28-5.54-17.28-16.2,0-9.58,8.71-14.76,18.65-14.76,6.19,0,10.44,1.37,13.46,3.24l1.01-2.16h3.46l3.53,14.55-2.66.72c-3.31-7.2-9.65-11.74-17.64-11.74-5.04,0-7.99,2.66-7.99,6.41,0,4.82,5.33,6.41,12.75,8.5,8.35,2.38,17.79,5.18,17.79,16.13Z"/>
        <path class="cls-2" d="M234.07,42.63c0,10.3-7.27,17.71-18.72,17.71s-18.72-7.42-18.72-17.71,7.27-17.64,18.72-17.64,18.72,7.42,18.72,17.64ZM222.7,42.63c0-8.5-1.8-13.32-7.34-13.32s-7.34,4.82-7.34,13.32,1.8,13.39,7.34,13.39,7.34-4.9,7.34-13.39Z"/>
        <path class="cls-2" d="M258.98,31.03l11.02-6.05h4.03v28.08c0,2.16.72,2.81,4.03,3.17v3.02c-5.11,0-10.08.29-15.05,1.08v-3.46c-2.95,1.87-7.13,3.46-10.87,3.46-5.26,0-11.38-1.87-11.38-11.23v-13.1c0-1.51-.5-2.16-1.8-2.16h-2.16v-2.81l11.02-6.05h4.03v24.41c0,3.46,2.02,4.82,4.68,4.82,2.3,0,4.39-.86,6.48-2.16v-16.06c0-1.51-.5-2.16-1.87-2.16h-2.16v-2.81Z"/>
        <path class="cls-2" d="M313.06,48.46c0,7.56-6.55,11.88-14.91,11.88-4.39,0-8.93-1.58-11.16-3.1l-.86,2.02h-2.74l-2.59-11.81,2.45-.65c3.74,6.12,9.58,9.29,14.54,9.29,2.95,0,5.18-1.37,5.18-3.89,0-2.81-3.53-3.96-7.92-5.26-5.83-1.8-13.1-4.18-13.1-11.31,0-6.26,6.19-10.66,13.9-10.66,4.83,0,7.63,1.44,9.79,2.95l.86-1.87h2.66l2.16,10.51-2.66.79c-3.1-5.47-7.78-8.35-11.67-8.35-2.81,0-4.32,1.37-4.32,3.31,0,2.59,3.17,3.67,7.27,4.9,6.62,2.09,13.11,4.32,13.11,11.23Z"/>
        <path class="cls-2" d="M417.46,15.34c0,2.38-2.02,4.54-4.46,4.54-2.16,0-3.53-1.3-4.32-2.88-1.08-2.02-2.59-4.32-6.12-4.32-8.57,0-14.91,6.55-16.2,15.7,2.88-1.8,6.99-3.38,10.66-3.38,5.26,0,11.38,1.87,11.38,11.23v16.85c0,2.16.72,2.81,3.96,3.17v3.02h-15.05v-23.33c0-3.46-2.02-4.82-4.68-4.82-2.38,0-4.39.79-6.48,2.23v2.88c5.47,3.1,9.22,8.06,9.22,14.98,0,12.67-9.86,21.31-26.5,21.31-17.64,0-35.21-12.6-35.21-37.66,0-20.16,16.49-34.85,34.06-34.85,4.82,0,9.58,1.3,12.46,3.24l1.3-3.1h2.81l4.32,10.23-2.45,1.44c-4.46-5.04-9.65-7.2-16.27-7.2-14.69,0-22.32,11.95-22.32,30.24,0,19.3,7.92,33.05,22.83,33.05,8.5,0,14.91-3.1,18-8.64h-17.28v-3.02c3.31-.36,4.03-1.01,4.03-3.17v-15.7h-1.37c-7.06,0-5.4,9.5-12.1,9.5-3.02,0-4.9-2.3-4.9-5.18,0-4.9,5.18-9.07,14.11-9.07,1.44,0,2.95.07,4.39.29,1.37-16.06,16.63-25.13,29.52-25.13,6.12,0,12.67,2.38,12.67,7.56ZM386.14,41.26v11.81c0,2.16.79,2.81,2.81,3.17v1.87c.86-2.02,1.37-4.39,1.37-6.91,0-4.39-1.58-7.71-4.18-9.94Z"/>
        <path class="cls-2" d="M426.96,40.76c-.07.65-.07,1.3-.07,1.87,0,8.5,2.59,12.89,8.93,12.89,4.18,0,8.07-2.88,10.58-7.99l3.96,2.23c-3.1,6.34-7.63,10.58-15.91,10.58-11.88,0-18.94-7.42-18.94-17.71s7.2-17.64,17.79-17.64,16.06,6.05,16.06,15.77h-22.39ZM438.91,36.15c0-4.25-2.16-6.84-5.4-6.84-3.96,0-5.69,2.3-6.34,6.84h11.74Z"/>
        <path class="cls-2" d="M453.24,26.07h4.03v-1.51c0-10.8,7.71-16.78,16.92-16.78,4.82,0,8.42,2.09,8.42,5.76,0,2.95-2.02,5.18-5.11,5.18-4.9,0-4.39-5.76-6.7-5.76-1.66,0-2.52,1.66-2.52,4.1v9h5.98v4.61h-5.98v22.39c0,2.16,1.08,2.81,4.39,3.17v3.02h-19.44v-3.02c3.24-.36,4.03-1.01,4.03-3.17v-22.39h-4.03v-4.61Z"/>
      </g>
    </g>
  </g>
</svg>