<?xml version="1.0" encoding="UTF-8"?>
<svg id="Layer_2" data-name="Layer 2" xmlns="http://www.w3.org/2000/svg" viewBox="0 0 130.36 285.26">
  <defs>
    <style>
      .cls-1 {
        fill: #fafffd;
      }

      .cls-1, .cls-2, .cls-3, .cls-4, .cls-5, .cls-6, .cls-7, .cls-8, .cls-9, .cls-10, .cls-11, .cls-12, .cls-13, .cls-14, .cls-15, .cls-16 {
        stroke-width: 0px;
      }

      .cls-2 {
        fill: #1f1219;
      }

      .cls-3 {
        fill: #161319;
      }

      .cls-4 {
        fill: #a2d729;
      }

      .cls-5 {
        fill: #18191e;
      }

      .cls-6 {
        fill: #000;
      }

      .cls-7 {
        fill: #160f15;
      }

      .cls-8 {
        fill: #0c0a0c;
      }

      .cls-9 {
        fill: #3c3c3c;
      }

      .cls-10 {
        fill: #1a0e18;
      }

      .cls-11 {
        fill: #fa824c;
      }

      .cls-12 {
        fill: #1b0e14;
      }

      .cls-13 {
        fill: #f19a3e;
      }

      .cls-14 {
        fill: #f5ba7a;
      }

      .cls-15 {
        fill: #1d1e21;
      }

      .cls-16 {
        fill: #f06a7c;
      }
    </style>
  </defs>
  <g id="Layer_1-2" data-name="Layer 1">
    <g>
      <path class="cls-6" d="M89.98,166.18c.76,1.54.87,3.23,1.09,4.89.07.53.27.83.77.99,2.84.95,5.05,2.8,6.93,5.05,1.28,1.53,1.99,3.4,2.62,5.28.81,2.44,1.44,4.93,1.98,7.45.07.31.19.62.28.93.25.56.4,1.14.36,1.76.61,2.95,1.2,5.91,1.91,8.84.78,3.22,1.53,6.46,2.3,9.68.03.13.1.25.15.37.45,2.6.94,5.2,1.56,7.76.64,2.62,1.26,5.24,1.9,7.86.07.29.18.56.27.84.41.23.44.66.51,1.05.54,2.64,1.25,5.23,1.86,7.85.54,2.44,1.18,4.85,1.66,7.31.03.16.05.32.13.46.82,3.47,1.56,6.96,2.22,10.46.46,2.44.8,4.9.86,7.4.04,1.65.23,3.29-.04,4.93-.08.48-.2.95-.36,1.41-.77,1.9-1.49,3.84-3.06,5.29-.78.59-1.62,1.1-2.28,1.83-1.36,1.05-2.88,1.83-4.42,2.56-2.68,1.28-5.54,2.02-8.4,2.76-2.78.73-5.59,1.31-8.43,1.73-3.1.46-6.21.86-9.32,1.27-2.88.37-5.79.28-8.65.77-.11.02-.22.02-.32.02-3.69-.1-7.37.24-11.05.18-1.16-.02-2.34.12-3.49.09-2.51-.06-5.04,0-7.55-.23-.43-.04-.87-.04-1.3-.04-3.41,0-6.81-.28-10.21-.6-1.48-.14-2.97-.21-4.45-.35-1.54-.14-3.05-.44-4.59-.57-2.41-.21-4.75-.8-7.14-1.13-.75-.1-1.48-.3-2.23-.4-1.84-.42-3.67-.89-5.48-1.41-2.62-.75-5.06-1.91-7.33-3.42-2.82-2.18-4.84-4.98-6.34-8.18-.11-.24-.22-.5-.38-.71-.38-.83-.67-1.69-.63-2.63.12-1.03.34-2.03.22-3.11-.1-.97.21-1.97.46-2.94.04-.16.14-.31.34-.28.17.02.29.15.36.3.21.46.22.97.13,1.44-.09.48.18.39.43.41.26.32.25.68.18,1.06-.16.74.27,1.49-.08,2.22-.23.49-.79.15-1.19.42.46.46.84-.21,1.22,0,.35.23.46.59.58.95.95,2.91,2.62,5.38,4.61,7.68,1.15,1.32,2.66,2.04,4.2,2.69,3.81,1.62,7.82,2.52,11.85,3.38,2.44.52,4.91.84,7.37,1.2,1.42.21,2.85.29,4.28.38,2.43.15,4.85.39,7.28.6,1.83.16,3.67.26,5.5.37,4.25.26,8.5.16,12.75.18,1.17,0,2.32-.27,3.49-.17,1.21.1,2.43.21,3.63-.08.34-.08.7-.08,1.05-.08,1.3,0,2.6-.04,3.9,0,3.24.13,6.43-.43,9.63-.72,2.21-.2,4.42-.46,6.61-.79,1.55-.23,3.1-.46,4.63-.8,1.61-.35,3.24-.6,4.84-.99,2.55-.64,5.02-1.51,7.43-2.57,1.39-.61,2.79-1.18,4.03-2.08,3.27-2.36,5.34-5.5,5.96-9.5.23-1.49.13-3-1.09-4.16-.67-.63-1.45-.93-2.38-.72-.76.17-1.51.37-2.23.71-1.41.67-2.95.88-4.47,1.16-2.31.44-4.59,1.03-6.9,1.49-2.41.48-4.84.93-7.25,1.44-.24.05-.47.12-.69.23-.86.26-1.75.3-2.63.4-3.02.35-6.03.82-9.07,1.03-.25.02-.46.14-.7.18-1.68.18-3.36.27-5.04.37-.35.02-.7.03-1.04-.09-.51-.45-1.1-.5-1.77-.51-1.42-.02-2.85.2-4.28-.05-.13-.02-.27-.01-.4-.05-.29-.07-.63-.15-.64-.51,0-.36.33-.48.62-.53.95-.14,1.79-.57,2.68-.87,1.1-.31,2.25-.11,3.37-.24.45-.05.91,0,1.36-.14,1,.06,1.99-.18,2.99-.19.76,0,1.01-.32.92-1.08-.23-2.12-.42-4.24-.75-6.34-.24-1.57-.29-3.17-.45-4.76-.2-1.99-.41-3.97-.58-5.96-.18-2.07-.53-4.12-.49-6.21,0-.22-.07-.43-.12-.64-.41-2.86-.65-5.75-.94-8.62-.44-4.22-.77-8.45-1.23-12.67-.23-2.09-.32-4.2-.53-6.3-.28-2.77-.52-5.54-.77-8.31-.23-2.58-.52-5.16-.72-7.75-.22-2.75-.54-5.49-.75-8.23-.19-2.53-.49-5.06-.72-7.59-.09-.97-.11-1.94-.22-2.91.11-.44.04-.73-.52-.67-.33.03-.67.02-.82,0,.22,0,.62-.02,1.02,0,.32.02.38.17.13.4-.83.29-1.67.21-2.51.07-.33-.09-.45-.43-.75-.58-.83-.42-.85-.67-.22-1.35-.31-.31-1.04.17-1.11-.6.33-.36.77-.31,1.19-.31.66,0,1.33-.04,1.99.04,2.56.89,5.18.66,7.79.39,1.48-.15,2.97-.02,4.45-.25,1.33-.21,2.7-.2,4.04-.37,1.14-.15,2.18-.64,3.25-1,.35-.11.53-.34.44-.74-.25-1.16-.41-2.34-.79-3.47-.61-1.83-2.01-2.4-3.75-2.56-1.25-.12-2.49.09-3.72.21-1.32.13-2.65.15-3.96.23-2.37.15-4.75.36-7.13.18-1.18.12-2.38.12-3.56.16-2.11.07-4.21.28-6.32.22-1.43-.04-2.87.09-4.29.11-3.14.05-6.27-.1-9.41-.18-1.46-.03-2.92-.09-4.38-.1-1.11-.01-2.21-.25-3.32-.17-1.04-.22-2.07.12-3.11,0-.39-.04-.81.05-1.17-.17-.34-.35-.08-.48.23-.48.49,0,1-.09,1.33.05-.53-.07-1.22-.11-1.91.02-.52.1-1.02.04-1.32-.5-.03-.25.09-.41.28-.54.33-.16.69-.07,1.03-.1.24-.02.53.02.67-.2.26-.41.63-.44,1.05-.45.43,0,.52-.18.39-.63-.2-.65-.71-1.12-.89-1.79-.1-.37-.21-.68.12-.94.31-.25.61-.07.89.12.2.13.38.31.65.29.81.31,1.01,1.19,1.59,1.71.35.29.77.37,1.21.48.67.15-.02-.32.19-.34.36-.5.83-.26,1.12-.02.3.25.39.25.57-.06.06-.1.24-.1.38-.1,2,.28,4.01.42,6.02.59,1.93.16,3.87.26,5.8.34.29.06.56.14.87.14,2.9.02,5.79-.27,8.69-.2,3.9.1,7.78-.29,11.67-.46,1.81-.08,3.62-.2,5.42-.33,1.1-.08,1.88-.54,2.45-1.47.61-.99,1.04-2.08,1.63-3.09.74-1.39,1.97-2.36,2.98-3.52,2.61-3.01,4.22-6.53,5.25-10.33.42-1.57.78-3.15.96-4.77.08-.37.02-.79.34-1.09,1.96-.71,4.01-1.12,6.01-1.7,4.01-1.15,7.83-2.73,11.26-5.15,3.09-2.17,5.47-4.99,7.4-8.21,1.01-1.41,1.85-2.92,2.4-4.58.12-.36.24-.72.48-1.02.44-.29.7-.66.65-1.22-.03-.31.05-.65.37-.75.83-.26,1.44-.99,2.34-1.1.19-.02.39-.09.44-.31.17-.9.71-1.7.68-2.66-.03-.82.27-1.6.43-2.39.13-.64.12-1.29.23-1.92.27-1.53.2-3.09.51-4.61.06-.29.12-.6.33-.82.27-.3.51-.28.65.13.07.45.03.89-.11,1.33-.16,3.33-.67,6.62-1.34,9.88-.54,1.59-.91,3.23-1.59,4.77-.53,1.04-.9,2.14-1.4,3.19-2.38,5.07-5.73,9.35-10.31,12.62-1.81,1.36-3.74,2.51-5.8,3.46-2.4,1.25-4.95,2.03-7.6,2.53-1.09.2-2.18.43-3.27.65-.69.14-1.06.49-1.16,1.23-.24,1.71-.49,3.42-1.05,5.08-1.11,3.3-2.65,6.35-5.08,8.87-1.83,1.91-2.66,4.3-3.52,6.7-.23.65.22.82.66.98,1.16.43,2.18,1.07,3.03,1.98.28.29.58.58.53,1.05Z"/>
      <path class="cls-10" d="M99.75,19.23c1.39.98,2.77,1.97,4.05,3.1.84.17,1.28.88,1.79,1.44.7.75,1.35,1.45,2.49,1.42.26,0,.58.12.76.4,1.91,1.33,2.81,3.26,3.04,5.47.16,1.53-.52,2.88-1.39,4.12-.52.43-1.01.18-1.49-.09-.69-.39-1.15-1.05-1.81-1.47-.48-.5-1.13-.27-1.69-.37-.22-.04-.32.16-.38.35-.07.22-.19.39-.43.44-.5.04-.99-.03-1.49-.09-1.23-.18-2.47-.2-3.7-.3-2.11-.16-4.23.11-6.32-.31-.66-.13-1.29,0-1.93.17-4.87.25-9.74.29-14.61.16-2.03-.06-4.06-.1-6.08-.11-1.24,0-2.48.18-3.73.17-2.54-.03-5.08-.19-7.62-.27-.61-.02-1.18.08-1.76.22-4.5.08-9,.02-13.5.04-.6,0-1.19.01-1.78.1-.78.07-1.57.08-2.35.06-4.33-.11-8.66.24-13,.17-1.69-.27-3.38.02-5.06,0-.16,0-.36.03-.43.18-.33.74-1.02.69-1.65.77-1.51-.2-3.02-.45-4.55-.48-1.02-.02-2.03.11-3.04.24-.83.2-1.63.58-2.52.5-.37-.04-.45.34-.71.48-1.13-.17-1.77-.91-2.16-1.91-1.04-1.49-1.22-3.21-.91-4.88.33-1.77,1.76-2.73,3.38-3.31.78-.28,1.63-.49,2.45-.51,2.23-.07,3.96-1.01,5.42-2.66,1.78-2.01,4.01-3.44,6.35-4.72.73-.4,1.45-.84,2.17-1.27,5.51-2.57,11.28-4.26,17.27-5.22.08-.01.16-.01.24-.03,1.05-.17,1.02-.17.93-1.23-.1-1.24-.16-2.5-.01-3.74.28-2.28,1.67-3.76,3.67-4.71,2.1-1,4.38-1.18,6.65-1.33,3.98-.27,7.96-.32,11.93.14,1.62.19,3.22.46,4.69,1.2,2.33,1.19,3.74,4.14,3.38,7.03-.08.62-.13,1.24-.24,1.85-.08.47.2.47.51.52,1.85.29,3.7.55,5.53.88,2.75.51,5.42,1.3,8.1,2.09.15.05.32.07.47.1.61-.03,1.15.19,1.71.38,2.94,1.04,5.83,2.21,8.47,3.92.36.23.76.43.89.9Z"/>
      <path class="cls-9" d="M127.75,101.88c-.1-.27-.23-.2-.29,0-.29,1.01-.55,2.08-.39,3.1.12.74-.37,1.24-.33,1.92.04.73-.01,1.46-.19,2.22-.19.81-.56,1.63-.43,2.51.1.68-.34,1.23-.45,1.85-.15.8-.31,1.46-1.42,1.44-.65-.01-1.05.88-1.84.89-.27,0-.19.4-.2.63-.03.57-.13,1.07-.78,1.24-.27-.23-.14-.5-.07-.75,1.03-3.93,1.6-7.94,2.03-11.98.37-3.47.55-6.95.8-10.43.26-3.61.58-7.22.89-10.83.11-1.23.15-2.48.22-3.72.23-4.14.21-8.28.38-12.41.16-3.97,0-7.89-.7-11.79-.17-.96-.57-1.85-.81-2.79.39-.67.85-.69,1.24-.07.31.48.27,1.1.61,1.61.28-.36.27-1.03.84-.98.63.06.46.76.69,1.15.7,1.16.95,2.49,1.54,3.69.26.53.35,1.13.72,1.6.1.11.19.23.05.38.71,2.71.44,5.48.49,8.23.02.84-.26,1.66-.12,2.5.16,1.05,0,2.1-.07,3.14-.17,2.97-.36,5.94-.55,8.9-.17,2.73-.41,5.44-.68,8.16-.16,1.64-.25,3.28-.39,4.92-.15,1.72-.33,3.43-.42,5.16-.01.23-.03.51-.38.51Z"/>
      <path class="cls-15" d="M129.72,60.08c-.1.25-.25.21-.29,0-.26-1.38-1.06-2.55-1.44-3.91-.21-.75-.82-1.44-.92-2.32-.03-.22-.27-.26-.41-.02-.08.14-.13.29-.18.45-.11.32-.06.88-.35.91-.47.05-.32-.57-.53-.87-.2-.29-.21-.72-.3-1.08-.13-.52-.43-.73-.96-.5-.43-.07-.61-.43-.81-.73-1.74-2.55-4.12-4.14-7.14-4.84-1.75-.4-3.49-.7-5.3-.63-1.11.04-2.22.08-3.32-.08-.4-.06-.65.11-.66.51,0,.73-.13,1.46.12,2.17.66.69,1.58.54,2.39.75.93.25,1.94-.03,2.84.48.25.14.49.25.45.58-.04.35-.29.52-.62.53-.3.01-.59.03-.87.16-1.25.08-2.47-.21-3.69-.39-.98-.15-1.03-.13-1.23.86-.46,2.2-.57,4.44-.89,6.66-.3,2.11-.4,4.24-.55,6.36-.25,3.86-.88,7.68-1.26,11.53-.27,2.74-.69,5.47-1.03,8.21-.28,2.25-.61,4.5-.77,6.77-.15,2.26-.55,4.51-.82,6.76-.27,2.26-.45,4.52-.76,6.77-.23,1.69-.4,3.39-.74,5.06-.57,2.78-.99,5.59-1.22,8.42-.18,2.18-.57,4.34-.87,6.51-.25,1.79-.32,3.61-.6,5.4-.06.42-.11.86-.4,1.22-.36.05-.48.37-.67.61-.44.53-.94.58-1.52.17-.24-.8.06-1.57.23-2.31.59-2.59.84-5.23,1.19-7.86.32-2.41.73-4.81,1.06-7.22.47-3.43,1.09-6.84,1.44-10.28.36-3.61.76-7.21,1.23-10.8.51-3.94.99-7.89,1.38-11.85.35-3.61.86-7.2,1.22-10.8.35-3.42.82-6.82,1.05-10.25.21-3.16.71-6.29,1.04-9.43.26-2.47.64-4.93.78-7.42.14-2.41.07-4.81,0-7.21.05-1.09-.19-2.15-.22-3.24.01-.78.26-1.17,1.14-.86.43.15.96-.06,1.33.35-.23.49-.69.29-1.14.36.36.87.52,1.77.79,2.63.16.53.5.62,1.01.46.3-.09.67-.43.93.09-.21.12-.41.26-.63.36-.99.46-.97.45-.97,1.59,0,1.37.06,2.74.19,4.11,4.64.59,9.32,1.04,13.58,3.2,4.07,2.06,6.7,5.3,7.78,9.75.34,1.38.87,2.71.93,4.15Z"/>
      <path class="cls-9" d="M108.83,36.92c-.35-.14-.61.09-.89.22-.68.31-1.15,0-1.36-.72-.25-.84-.25-1.77-.82-2.51-.13-.16-.16-.35-.01-.52.15-.17.35-.2.51-.06.33.29.66.13.99.05.74.11.99.86,1.54,1.23.54.37,1.06.63,1.71.58-.28.84-.87,1.38-1.66,1.74Z"/>
      <path class="cls-1" d="M67.86,175.92c.92,0,1.84,0,2.76.01.18-.07.26.02.29.18.37.85.2,1.77.29,2.65.55,5.61,1.05,11.23,1.57,16.84.51,5.42,1.04,10.84,1.54,16.27.4,4.29.76,8.59,1.16,12.88.41,4.34.86,8.68,1.29,13.03.03.32.03.65.05.97.12.28.09.56-.05,1.03-.51-.75-.87-1.39-1.2-2.04-2.67-5.3-6.08-10.1-9.95-14.57-.28-.33-.43-.76-.82-1-.86-.89-1.42-2.01-2.19-2.96-.9-1.33-1.94-2.55-3.02-3.73-.7-.5-1.22-1.2-1.93-1.68-.72-.59-1.44-1.21-2.47-1.14-.49-.13-.85-.47-1.22-.78-2.58-2.12-5.53-3.47-8.83-3.83-3.57-.39-7.02.08-10.17,2.02-3.26,2.01-5.86,4.64-7.55,8.08-2.56,5.22-2.52,10.49-.11,15.76.93,2.05,2.29,3.8,3.86,5.38.38.38.83.72.89,1.32-.09.95.28,1.81.5,2.7.79,3.24,1.97,6.32,4.19,8.87,2.17,2.49,4.95,4.05,8.11,4.99,2.65.79,5.37.95,8.08,1.28,6.31.78,12.64.65,18.97.64.35,0,.71-.03,1.05.05.33.07.67.19.66.6,0,.4-.34.54-.68.55-.98.02-1.91.34-2.89.35-.33,0-.63.14-.95.2-4.49.33-8.99.19-13.48.22-3.49.02-6.98-.24-10.46-.36-5.33-.18-10.6-1.02-15.88-1.7-5.72-.74-11.35-1.96-16.97-3.23-1.27-.29-2.52-.65-3.65-1.32-.33-.19-.65-.4-.84-.75-.33-1.08.12-2.09.35-3.1.99-4.33,1.62-8.73,2.57-13.06.86-3.91,1.38-7.89,2.18-11.81.61-3.02,1.23-6.05,1.81-9.07.72-3.75,1.52-7.48,2.37-11.19.72-3.11,1.45-6.22,2.11-9.35.93-4.4,2.07-8.74,3.14-13.1.13-.53.12-1.07.25-1.6.22-.95.45-1.89.94-2.76.24-.42.45-.86.38-1.38.42-.94,1.21-1.51,2.05-2.01.89-.52,1.85-.9,2.8-1.3.77-.32,1.56-.37,2.38-.15,2.04.54,4.13.8,6.24.99,2.66.25,5.34.34,8,.59,1.29.12,2.59.07,3.89.16,5.14.33,10.28.19,15.42.18.7,0,1.39-.18,2.1-.15.39.02.76.05,1.06.32Z"/>
      <path class="cls-9" d="M79.43,250.46c-.33-3-.55-6.02-.93-9.02-.21-1.66-.23-3.35-.38-5.02-.35-3.71-.8-7.42-1.09-11.13-.24-3.07-.69-6.12-.9-9.2-.24-3.61-.73-7.2-1.07-10.81-.27-2.85-.45-5.72-.7-8.57-.14-1.64-.34-3.28-.51-4.92-.21-2.04-.41-4.09-.61-6.13-.19-1.91-.38-3.82-.55-5.73-.1-1.08-.16-2.16-.25-3.24-.04-.5.16-.73.69-.77,3.48-.24,6.97-.45,10.41-.99,1.44-.23,2.88-.54,4.27-.99,2.04-.66,3.8-.11,5.46,1,1.16.79,2.31,1.62,3.37,2.54,1.39,1.21,2.37,2.75,2.94,4.49,1.5,4.61,2.56,9.33,3.46,14.09.09.45.21.89.32,1.34.1.17.1.33-.13.35-.17.01-.31-.11-.4-.25-.74-1.11-1.95-1.23-3.08-1.36-1.66-.19-3.07-1.01-4.59-1.55-.46-.16-.89-.4-1.37-.49-.46-.09-.69.05-.59.55.35,1.75.79,3.48,1.12,5.24.06.3.25.53.48.74.35.32.49.71.33,1.18-.16.49-.6.36-.96.42-.11.02-.21.04-.32.06-1,.02-2.01.04-3.01,0-.9-.03-1.48.4-1.91,1.13-.61,1.04-.7,2.17-.47,3.3.25,1.26.41,2.48,0,3.76-.22.68-.16,1.45.07,2.16.5,1.56,1.49,2.3,3.13,2.34,1.27.03,2.54.04,3.79-.27,1.09.12,1.3.36,1.41,1.47.28,2.93.45,5.87.63,8.81.05.92.09,1.84-.3,2.72-.2.46-.46.67-1,.59-.91-.13-1.84-.06-2.76-.04-.49,0-.96.15-1.36.46-.58.55-1.4.67-2.05,1.12-.62.43-1.26.84-1.79,1.38-.28.29-.45.66-.51,1.08-.27.75-.86,1.31-1.19,2.03-.84,1.83-.9,3.71-.46,5.64.17.76.51,1.49.51,2.29-.21.52-.46.57-.76.07-.25-.42-.45-.85-.55-1.35-.53,1.05-.55,2.17-.55,3.27,0,.47.43.86.82,1.05,1.14.55,2.08,1.47,3.32,1.82.75.21,1.52.37,2.23.71.25.12.6.16.56.58-.35.45-.8.37-1.26.26-1.91-.49-3.78-1.09-5.45-2.17-.58-.37-1.04-.87-1.51-1.35-.56-.59-1.24-.98-1.97-1.25-.61-.23-1.13-.48-1.44-1.16-.38.82-.62,1.54-.5,2.4.21,1.44.31,2.9.35,4.37,0,.36.11.84-.44.97Z"/>
      <path class="cls-14" d="M64.93,221.99c1.74,1.82,3.31,3.78,4.79,5.82,2.4,3.31,4.63,6.72,6.43,10.4.19.38.61.64.58,1.14.03-.2.05-.4.08-.6.36,1.89.43,3.81.63,5.71.55,5.41,1.08,10.81,1.61,16.22.09.89.12,1.78.21,2.67.04.39-.09.55-.47.56-1.24.05-2.47.3-3.72.25-.45.12-.89.05-1.43.05.19-.46.5-.53.81-.54.89-.01,1.77-.2,2.67-.2,1.36,0,1.52-.18,1.45-1.5-.05-.97-.25-1.93-.33-2.9-.02-.23-.09-.45-.37-.44-.38,0-.84.04-1,.41-.59,1.42-1.78,1.55-3.08,1.57-1.21.02-2.4.4-3.63.28-.37-.04-.77.03-1.03-.34,1.14-.16,2.29-.32,3.43-.48.21-.03.43-.04.64-.1.13-.03.26-.12.24-.28-.02-.15-.15-.23-.29-.24-.24-.02-.49-.03-.73-.03-2.63,0-5.26-.01-7.89,0-4.22.03-8.42-.32-12.62-.78-2.42-.26-4.83-.49-7.19-1.17-2.56-.74-4.83-1.99-6.86-3.71-2.76-2.33-4.14-5.47-5.19-8.8-.37-1.19-.63-2.41-.98-3.6-.11-.36-.11-.62.2-.85.42-.25.73.05,1.02.26,2.39,1.75,5.15,2.58,8.01,3.08,1.71.29,3.44.09,5.16-.1.32-.04.64-.1.93.12.25.59-.26.59-.58.71-.2.07-.48.07-.46.35.03.33.34.29.57.3,5.11.41,9.47-1.24,13.16-4.76,1.04-.99,1.93-2.07,2.68-3.33,2.28-3.82,3.13-7.88,2.48-12.26-.12-.78-.06-1.57-.16-2.35-.03-.22.02-.43.22-.58Z"/>
      <path class="cls-16" d="M74.05,266.6c2.06-.01,4.11-.24,6.16-.38.61-.16.88.05.78.69-.43,2.62-1.21,5.11-2.78,7.3-.79,1.1-1.83,1.66-3.18,1.6-.28-.01-.53.09-.8.12-.96.04-1.93-.01-2.89.03-.7.15-1.43,0-2.13.16-3.13.18-6.28-.06-9.41.21-2.17.18-4.32-.12-6.48-.3-2.83-.24-5.66-.5-8.47-.94-3.88-.6-7.77-1.11-11.63-1.78-4.03-.7-8.03-1.5-11.95-2.71-4.2-1.3-8.24-2.99-12.18-4.95-1.65-.82-3.09-2.02-4.87-2.57-.25-.08-.5-.23-.5-.57l.02-1.13c-.42-.7-.08-1.31.26-1.88.33-.54.88-.56,1.45-.44,1.72.36,3.4.92,5.08,1.41,3.59,1.06,7.22,1.89,10.87,2.68,4.44.97,8.92,1.73,13.44,2.24,2.09.24,4.19.44,6.3.56,4.32.25,8.64.43,12.97.51,2.22.04,4.44.12,6.65.09,1.43-.02,2.87-.24,4.29-.12,1.59.14,3.18.02,4.77.04,1.22.05,2.45.08,3.67-.07.18.07.39.06.55.19Z"/>
      <path class="cls-1" d="M105.27,36.95c.28,3.38.3,6.77-.15,10.13-1.05,7.79-1.65,15.63-2.55,23.43-.79,6.86-1.47,13.74-2.34,20.59-.75,5.97-1.27,11.96-2.09,17.92-.58,4.16-1.29,8.3-1.85,12.46-.49,3.73-.99,7.46-1.75,11.15.26.58-.08,1.16-.03,1.74.09,1.1-.12,2.17-.28,3.25-.03.22-.12.41-.31.54-.07.39-.14.79-.22,1.18-.46-.14-.37-.53-.39-.86-.25.4-.5.81-.86,1.12-.94.81-1.45,1.86-1.83,3.01-1.06,3.2-2.73,6.07-4.94,8.6-1.28,1.46-2.76,2.74-4.21,4.05-.96.87-2.22,1.08-3.4,1.45-3.17.73-6.38,1.15-9.63,1.36-3.08.2-6.15.38-9.23.49-1.24.04-2.48.19-3.73.09-2.37.16-4.73-.03-7.09-.23-1.04-.09-2.1-.01-3.14-.21-.24-.04-.48-.03-.7-.14-.28-.15-.5-.62-.89-.17-.36.16-.74.13-1.12.14-2.03,0-4.04-.24-6.06-.35-.4-.02-.75.02-1,.36-.73-.02-.79-.61-.95-1.12-.07-.53-.51-.73-.89-.99-1.12-.83-1.89-1.99-2.83-2.99-.2-.21-.36-.48-.27-.81.6-.41.93-.33,1.46.32.24.29.26.8.65.89.43.09.52-.49.88-.62.66-.24.74-.64.46-1.26-.22-.48-.3-1.02-.32-1.58-.02-.8-.6-1.31-1.22-1.7-1.18-.75-1.21-.99-.09-1.92.25-.05.43.09.55.26.67.96,1.44,1.86,2.08,2.84.09.14.14.29.06.45-.02.04-.06.08-.11.09.05,0,.09-.04.13-.08.97.36,1.63,1.04,2,1.99.32.87.59,1.74.64,2.68.02.34.51.29.9.24-.11-.37-.45-.52-.62-.8-.36-.58-.31-.84.28-1.24.88.2,1.69.51,2.17,1.35-.07.22-.06.22.01.12.05-.06.09-.12.16-.16.6-.05,1.14.04,1.46.64,0,.13-.07.22-.19.28.17-.02.21-.21.34-.27.3-.11.51.01.68.24.23.42.58.1.87.14.7.05,1.39.16,2.08.29.78.14,1.56.15,2.33.01,2.2-.41,4.4-.25,6.61-.2.19.04.38.04.57.07.39.17.78.09,1.18.05.46-.05.89.1,1.31.26,1.09.45,2.22.68,3.4.72,4.3.13,8.53-.35,12.5-2.05,2.55-1.09,5-2.39,7.07-4.38,2.04-1.96,3.97-4.01,5.63-6.29,2.61-3.57,3.95-7.68,4.72-12,.7-3.9,1.14-7.82,1.63-11.75.5-4,.82-8.03,1.39-12.02.46-3.22,1.01-6.42,1.29-9.66.39-4.51.99-8.99,1.54-13.48.33-2.66.63-5.33,1.07-7.97.07-.45,0-.93.16-1.37.23-1.13.22-2.28.21-3.43,0-.35,0-.7.09-1.04.46-3.45.86-6.92,1.21-10.38.35-3.47.88-6.91,1.39-10.36.47-3.18,1.15-6.33,1.32-9.55.03-.6-.28-1.09-.34-1.65.26-.64.9-.64,1.42-.83.8-.01,1.15-.73,1.73-1.09Z"/>
      <path class="cls-9" d="M3.71,262.52c3.55,1.51,6.8,3.65,10.38,5.12,5.28,2.17,10.7,3.79,16.31,4.84,4.52.85,9.07,1.48,13.6,2.2,3.22.51,6.48.82,9.75,1.06,1.94.14,3.88.38,5.83.27,3.19-.19,6.39-.08,9.59-.15-.05.65-.63.32-.85.53.88,0,1.87-.11,2.72.55.23.18.58.1.87.11.35.01.73-.02,1.03.17.55.34,1,.46,1.57-.07.41-.38.99-.15,1.21.35.3.67.59.48,1.03.18.47-.33.98-.62,1.55-.19.08.46-.27.61-.57.78-1.81,1.04-3.73,1.86-5.64,2.71-.96.43-1.96.78-2.85,1.37-.35.23-.74.29-1.16.3-.73.01-1.46-.09-2.18.07-3.63.25-7.26.21-10.88.16-4.35-.07-8.69-.33-13.03-.77-2.42-.25-4.85-.32-7.28-.54-2.66-.24-5.32-.54-7.94-1.08-3.25-.67-6.53-1.26-9.69-2.32-2.54-.85-5.2-1.53-7.25-3.32-2.5-2.18-4.23-4.96-5.43-8.07-.21-.55-.27-1.17-.66-1.65-.1-.1-.11-.2-.02-.3.11-.76-.19-1.52-.03-2.28Z"/>
      <path class="cls-9" d="M65.91,282.7c.64-.32,1.33-.11,1.99-.15.42-.02.76-.1,1.1-.4.8-.71,1.84-.99,2.81-1.41,2.13-.92,4.23-1.89,6.26-3.01.09-.05.14-.16.21-.24.08-.33.37-.44.61-.61,2.03-1.44,4.18-2.71,6.22-4.14,1.3-.91,2.31-2.12,3.43-3.21.79-.78,1.56-1.58,2.4-2.3.8-.69,1.57-1.43,1.64-2.6,1.59-.55,3.25-.73,4.88-1.09,1.52-.33,3.03-.68,4.55-.96,1.94-.36,3.84-.91,5.79-1.22,1.17-.18,2.35-.42,3.45-.83.81-.3,1.6-.71,2.45-.92,1.94-.48,3.59.57,4.1,2.56.3,1.18.25,2.37-.03,3.54-.45,1.84-1.13,3.59-2.26,5.14-1.6,2.2-3.54,4.05-6.06,5.07-1.96.79-3.86,1.76-5.94,2.31-1.45.38-2.86,1-4.34,1.25-2.38.41-4.72.96-7.11,1.32-3.47.52-6.97.8-10.44,1.28-3.59.49-7.18.42-10.77.47-1.65.02-3.29.22-4.95.14Z"/>
      <path class="cls-9" d="M91.82,228.69c.33-.42.75-.65,1.4-.66,1.03,0,2.06-.11,3.08.07.36.06.43-.06.55-.37.35-.86.42-1.77.28-2.63-.27-1.59-.02-3.18-.27-4.77-.23-1.49-.26-3.01-.35-4.52-.05-.77-.55-.83-1.14-.8.08-.75.82-.83,1.15-1.22-.44.21-1,.24-1.56.26-.35.01-.63-.13-.78-.47-.2-1.21-.19-2.45-.43-3.66.32-.84.88-1.08,1.8-.77.43.15.84.37,1.32.34.44-.03.71-.16.47-.64-.2-.43-.09-.69.32-.92.4-.22.62-.58.64-1.06.07-1.33-.23-2.56-.99-3.66-.51-.73-1.2-1.02-2.11-.84-.46.09-1.03.29-1.33-.36.3-.21.82.33,1.01-.37.1-.38.05-.58-.24-.73-.47-.24-.65-.65-.71-1.12-.22-1.69-.7-3.33-1.05-4.99-.2-.96.02-1.19.96-1.01,1.16.23,2.17.83,3.22,1.28,1.24.53,2.52.82,3.8.98,1.11.14,1.74.67,2.3,1.48.01.02.04.04.06.06.04-.06.09-.12.13-.18.48,1.15.66,2.39.95,3.59.82,3.41,1.44,6.87,2.31,10.28.82,3.22,1.48,6.48,2.24,9.71.75,3.18,1.54,6.35,2.32,9.52.87,3.57,1.69,7.14,2.45,10.74.22,1.03.53,2.03.8,3.05.17.93-.17,1.74-.6,2.53-.22.39-.61.52-1.04.51-.62-.01-1.24.06-1.86.05-.38,0-.74.03-1.07.27-.51.35-.87.13-1.08-.39-.21-.53-.29-1.09-.46-1.63-.21-.65-.45-1.25-.92-1.75-.37-.99-.47-2.05-.74-3.07-.1-.4-.21-.78-.42-1.14-.04-.1-.05-.24-.14-.28-1.22-.62-1.07-1.73-1-2.8.04-.6,0-1.17-.27-1.71-1.03-1.67-2.23-3.18-4.07-4.05-.36-.17-.57-.59-1.03-.59-1.32-1.02-2.88-1.4-4.49-1.67-.83-.14-1.6.03-2.4.16-.34.05-.68.21-1.01-.05Z"/>
      <path class="cls-9" d="M107.58,243.81c.97.82,1.1,2.01,1.39,3.14.12.47.17,1.18.82.31.17-.22.43-.21.67-.19.81.06,1.61-.14,2.42-.01.31.05.59-.04.71-.4.26-.79.54-1.57.81-2.36.41.75.4,1.61.59,2.42.72,3.13,1.32,6.28,2.13,9.39.05.18.03.37.05.56-.67.3-.97.17-1.07-.5-.09-.59-.08-1.18-.17-1.77-.08-.48-.2-.8-.77-.54-.07.03-.16.06-.24.05-.66-.15-1.16-.05-1.51.63-.18.35-.72.42-1.03.22-.71-.45-1.54-.74-2.13-1.42-.12,1.38-.07,2.76.03,4.14.03.41.24.47.59.47.45,0,.93-.07,1.27.35-1.55.54-3.15.87-4.73,1.31-3.83,1.06-7.75,1.71-11.6,2.67-3.04.76-6.1,1.41-9.26,1.59-1.58.09-3.19.08-4.76.42-.61.13-.86-.26-.89-.78-.18-3.51-.93-6.96-1.17-10.46-.06-.86-.2-1.72-.3-2.57.21-.23.16-.51.15-.78-.06-1.73-.19-3.45-.43-5.16-.12-.82.53-1.43.59-2.21.02-.23.46-.26.48-.02.13,1.1,1.08,1.17,1.8,1.49,1.08.47,1.81,1.33,2.63,2.1.16.15.26.38.5.38.76.02,1.21.63,1.79.96,1.25.71,2.72.63,3.98,1.25.17.08.47-.08.7-.12.6-.31,1.08.17,1.62.25.2.03.42.27.59.05.14-.19-.08-.4-.13-.6-.12-.45-.76-.66-.58-1.25.86-.41,1.81-.22,2.71-.37,2.86-.47,4.98-1.98,6.46-4.43.26-.44.4-.94.42-1.47.01-.35.01-.71.22-1.02.2-.21.46-.35.73-.27.57.17.69-.13.8-.59.24-1.04.32-2.08.34-3.14,0-.29-.09-.6.18-.83.45.57.39,1.23.38,1.9-.02.89-.4,1.92.8,2.42.2.09.25.34.28.55-.55,1-.69,2.14-1.22,3.17-2.2,4.31-5.13,8.01-8.93,11.03-.96.76-1.84,1.6-2.52,2.64-.16.24-.39.53-.24.82.17.34.54.14.81.13,3.77-.17,7.38-1.12,10.94-2.28.95-.31,1.84-.79,2.75-1.21.48-.22.61-.53.55-1.03-.29-2.34-.58-4.68-1.01-6.99-.12-.67-.42-1.36,0-2.04Z"/>
      <path class="cls-16" d="M106.95,49.31c-.49-1.02-.14-2.05-.05-3.08.02-.21.24-.18.4-.16,2.31.39,4.65-.08,6.96.32,2.83.49,5.53,1.25,7.71,3.28.96.9,1.72,1.94,2.37,3.07,1.77,4.09,1.77,8.44,1.75,12.77-.03,5.99-.21,11.98-.63,17.95-.36,5.1-.8,10.2-1.15,15.31-.4,5.8-.87,11.62-2.41,17.27-.15.55-.3,1.1-.45,1.64-.63,2.02-1.54,3.89-2.76,5.62-.39-.28-.28-.65-.07-.92,1.19-1.57,1.48-3.52,2.25-5.27.21-.47.25-.99.31-1.48-.19.42-.34.94-.98.84-.33-.05-.33.2-.44.37-.2.31-.48.43-.83.37-.36-.06-.55-.32-.65-.65-.04-.13-.1-.28-.06-.4.43-1.17-.16-2.32-.06-3.48.03.61-.1,1.23.23,1.81.09.16.05.38,0,.56-.24.88-.42,1.79-.69,2.66-.08.26-.23.49-.45.66-.31.23-.49.12-.58-.23.1-1.32.49-2.6.57-3.93.1-1.62.25-3.23.41-4.85.23-2.21.43-4.41.61-6.62.13-1.56.25-3.13.37-4.69.21-2.75.48-5.5.62-8.25.09-1.92.36-3.83.35-5.75-.02-3.31.32-6.59.39-9.9.03-1.51.07-3.03.11-4.54.03-1.11.11-2.23.1-3.32-.04-3.02.1-6.06-.55-9.05-.66-3.06-2.65-4.93-5.39-6.15-1.57-.7-3.23-.97-4.92-1.15-.8-.09-1.68-.09-2.38-.64Z"/>
      <path class="cls-3" d="M74.05,266.6c-.15,0-.29,0-.44,0-.77.11-1.54.06-2.31.01-.49-.03-1.01-.16-1.48.13-5.31.06-10.62.14-15.94.07-5.4-.08-10.79-.3-16.16-.78-5.86-.52-11.65-1.5-17.4-2.76-4.63-1.01-9.21-2.22-13.75-3.59-.29-.09-.57-.18-.86-.24-1.38-.29-1.57-.17-1.83,1.22-.05.24-.1.48-.14.72-.03.04-.06.09-.09.13-.16.26.09.86-.28.82-.49-.05-.22-.62-.25-.96-.05-.59-.03-1.19-.06-1.78,0-.06-.09-.11-.24-.27-.11,1.32-.57,2.47-.4,3.74.11.83-.07,1.71-.26,2.54-.19-.8-.15-1.63-.18-2.44.91-5.14,1.82-10.28,2.73-15.42.03-.16.04-.32.07-.48-.27-1.81.4-3.5.68-5.24.12-.72.22-1.44.34-2.16.06-.33.07-.71.42-.92.58-1.45.73-2.99,1-4.5.64-3.49,1.43-6.94,1.93-10.45.65-2.32,1.05-4.7,1.51-7.05.75-3.83,1.88-7.56,2.59-11.4.58-3.13,1.28-6.24,2.03-9.34.04-.18.03-.38.04-.57.53-2.51,1.04-5.02,1.58-7.53.58-2.68,1.28-5.33,2.64-7.73,1.79-3.16,4.15-5.74,7.73-6.92,1.51-.5,2.22-1.51,2.41-3.09.18-1.45.75-2.82,1.31-4.17.27-.67.85-1.11,1.52-1.39.41.4.92.4,1.43.36.78-.06,1.54.04,2.41.26-.87.2-1.64-.09-2.36.21,0,.11,0,.23-.09.3-1.57,1.49-1.8,3.47-2.04,5.46-.01.11,0-.03,0,.08-.15,1.13-.28,1.1,1.05,1.11,2.95.01,5.87.36,8.81.51,1.62.08,3.24.19,4.86.2,3.08.02,6.16.24,9.24.21.65.19,1.32.23,2,.22,2.15-.04,4.31.09,6.46-.23.53-.08,1.14-.21,1.6.29.4,0,.81,0,1.21.02.24,0,.52-.04.56.31.03.3-.15.44-.43.49-.18.03-.43,0-.45.24-.02.27.24.33.44.4.33.11.58.29.63.66-5.83.22-11.65.28-17.48.03-4.61-.2-9.21-.44-13.8-.84-1.97-.17-3.93-.48-5.84-1.03-.32-.09-.67-.18-.96-.07-2.1.78-4.26,1.47-5.73,3.34-.03.37-.22.66-.45.93-2.48,2.96-3.86,6.43-4.74,10.14-1.12,4.72-2.15,9.46-3.22,14.19-.66,2.9-1.25,5.83-1.94,8.73-1.08,4.56-1.94,9.17-2.87,13.76-1.45,7.17-2.82,14.35-4.24,21.53-.4,2.02-.64,4.07-1.19,6.06-.12,1.02-.32,2.03-.4,3.06-.05.64.17.92.72,1.16,4.51,1.89,9.17,3.28,13.94,4.33,4,.88,8.04,1.44,12.1,1.89,2.15.24,4.31.37,6.47.56,3.37.29,6.75.35,10.12.61.08,0,.16,0,.24,0,5.12,0,10.24.33,15.36.14,1.81-.07,3.62-.12,5.44-.13.38,0,.77-.04,1.05.3-1.09.35-2.12.87-3.27,1.11.52.37,1.12.29,1.64.32,1.5.07,3.02.31,4.5-.14.73-.22.28.68.72.71Z"/>
      <path class="cls-14" d="M70.45,264.61c-3.93.06-7.86.17-11.79.17-7.78-.01-15.55-.3-23.3-.97-6.51-.56-12.97-1.42-19.31-3.07-3.7-.97-7.31-2.19-10.83-3.66-.59-.25-.72-.53-.61-1.16.2-1.11.19-2.26.58-3.34.18-.18.39-.3.64-.2.76.31,1.57.53,2.13,1.21,1.37,1.1,3.02,1.56,4.69,1.92,4.06.88,8.1,1.91,12.22,2.51,2.59.38,5.19.73,7.78,1.08,1.66.23,3.31.48,4.98.67,1.58.18,3.17.36,4.76.44,2.86.16,5.73.21,8.59.37,4.57.26,9.15.1,13.73.12,1.49,0,2.97-.09,4.46-.15,1.47.06,2.93-.07,4.39-.24.74-.09,1.46-.08,2.18-.35.45-.17.66-.4.76-.83.12-.52,1.39-1.16,1.86-.94.16.08.25.22.25.39,0,1.49.44,2.94.35,4.43-.02.44-.16.62-.61.65-1.45.1-2.89.25-4.35.43.37.02.74.04,1.1.06-1.24.19-2.5.27-3.75.33-.29.01-.58.07-.87.11Z"/>
      <path class="cls-5" d="M34.59,156.76c.24.4.47.8.71,1.2.64.38.91,1.03,1.23,1.65.04.39.48.76.1,1.18-.02.29-.04.49-.4.21-.3-.23-.56-.88-1-.51-.44.37.13.82.25,1.22.13.45.47.83.68,1.26.31.62.14.88-.52.95-.32.03-.94-.32-.8.52.02.14-.27.12-.42.12-.51,0-1.02,0-1.53,0,.85-.57,1.79-.86,2.8-.96.27-.03.55-.05.26-.41-.67-.84-1.03-1.84-1.4-2.82-.75-1.99-1.99-3.63-3.45-5.15-3.23-3.39-5.8-7.23-7.26-11.71-1.16-3.54-1.55-7.24-2.02-10.92-.37-2.84-.75-5.69-1.03-8.54-.51-5.17-1.66-10.27-1.85-15.47-.11-3.02-.74-5.96-1.1-8.94-.4-3.3-.71-6.62-1.08-9.93-.39-3.55-.8-7.1-1.18-10.65-.35-3.31-.77-6.61-1.13-9.92-.31-2.8-.52-5.61-.79-8.41-.1-.99-.09-2-.33-2.95-.33-1.29-.26-2.65-.74-3.91-.14-.37-.21-.58-.63-.67-.35-.07-.67-.31-1-.48-.17-.07-.38.06-.52-.13-.84-.67-1.71-1.29-2.74-1.64-.3-.22-.63-.35-.99-.43-.07-.03-.13-.07-.19-.12-.34-.23-.66-.47-.96-.75-.24-.46-.7-.53-1.14-.66h0c-1.14-.9-2.56-1.35-3.68-2.29-.22-.18-.41-.35-.44-.64-.05-.53-.09-1.06-.13-1.59,0-.34,0-.68.16-.99.06-.43-.06-.81-.32-1.14.5-.65,1.27-.66,1.97-.8,2.63-.52,5.31-.7,7.93-1.29.4-.09.8-.16,1.16-.35.2-.31.02-.61-.02-.91-.04-.32-.11-.64.32-.76.46.22.55.78.98,1.03.87,1.07,1,2.39,1.14,3.67.16,1.42.23,2.86.33,4.29.17,2.29.38,4.58.69,6.86.26,1.9.41,3.82.61,5.73.22,2.04.52,4.08.7,6.13.25,2.77.6,5.54.95,8.3.52,4.11.81,8.24,1.4,12.34.43,3,.67,6.02,1.04,9.03.41,3.36.82,6.71,1.24,10.07.4,3.2.73,6.4,1.18,9.59.61,4.31,1.16,8.64,1.73,12.95.47,3.51,1.06,7.01,1.53,10.52.62,4.53,2.36,8.59,5.12,12.23.27.36.6.72.56,1.23,1.02,1.24,2.04,2.49,3.21,3.6.29.31.69.53.81.98Z"/>
      <path class="cls-9" d="M65.89,173.81c-2.91.19-5.82.24-8.74.17-.43,0-.87.06-1.28-.12.26-.42.7-.36,1.09-.36,1.38-.01,2.76,0,4.08,0-1.91-.39-3.89-.8-5.89-1.03-3.38-.38-6.73-.99-10.15-1.13-2.04-.09-4.05.06-6.06.19-.3.02-.59.04-.89-.02-.19-.08-.47-.12-.45-.39.02-.24.28-.33.49-.37.92-.17,1.84-.42,2.63-.19.26.06.2-.09.2.02,0,.02-.03.02-.08.01-.54-.05-.86-.45-1.17-.81-.61-.73-1.29-1.37-2.07-1.92-.25-.17-.45-.39-.56-.68-.26-.62,0-1.12.64-1.3.23-.06.49-.03.69-.2,2.89.1,5.79.2,8.68.29,5.06.15,10.13.11,15.19,0,2.52-.06,5.02-.37,7.54-.28.36.27.44.69.47,1.09.13,1.88.44,3.75.38,5.65-.05,1.32-.14,1.42-1.49,1.23-1.09.03-2.19-.11-3.27.14Z"/>
      <path class="cls-11" d="M55.5,158.39c4.46-.18,8.93-.31,13.39-.67,2.86-.23,5.7-.53,8.5-1.2.29-.07.59-.09.88-.13,1.89-.5,3.67.1,5.45.6.45.13.88.33.87.92-.74,1.41-1.29,2.92-2.37,4.14-.28.32-.57.52-1.01.58-2.69.39-5.4.42-8.1.59-5.9.38-11.81.37-17.72.48-.62.01-1.25.06-1.86-.1.06-.22.75-.13.3-.63-.12-.13,0-.43.1-.62.54-1.1.89-2.26,1.24-3.43.06-.22.17-.39.34-.54Z"/>
      <path class="cls-9" d="M69.16,173.67c1.13-.05,1.12-.05,1.14-1.23.05-2.26-.32-4.49-.5-6.74,2.22-.06,4.44-.08,6.66-.2,2.27-.12,4.53-.33,6.79-.5,1.29-.09,2.54.08,3.71.63.44.21.8.52,1.07.96.96,1.57,1.07,3.38,1.46,5.11.12.5-.31.6-.68.75-2.03.8-4.14,1.1-6.32,1.26-3.18.23-6.36.39-9.54.61-1.33.09-2.53-.4-3.78-.65Z"/>
      <path class="cls-16" d="M116.84,118.31c.57-.42.57-.67.84-1.48.51-1.5.28-3.02.31-4.54,0-.24-.16-.68.21-.66.38.01.16.41.15.66-.02.68-.25,1.39.27,2.02.26.31-.02.68-.03,1.02,0,.27-.12.53-.12.8,0,.38,0,.81.5.88.53.07.63-.29.63-.72,0-.16,0-.36.19-.41.22-.06.23.16.32.28.24.33.4.14.53-.1.21-.38.4-.76.69-1.34.25.94.18,1.73-.16,2.37-.58,1.11-.73,2.34-1.21,3.47-.3.69-.82,1.23-1.12,1.92-.13.29-.23.53-.18.83-1.84,3.14-4.12,5.89-7.1,8.04-3.63,2.62-7.69,4.3-11.97,5.51-1.64.46-3.32.78-4.93,1.35-.27.1-.52.15-.77-.03.12-1.29.23-2.59.35-3.88.26-.39.66-.44,1.07-.47,4.72-.33,8.89-2.11,12.54-5.05,2.9-2.33,5.57-4.91,7.52-8.14.34-.56.62-1.14.88-1.74.11-.26.17-.6.57-.59Z"/>
      <path class="cls-9" d="M92.59,264.63c.45,0,.47.19.3.56-.42.9-1.01,1.66-1.77,2.29-1.41,1.18-2.63,2.54-3.9,3.86-1.01,1.04-2.21,1.88-3.43,2.67-1.69,1.09-3.38,2.19-5.07,3.29-.13.09-.29.13-.44.19-.67-.08-1.19.21-1.69.63-.65.55-.83.48-.98-.32-.06-.34-.28-.51-.58-.6-.28-.08-.47.06-.58.31-.3.64-.77.55-1.19.2-.39-.33-.8-.41-1.27-.38-.59.03-1.17.05-1.64-.47-.27-.31-.72-.14-1.09-.18-.65-.06-1.34.16-2-.25.57-.59,1.36-.18,1.9-.58.69-.25,1.41-.1,2.12-.12,1.02.26,2.04.26,3.05-.04.47-.27,1-.15,1.5-.24.82-.15,1.43-.54,1.93-1.17,1.56-1.98,2.31-4.3,2.8-6.73.05-.26.08-.54.15-.79.15-.49-.13-.55-.5-.53,1.57-.2,3.14-.41,4.71-.61,2.56-.33,5.11-.66,7.67-.98Z"/>
      <path class="cls-11" d="M55.5,158.39c-.07,1.17-.53,2.24-.94,3.31-.2.52-.6.96-.51,1.59.06.41-.35.21-.52.32-3.16,0-6.29-.33-9.43-.6-.87-.08-1.77,0-2.59-.42-1.71-.17-3.04-1.2-4.5-1.94-.37-.19-.47-.65-.73-.96-.33-.57-.75-1.09-.97-1.72.26-.25-.19-.48-.01-.73,2.82.3,5.65.49,8.48.47.22-.17.43-.15.63.03,1.59.36,3.22.33,4.83.43,2.08.14,4.17.16,6.26.23Z"/>
      <path class="cls-14" d="M84.58,157.91c-.2-.27-.44-.45-.77-.54-1.82-.5-3.62-1.09-5.55-.97,2.34-.39,3.76-2.13,5.41-3.59,1.91-1.69,3.36-3.71,4.67-5.85.89-1.46,1.52-3.04,2.07-4.64.37-1.1.91-2.05,1.75-2.86.49-.48.88-1.06,1.34-1.64.24.53-.07,1.07.19,1.54-.33,3.09-1.12,6.06-2.36,8.91-1.3,2.99-3.01,5.69-5.43,7.91-.53.49-.99,1.07-1.33,1.73Z"/>
      <path class="cls-16" d="M38.37,165.7c-.1.28-.36.29-.59.38-.73.29-.89,1-.23,1.39,1.12.65,1.89,1.66,2.77,2.55.34.35.79.34,1.29.68-1.38,0-2.57.17-3.75.37-.02,0-.04.02-.07.03.05.05.1.1.15.15-.05.34-.33.41-.59.46-1.54.32-3.02,1.03-4.66.87-.2-.02.12.15.02.24-.05.01-.1.04-.16.04q-1.18.04-1.05-1.12c.16-1.47.36-2.93.94-4.32.32-.77.75-1.42,1.54-1.76,1.46.01,2.91.03,4.37.04Z"/>
      <path class="cls-9" d="M112.13,258.29c-.53.01-1.06-.11-1.61-.02-.45.07-.56-.15-.62-.66-.11-1.04.18-2.08-.12-3.12-.17-.59.4-1.21.17-1.88-.03-.08.13-.15.25-.13.2.02.28.16.28.34,0,.64.29.95.94.94.3,0,.41.22.52.44.22.44.62.37.99.35.38-.02.45-.3.5-.62.09-.59.52-.61.91-.4.37.19.6.2.94-.06.53-.41.83-.04.88.46.06.64.28,1.27.19,1.93-.09.63.16.93.81.83.1.47.21.94.35,1.55-1.51-.81-2.93-.57-4.35-.1-.33.11-.69.13-1.03.18Z"/>
      <path class="cls-9" d="M36.28,159.69c1.32,1.23,3.01,1.8,4.59,2.58.21.1.47.12.64.32-.22.55-.48.42-.87.13-.23-.17-.61-.37-.94-.06-.56.48-1.08-.05-1.63-.05-.62-.49-.9-1.25-1.44-1.81-.12-.37-.23-.74-.35-1.11Z"/>
      <path class="cls-9" d="M82.88,162.75c1.48-1.1,1.93-2.91,3.03-4.33-.22,1.75-1.39,4.06-3.03,4.33Z"/>
      <path class="cls-3" d="M3.73,264.8c0,.1.01.2.02.3-.13.36-.37.63-.76.57-.18-.03-.52-.07-.54-.39-.01-.21-.02-.45.07-.63.11-.22.34-.04.51,0,.24.04.47.1.71.15Z"/>
      <path class="cls-14" d="M38.06,162.61c.55-.33,1.08.09,1.63.05.25.17.63.14.79.57-.87-.08-1.72,0-2.41-.62Z"/>
      <path class="cls-3" d="M70.91,176.12c-.1-.06-.19-.12-.29-.18-.59-.36-1.26-.02-1.87-.31.62,0,1.24-.02,1.86,0,.26.01.59.09.3.49Z"/>
      <path class="cls-3" d="M3.17,263.45c-.34-.17-.38-.37-.35-.69.34.13.42.32.35.69Z"/>
      <path class="cls-16" d="M89.98,31.25c-8.97.46-17.95.13-26.92.1-3.42,0-6.83.02-10.25,0-5.64-.03-11.28.05-16.92.13-7.56.11-15.12.56-22.67.94-.92.05-1.73.31-2.38,1.04-.64.71-1.06.7-1.83.14-1.59-1.15-2.03-2.32-1.54-4.06.39-1.38,1.77-2.48,3.43-2.53,3.36-.1,6.73-.02,10.08-.2,13.57-.71,27.15-.92,40.74-.89,8.87.02,17.74.16,26.59.53,4.55.19,9.1.42,13.63.89.56.06,1.14.03,1.71.04.41.09.49.3.22.62-.26.31-.65.39-1.02.45-3.21.52-6.35,1.35-9.46,2.28-1.12.34-2.28.3-3.4.53Z"/>
      <path class="cls-9" d="M74.7,12.56c1.96.2,3.92.41,5.86.77,3.61.68,7.08,1.87,10.56,3.02.99.33,1.95.84,2.84,1.38,1.58.96,3.25,1.71,4.89,2.55,1,.51,1.88,1.17,2.72,1.89.9.78,1.78,1.59,2.63,2.41.25.24.43.56.57.88.1.24.12.55-.1.77-.21.21-.39-.04-.58-.08-1.48-.35-2.98-.54-4.49-.54-2.79,0-5.59-.03-8.36-.23-3.46-.25-6.91-.4-10.37-.5-2.11-.07-4.22-.01-6.33-.12-.48-.18-.63-.57-.63-1.03-.02-2.45-.06-4.91.03-7.36.03-.8.27-1.58.87-2.21.62-.65.6-.67-.04-1.35-.06-.06-.06-.15-.05-.23Z"/>
      <path class="cls-16" d="M48.77,12.56c3.74-.55,7.51-.5,11.28-.52.8.51.54,1.39.61,2.09.19,2.04.27,4.1.39,6.15.06.91.12,1.83.26,2.74.16,1.05-.08,1.33-1.12,1.32-2.33-.02-4.66.06-6.98-.04h-.64c-2.29.1-4.58.02-6.87.05-.32,0-.65-.05-.96.05-2.06,0-4.12,0-6.18,0-.21-.16-.33-.36-.32-.62.03-1.02-.1-2.05.15-3.06.24-.99.2-2.03.54-3.02.23-.66.4-1.34.77-1.94.24-.42.66-.62,1.07-.83,2.28-1.16,4.72-1.78,7.24-2.14.26-.04.54-.04.76-.22Z"/>
      <path class="cls-9" d="M53.21,24.3c2.3,0,4.6-.04,6.9.02.8.02.98-.28.89-.99-.42-3.52-.48-7.06-.77-10.58-.02-.25-.04-.48-.17-.7,2.81-.33,5.61.1,8.42.03,2.08-.05,4.15.25,6.22.47.52.15.97.4,1.34.84-1.24.79-1.84,1.92-1.83,3.39.01,2.27,0,4.54,0,6.81,0,.42.04.81.32,1.13-3.92-.1-7.83-.22-11.75-.29-2.87-.05-5.74-.03-8.61-.04-.32,0-.65.06-.96-.1Z"/>
      <path class="cls-1" d="M48.77,12.56c-.06.48-.48.36-.76.42-1.95.43-3.89.87-5.76,1.59-.83.32-1.62.73-2.36,1.23-.45.48-1.09.58-1.65.84-.85.41-1.71.82-2.51,1.32-.25.16-.54.29-.73.51-.73.85-1.52,1.58-2.5,2.19-.94.58-.96,1.88-1.33,2.89-.13.35.19.38.44.39.51.02,1.03-.02,1.54.03.3.03.68-.02.71.46-.16,0-.33,0-.49,0-.97.19-1.96-.04-2.94.12-4.13.25-8.27.46-12.4.83-.34.03-.83.25-1.03-.18-.18-.39.21-.69.47-.95,2.95-2.9,6.19-5.38,10.08-6.94,3.31-1.33,6.62-2.68,10.1-3.52,3.65-.88,7.39-1.01,11.11-1.24Z"/>
      <path class="cls-9" d="M57.41,33.35c.6-.22,1.23-.12,1.85-.11,3.01.02,6.02.17,9.02.07,5.72-.19,11.43.17,17.15.05,1.95-.04,3.9-.1,5.85-.15.79-.19,1.56.01,2.33.09.14.01.28.02.33.18.05.18-.06.32-.21.4-.39.2-.8.36-1.22.41-.72.1-1.45.32-2.15.34-2.33.07-4.61.54-6.92.74-1.28.11-2.54.47-3.82.68-.8.13-1.61.23-2.41.33-.41.15-.59.58-.95.8-2.32.75-4.63,1.46-7.07,1.78-1.36.18-2.76.15-4.08.59-3.5.07-6.99.04-10.49.02-.59,0-1.18-.16-1.78-.17-.27,0-.53-.11-.65-.4.23-.45.67-.41,1.06-.4,1.56.04,3.12.22,4.68.16,1.04-.04,1.11-.08,1.12-1.1,0-1-.02-2,0-2.99.02-.64-.21-.97-.88-.94-.3.01-.59-.05-.77-.35Z"/>
      <path class="cls-16" d="M57.41,33.35c.11.01.21.03.32.03q1.66.05,1.66,1.68c0,1.08-.03,2.16.01,3.24.02.61-.22.76-.8.79-2.13.09-4.25-.26-6.39-.16-.27.35-.67.32-1.04.31-1.56-.01-3.12.08-4.67-.26-.86-.19-1.77-.04-2.66-.06-.46,0-.92-.01-1.33-.26-.19-.1-.38-.19-.53-.34-.27-.3-.33-.67-.33-1.05,0-.89,0-1.78,0-2.67,0-.42.06-.81.46-1.06.74-.23,1.5-.13,2.25-.13,4.35-.03,8.7-.04,13.05-.06Z"/>
      <path class="cls-16" d="M54.84,10.1c-2.59.14-5.18.26-7.77.44-.67.04-.9-.17-.95-.83-.08-1.24-.13-2.48.07-3.72.13-.78.46-1.43,1.1-1.91.39.11.42.45.49.76.1.47.16.96.41,1.52,1.12-2.08,3.12-2.99,4.96-4.1.97-.23,1.97-.12,2.95-.16,1.07-.14,2.15-.02,3.23-.06.5-.02.62.3.71.71.22,1.03.2,2.09.3,3.14.1,1.02.19,2.04.26,3.06.06.91-.04,1.05-.93,1.07-1.62.04-3.23-.1-4.85.08Z"/>
      <path class="cls-9" d="M76.82,36.03c5.65-.78,11.3-1.56,16.95-2.33,0-.07,0-.15,0-.22-.81-.18-1.64-.25-2.48-.28.54-.29,1.13-.19,1.67-.12,1.3.18,2.59.07,3.88.13,2.07.1,4.14.23,6.22.35.1,0,.2.07.3.11-.43.49-.98.37-1.5.24-.32-.08-.62-.15-.91-.13-.14,0-.01-.13-.04-.03,0,.02.01.04.06.03.68-.1,1.03.23,1.06.89.03.6.26,1.01.8,1.37.74.49,1.02,1.29.87,2.2-.46.28-.97.4-1.48.54-.16.23-.4.37-.67.41-1.08.16-2.15.43-3.25.28-.28-.04-.56-.1-.5-.48.07-.44-.22-.5-.53-.53-.32-.04-.65-.03-.97-.02-1.14.04-2.27-.14-3.4-.14-1.67,0-3.35.19-5.03.16-.05,0-.11.02-.16.02-.32,0-.75.08-.78-.34-.03-.33.35-.47.65-.49.46-.04.9-.17,1.35-.25-3.18-.1-6.28.83-9.46.72-.57-.02-1.12.18-1.7.16-1.04-.04-1.38-.44-1.12-1.46.06-.26.02-.54.18-.77Z"/>
      <path class="cls-16" d="M54.84,10.1c.42-.28.9-.14,1.35-.15,1.19-.03,2.38-.03,3.58-.02.46,0,.63-.14.58-.62-.22-2.17-.43-4.35-.61-6.53-.04-.5-.21-.65-.69-.64-.97.01-1.95-.02-2.92-.03,1.37-.21,2.75-.12,4.13-.08,2.62.06,5.25.17,7.85.58,2.28.36,3.64,1.77,4.02,4.03.19,1.14.07,2.27-.04,3.4-.04.4-.22.63-.69.57-5.17-.62-10.37-.58-15.57-.48-.32,0-.65-.02-.97-.02Z"/>
      <path class="cls-9" d="M89.98,31.25c4.15-1.04,8.23-2.37,12.47-3.06.37-.06.75-.12,1.1-.25.28-.1.47-.31.1-.56,1.43-.39,2.85-.09,4.27.02.68.06,1.29.43,1.72.99,1,1.31,1.06,2.8.71,4.33-.11.5-.37.75-.93.4-2.01-1.27-4.25-1.42-6.56-1.37-2.41.05-4.82.02-7.24,0-1.5-.01-2.97-.31-4.44-.53-.39-.06-.8.02-1.21.03Z"/>
      <path class="cls-16" d="M42.11,33.54c-.18,1.57-.24,3.15.04,4.71-.3.38-.72.34-1.12.28-2.94-.44-5.9-.77-8.76-1.61-2.36-.69-4.66-1.57-7.04-2.19-.13-.03-.26-.08-.38-.15-.28-.15-.69-.29-.59-.66.08-.28.48-.11.73-.13.56-.05,1.13.06,1.69-.06,4.87.01,9.73-.34,14.6-.23.27,0,.54.03.81.04Z"/>
      <path class="cls-14" d="M33.85,24.44c-.84-.33-1.71-.11-2.57-.14-.59-.02-.71-.21-.51-.73.29-.76.55-1.53.85-2.29.29-.75.8-1.28,1.64-1.4.25-.04.49-.11.58-.38.38-1.19,1.44-1.66,2.4-2.18,1.15-.63,2.3-1.33,3.65-1.51.19.45-.29.65-.39,1-.71,2.48-1.05,5.01-.95,7.59-1.57.01-3.13.03-4.7.04Z"/>
      <path class="cls-9" d="M26.7,33.73c-.74.24-1.53.03-2.35.16.28.33.61.4.9.47,2.59.68,5.08,1.68,7.66,2.37,2.79.76,5.66,1.11,8.52,1.52.24.03.48,0,.73,0,.1.05.21.11.31.16.26.54.32,1.14.37,1.73.03.34-.04.65-.36.84-.18.08-.37.08-.56.04-3.5-.8-7.11-1.04-10.56-2.11-.41-.13-.83-.25-1.24-.37-.43-.17-.86-.34-1.32-.37-.14-.01-.28-.02-.39-.11-1.91-1.59-4.28-1.96-6.59-2.49-.5-.11-1.02-.18-1.5-.34-.27-.09-.6-.13-.63-.53.27,0,.54-.01.81-.03.17,0,.4-.06.39-.22-.1-1.13.75-.72,1.24-.73,1.53-.04,3.06,0,4.59.01Z"/>
      <path class="cls-9" d="M19.68,34.7c1.28.53,2.67.61,4,.94,1.56.39,3.14.85,4.43,1.71.67.45,1.38.51,2.01.87-.19.29-.49.33-.78.29-1.62-.2-3.27.06-4.87-.29-1.84-.5-3.74-.53-5.61-.76-2.01-.25-4.03-.44-6.05-.66-.4-.16-.5-.51-.59-.89-.09-.39-.12-.79-.35-1.14-.04-.09-.03-.16.04-.23,2.19-.68,4.39-.36,6.58-.06.4.05.8.14,1.2.21Z"/>
      <path class="cls-16" d="M103.7,38.24c-.22-.29-.28-.63-.37-.97-.12-.44-.26-.99-.74-1.07-.85-.15-.88-.82-.86-1.36.03-.84-.35-1.02-1.05-.99-.2,0-.43.08-.73-.25,1.22.03,2.32.18,3.41.08.48.05.96.01,1.42.2.7.94.5,2.03.5,3.08-.18.85-.69,1.29-1.58,1.29Z"/>
      <path class="cls-14" d="M53.17,2.27c.03.07.36.02.05.22-.94.59-1.84,1.23-2.78,1.81-.85.53-1.49,1.24-1.92,2.14-.08.16-.1.43-.32.41-.25-.02-.31-.27-.36-.48-.18-.76-.36-1.52-.53-2.28.65-.85,1.6-1.17,2.57-1.41,1.08-.26,2.17-.42,3.29-.41Z"/>
      <path class="cls-9" d="M11.9,34.56c0,.05-.01.1-.01.15-.2.65-.78.72-1.3.71-.42,0-.84-.19-1.23-.2.84-.14,1.2.45,1.47,1.14.24.62.92,1.12.55,1.91-.23.25-.2.56-.11.83.1.33.03.57-.21.79-.29-1.66-1.37-2.88-2.27-4.21-.01-.45.08-.78.66-.69.86.14,1.64-.27,2.45-.44Z"/>
      <path class="cls-9" d="M44.74,24.4c1.01-.21,2.04-.09,3.06-.11,1.59-.02,3.18,0,4.77,0-.63.22-1.28.1-1.92.1-1.97.02-3.94,0-5.9,0Z"/>
      <path class="cls-14" d="M30.43,24.56c.97-.32,1.95-.2,2.94-.12-.98.15-1.96.14-2.94.12Z"/>
      <path class="cls-2" d="M112.32,51.7c-.28-.09-.56-.18-.84-.27.11-.43.39-.23.64-.18.26.05.52.02.59-.27.08-.32-.23-.26-.4-.36-.83-.49-1.78-.3-2.66-.44-.85-.14-1.67-.36-2.52-.51-.2-.03-.41-.08-.18-.35,2,.61,4.1.61,6.13,1.1,3.8.91,6.48,3.79,7.03,7.33.44,2.85.44,5.72.4,8.59-.04,3.39-.16,6.77-.28,10.16-.31,8.69-.88,17.37-1.63,26.03-.39,4.56-.83,9.11-1.28,13.67-.07.72-.32,1.42-.48,2.13-1.59,4.2-4.73,7.19-7.96,10.07-2.94,2.62-6.41,4.26-10.21,5.26-1.45.38-2.95.36-4.41.64-.07-.57-.02-1.13.27-1.64.59.02,1.1-.12,1.4-.7.03-.06.16-.53.41-.11-.25.55.11.51.46.47,1.89-.22,3.74-.66,5.46-1.49,4.45-2.13,8.08-5.21,11.03-9.2,1.93-2.62,2.69-5.48,2.94-8.61.27-3.42.61-6.84.88-10.26.27-3.56.49-7.13.73-10.69.12-1.86.23-3.73.34-5.59.04-1.15.07-2.28-.12-3.45-.17-1.07.03-2.21.14-3.31.12-1.13.16-2.27.24-3.4.24-3.48.23-6.97.22-10.46,0-1.54.15-3.08.16-4.62.01-1.07-.13-2.1-.42-3.11-.15-.5-.13-1.01-.06-1.51-.02-.1-.04-.19-.07-.29-.35-.22-.41-.63-.61-.95-.05-.06-.11-.12-.16-.19-.77-.5-1.37-1.14-1.78-1.96-.37-.51-.94-.7-1.49-.94-.24,0-.43-.12-.62-.25-.3-.61-.84-.29-1.29-.34Z"/>
      <path class="cls-14" d="M7.95,253.58c-.39-.1-.74-.27-1.1-.47-.51-.28-1.04-.58-1.67-.54.85-4.74,1.74-9.47,2.7-14.19,1.63-8.01,3.1-16.05,4.81-24.04,1.89-8.86,3.97-17.67,5.98-26.5.85-3.75,2.4-7.17,4.95-10.09.12-.14.27-.26.41-.39.26.36.17.75-.02,1.08-.81,1.38-1.03,2.91-1.32,4.46-.25,1.34-.57,2.7-.97,4.01-1.19,3.99-1.89,8.1-2.85,12.14-1.11,4.68-2.23,9.36-3.16,14.08-.53,2.7-1.08,5.4-1.57,8.11-.67,3.66-1.43,7.31-2.05,10.98-.61,3.65-1.56,7.23-2.12,10.89-.5,3.23-1.34,6.39-1.92,9.6-.05.29-.08.59-.12.88Z"/>
      <path class="cls-7" d="M47.03,243.97c-2.1.26-4.2.57-6.3.19-3-.54-5.89-1.4-8.33-3.35-.14-.11-.33-.18-.49-.26-1.83-1.82-3.55-3.73-4.7-6.08-4.35-8.89-1.34-18.31,6.37-23.84,6.43-4.62,15.17-3.64,20.84,1.23.3.26.61.5.91.76.74.07,1.1.67,1.47,1.18,1.31,1.8,2.48,3.68,3.18,5.82.07.21.15.41.23.61.64,1.89.89,3.85.95,5.83.08,2.4-.32,4.75-1.24,6.98-1.36,3.29-3.43,6.05-6.27,8.23-1.68,1.29-3.54,2.17-5.57,2.72-.35.09-.69.15-1.03,0Z"/>
      <path class="cls-4" d="M47.03,243.97c2.61-.67,5.03-1.69,7.08-3.49,4.57-4.02,7.01-8.98,6.67-15.17-.1-1.74-.43-3.43-.87-5.1.08-.33-.03-.64-.13-.94-.09-.26-.06-.49.17-.65.23-.17.46-.09.69.02,0,0,.04,0,.07.04,1.04,1.31,2.5,2.29,2.78,4.16.52,3.38.44,6.74-.07,10.1-.11.74-.35,1.47-.37,1.86.36-1.59.67-3.57.99-5.55.08-.49.1-.97.07-1.46-.16-2.65-.38-5.29-1.43-7.77-.12-.29-.4-.7.14-.94.71.97,1.42,1.94,2.12,2.92.16,1.85.41,3.7.47,5.56.08,2.85-.69,5.49-1.86,8.1-1.98,4.45-5.45,7.19-9.76,9.03-1.72.73-3.58.98-5.47.91-.68-.02-1.35-.03-2.03,0-.53.02-.77-.27-.79-.72-.03-.48.4-.5.74-.58.29-.07.69.12.81-.34Z"/>
      <path class="cls-8" d="M49.09,196.57c-3.04,1.83-6.79.49-7.61-2.72-.51-2.01.64-4.35,2.58-5.28,1.96-.93,4.28-.33,5.66,1.46.06.08.13.17.19.25.71.45.76,1.25.88,1.92.23,1.24.04,2.47-.64,3.59-.25.4-.54.75-1.06.77Z"/>
      <path class="cls-14" d="M62.81,219.08c-.17.79.46,1.34.64,2.03.62,2.34,1.07,4.71.95,7.11-.09,1.89-.24,3.82-.97,5.63-.2.51-.19,1.11-.3,1.66-.06.28-.16.55-.25.83-.07-.01-.13-.03-.2-.04.11-.98.15-1.98.35-2.95.59-2.97.5-5.97.38-8.96-.04-.98-.22-2.04-.71-2.97-.38-.73-1.25-1.01-1.55-1.8-.04-.1-.15-.16-.2-.25-.21-.32-.43-.78-.83-.64-.48.17,0,.61-.07.93-.03.18,0,.38-.14.54-1.02-2.84-2.48-5.41-4.59-7.59.07-.16.16-.32.35-.25.81.27,1.6.56,2.11,1.32.69.5,1.12,1.32,1.94,1.66,1.2,1.11,2.21,2.37,3.09,3.74Z"/>
      <path class="cls-14" d="M49.09,196.57c1.84-1.89,1.86-4.02.82-6.28,1.08.35,1.05,1.35,1.18,2.18.13.76-.13,1.61,0,2.33.18,1-.32,1.52-.84,2.11-.27.31-.59.64-1.04.48-.44-.16.19-.58-.12-.81Z"/>
      <path class="cls-4" d="M59.72,215.34c-.02.17-.12.26-.25.12-.57-.59-1.24-1.08-1.69-1.79.79.39,1.3,1.11,1.94,1.66Z"/>
      <path class="cls-6" d="M103.03,239.59c.5,2.97-3.04,5.9-5.23,6.67-1.53.54-3.11.66-4.71.67-.29.27-.62.15-.91.04-2-.75-3.79-1.84-5.26-3.41-.31-.33-.61-.7-.5-1.22-.51-1.35-.82-2.74-.94-4.17-.16-1.99.45-3.78,1.63-5.39.16-.22.3-.44.45-.67.29-.64.78-1.09,1.36-1.46,3.96-2.52,8.82-1.78,11.84,1.81,1.25,1.89,2.2,3.9,2.43,6.2.03.33.07.65-.17.92Z"/>
      <path class="cls-6" d="M93.87,202c.41.21.84.16,1.27.07,1.2-.24,2.06.08,2.59,1.14.6,1.2.92,2.48.87,3.83-.02.63-.59,1.23-1.21,1.31.13.2.33.38.38.59.11.46.09.89-.58.86-.51-.02-1.03.04-1.49-.27-.66-.44-1.26-.31-1.79.26-.25.33-.62.31-.96.31-.65.02-1.3,0-1.95,0-1.25.02-1.83.9-1.34,2.08.39.95,1.15,1.4,2.14,1.48.48.04.97.03,1.46-.06.37-.07.75-.15,1.11.05,1.05.33,2.02-.16,3.07-.26-.68.53-1.37,1.06-2.05,1.59-1.23.44-2.5.34-3.77.32-1.88-.03-3.13-1.04-3.5-2.87-.15-.77-.19-1.58.08-2.33.34-.94.27-1.84.05-2.78-.31-1.32-.35-2.62.28-3.88.48-.98,1.19-1.57,2.35-1.52,1,.05,2,.04,3,.05Z"/>
      <path class="cls-9" d="M86.42,242.34c1.61,2.42,3.96,3.77,6.67,4.59.67.47,1.09,1.09,1.14,1.93.02.39-.14.46-.5.31-.69-.29-1.4-.54-2.1-.8-1.16-.64-2.49-.8-3.71-1.26-.53-.19-.78-.64-1.23-.86-.71-.35-1.51-.56-2-1.3-.22-.33-.35-.58-.31-1.01.09-.99.21-1.97.42-2.94.05-.24-.1-.66.31-.6.26.04.73.3.6.64-.25.66.5.91.45,1.45.09-.05.18-.09.27-.14Z"/>
      <path class="cls-14" d="M100.56,232.53c-1.35-1.23-2.79-2.28-4.6-2.75-3.26-.85-6,.12-8.4,2.34-.28-.3.04-.47.17-.64.86-1.16,2.02-1.94,3.35-2.48.25-.1.49-.21.74-.31,2.28-.74,4.48-.46,6.65.44.57.23.99.63,1.45.99.56.37,1.09.78,1.09,1.55,0,.36-.06.7-.45.86Z"/>
      <path class="cls-9" d="M74.34,275.69c.1.02.24,0,.31.07.11.1,0,.23-.09.22-1.07-.04-2.15.35-3.21-.11-.04-.02-.04-.09-.06-.14,1.02-.01,2.04-.03,3.05-.04Z"/>
      <path class="cls-6" d="M69.81,266.75c.25-.57.78-.36,1.13-.3.89.17,1.78.08,2.66.15-1.26.2-2.53.16-3.8.14Z"/>
      <path class="cls-16" d="M98.5,75.35c-.42,3.36-.85,6.71-1.26,10.07-.49,4-1.03,8-1.4,12.02-.25,2.67-.66,5.32-1.02,7.97-.54,3.97-.99,7.95-1.42,11.94-.61,5.68-1.19,11.38-2.48,16.95-1,4.33-2.92,8.25-5.92,11.6-1.41,1.57-2.84,3.12-4.38,4.57-2.07,1.94-4.59,3.16-7.17,4.21-4.08,1.66-8.39,2.11-12.76,1.85-1-.06-2.05-.1-2.93-.72-.55-.47-.27-.91.03-1.36.79-1.49,1.28-3.11,1.99-4.64.2-.44.32-.93.92-1,.75-.67,1.27-1.53,1.81-2.36,2.01-3.08,3.46-6.44,5.1-9.71,2.9-5.77,5.52-11.66,7.85-17.69,1.23-3.18,2.28-6.44,3.21-9.73.82-2.87,1.67-5.72,2.28-8.65.06-.27.2-.5.33-.74.65-1.43,1.02-2.96,1.57-4.43.73-1.95,1.28-3.97,2.12-5.88.24-.29.3-.66.47-.99-.11.23-.23.45-.31.69-.39.44-.28,1.23-1.02,1.43-.51-.23-.41-.67-.3-1.05,1.12-3.72,1.89-7.58,4.19-10.84.2-.28.21-.61.3-.92.39-.48.91-.75,1.52-.86.35-.06.68-.18,1-.33,1.4-.5,2.88-.71,4.32-1.03.84-.19,1.69-.33,2.49-.67.29-.12.82-.49.86.3Z"/>
      <path class="cls-11" d="M58.09,154.62c-.44.3-.55.7-.34,1.19-.79-.33-1.67-.08-2.47-.34-.14-.31-.29-.14-.45-.01-.43,0-.87.01-1.3.01-1.78,0-3.57-.11-5.34.25-1.37.28-2.72-.2-4.09-.18-.2,0-.35-.33-.63-.31-.23.04-.47.14-.62-.15-.19-.21-.43-.31-.72-.29-.06.06-.09.04-.1-.03-.46-.33-1.01-.45-1.53-.61-.05.05-.09.05-.11-.03l-2.17-1.26c-.66-.04-1.07-.39-1.29-.99-.57-.73-1.24-1.37-1.93-1.97h0c-.87-1.19-1.74-2.38-2.62-3.57-.51-.2-.67-.7-.88-1.12-.92-1.77-1.42-3.69-2.01-5.57-.94-3-1.6-6.07-2.04-9.19-.32-2.25-.81-4.48-1.13-6.73-.28-1.96-.59-3.9-.97-5.84-.05-.27-.07-.54.01-.8.37-.57.26-1.19.23-1.81-.02-.43-.17-1.1.42-1.12.52-.02.48.63.49,1.05.06,1.54,1.01,2.79,1.25,4.37.41-.46.33-.98.71-1.25.48.08.45.48.49.81.19,1.64.26,3.29.48,4.93.28,1.98.55,3.97.72,5.97.12,1.4.24,2.79.38,4.19-.01-.62-.05-1.24-.22-1.84-.11-.4-.11-.82-.03-1.21.27-1.4.11-2.81.14-4.22.08-3.36.03-6.73.73-10.03.9-4.22,2.2-8.33,3.64-12.39,1.32-3.74,2.99-7.33,4.63-10.93,1.25-2.74,2.43-5.51,3.74-8.21.73-1.51,1.39-3.06,2.29-4.49.33-.53.67-1.05,1.26-1.35.66-.34,1.37-.42,2.11-.44,1.59-.05,3.17.14,4.76.18.51.01.88.21,1.09.68.04.09.07.19.07.29,0,.63,0,1.25,0,1.88,0,.23,0,.45,0,.68-.05.8-.4,1.51-.73,2.22-1.69,3.56-3.87,6.84-5.92,10.19-2.21,3.63-4.37,7.3-6.3,11.1-2.43,4.77-4.66,9.61-6.53,14.61-1.49,4-2.54,8.12-3.02,12.37-.15,1.34-.28,2.7-.21,4.06.06,1.13-.27,2.26,0,3.4.24,1.08.54,2.13.91,3.25.34-.29.36-.61.39-.88.53-4.96,2.18-9.6,3.96-14.21,1.53-3.95,3.42-7.74,5.42-11.47.94-1.74,1.75-3.55,2.82-5.22.21-.33.36-.75.86-.78.08.03.14.08.21.12.36.26.68.81,1.14.63.57-.22,1.12-.62,1.36-1.22.54-1.37,1.56-2.32,2.62-3.24.14-.12.36-.2.41-.38.27-.96,1.24-.96,1.9-1.36.34-.21.5.09.55.37.11.59.12,1.19-.01,1.78-.13.54-.57.67-1.05.73-1.18.15-1.32.31-1.24,1.49.03.48-.15.82-.52,1.12-.39.3-.52,1.23-.31,1.78.2.52.66.38,1.05.39,1.08.04,1.47.41,1.5,1.49.02,1,.05,2.01-.04,3.01-.04.44.08.75.4,1.08.88.87.9,2.59.09,3.5-.72.81-.77,1.4-.19,2.04.21.53-.09.96-.32,1.37-1.8,3.25-3.24,6.68-4.78,10.05-1.89,4.11-3.46,8.36-4.44,12.8-.13.61-.29,1.22-.2,1.85.03.2,0,.47.26.55.2.06.34-.13.48-.25.82-.72,1.52-1.55,2.06-2.49.23-.4.45-.81.91-1,.77-.13,1.11-.73,1.38-1.33.21-.46.46-.79.94-.92.31-.08.49-.31.71-.51.44-.4.7-.34.87.22.15.52.22,1.06.25,1.6.05.93.25,1.09,1.14,1.02,1.13-.09,1.53.25,1.6,1.39q.07,1.09,1.12,1.28.58.11,1.27.63c.13-.06.19-.19.26-.3.28-.43.65-.71,1.15-.4.46.29.39.73.15,1.15-.32.57-.51,1.19-.72,1.81-.15.43-.16.9-.28,1.34Z"/>
      <path class="cls-1" d="M25.59,117.03c.24,1.54.48,3.08.73,4.62.39,2.39.83,4.78,1.18,7.18.55,3.71,1.21,7.4,2.37,10.96.72,2.21,1.38,4.46,2.52,6.52-.02.19.01.42-.17.52-1.01.57-.2.78.21,1.02.91.55,1.65,1.14,1.54,2.4-.04.5.13,1.12.47,1.58.36.48.15.75-.31.91-.43.14-.75.33-.95.79-.18.4-.8.31-.99-.13-.15-.35-.31-.67-.56-.96-.31-.37-.62-.48-1.05-.26-3.01-3.61-5.06-7.67-5.82-12.33-1.27-7.78-2.26-15.59-3.31-23.4-.85-6.31-1.58-12.63-2.34-18.95-.82-6.83-1.66-13.66-2.36-20.5-.59-5.77-1.36-11.51-1.97-17.28-.57-5.36-1.29-10.71-1.59-16.09-.03-.62-.11-1.24-.19-1.86-.13-.91-.41-1.76-.97-2.51-.3-.61-.1-1.22.03-1.82.07-.32.3-.51.67-.38.47.92,1.29,1.36,2.25,1.62.26.07.5.19.68.41.43,1.32.77,2.69.75,4.05-.02,2.05.42,4.04.59,6.06.33,3.86.98,7.68,1.58,11.5.66,4.22,1.2,8.47,1.89,12.69.08.48.06.97.13,1.46.01.95.36,1.87.34,2.82.63,3.05.93,6.16,1.29,9.24.26,2.26.53,4.51.78,6.77.23,2.12.5,4.24.79,6.36.32,2.28.55,4.57.8,6.85.24,2.1.56,4.18.83,6.27.17,1.27.34,2.57.15,3.86Z"/>
      <path class="cls-1" d="M98.3,39.24c1.32,0,2.61-.36,3.92-.46.54.61.57,1.29.54,2.1-.14,3.06-.81,6.04-1.26,9.05-.38,2.58-.76,5.17-1.16,7.76-.21,1.38-.24,2.79-.41,4.19-.27,2.17-.48,4.34-.75,6.51-.1.82.06,1.69-.41,2.46-.33.26-.66.15-.98,0-1.35-.64-2.76-.99-4.25-1.01-.27,0-.53-.05-.76-.21-.35-.4-.27-.87-.17-1.31.86-4.03,1.43-8.12,2.52-12.09.59-2.14,1.23-4.27,1.74-6.43.81-3.38,1.25-6.81,1.33-10.29.01-.09.05-.17.11-.24Z"/>
      <path class="cls-14" d="M92.77,69.5c1.91-.13,3.7.25,5.38,1.18.18.1.41.11.61.17-.05,1.5.16,3.02-.27,4.5-.08-.21-.2-.33-.43-.19-1.06.66-2.3.72-3.47,1-1.25.31-2.52.56-3.78.84-.34-.14-.8.41-1.02-.1-.18-.42.22-.74.47-1.06,1.09-1.39,1.44-3.07,1.82-4.73.1-.44.27-.88.29-1.34.07-.17.15-.33.38-.27Z"/>
      <path class="cls-1" d="M36.94,151.86c.43.33.86.66,1.29.99-.67.7.08,1.01.4,1.43.17.21.67.18.52.59-.14.4-.56.23-.86.23-.91,0-1.16-.29-1.02-1.36.06-.48.12-.85-.39-1.14-.36-.21-.35-.52.04-.75Z"/>
      <path class="cls-1" d="M41.67,156.41c-1.12,0-2.24-.01-3.36,0-.66.01-1.34-.13-1.96.27-.16.11-.5.07-.7-.03-.33-.16-.43-.51-.25-.83.18-.32.41-.12.6.04.15.13.31.2.51.2,1.65,0,3.3.02,4.95.03.07,0,.14.06.21.09,0,.07,0,.15,0,.22Z"/>
      <path class="cls-1" d="M36.27,151.74c-.53.17-.88.19-1.06-.28-.07-.18-.11-.46.1-.48.46-.03.62.41.96.76Z"/>
      <path class="cls-1" d="M35.47,153.3c-.2,0-.44.03-.42-.23.01-.25.26-.36.47-.32.24.05.67-.02.66.28-.01.43-.49.12-.7.27Z"/>
      <path class="cls-1" d="M40.4,154.11s.08,0,.11.03c-.06.2.47.47-.05.62-.2.06-.47.08-.54-.19-.11-.4.22-.41.48-.46Z"/>
      <path class="cls-1" d="M42.05,154.75s.07,0,.1.03c-.02.21-.17.33-.3.46-.12.12-.26.23-.41.09-.09-.08-.18-.23-.16-.34.02-.2.23-.18.38-.2.13-.01.27-.02.4-.04Z"/>
      <path class="cls-1" d="M38.27,157.32c.2-.31.45-.48.8-.33.05.02.1.16.08.2-.22.38-.57.1-.88.14Z"/>
      <path class="cls-1" d="M35.01,149.89c-.01.11-.02.21-.03.32-.03.22-.15.35-.38.3-.08-.02-.19-.12-.21-.21-.06-.23.07-.35.3-.38.11-.01.21-.02.32-.03,0,0,0,0,0,0Z"/>
      <path class="cls-11" d="M54.84,155.45c.21-.56.63-.28,1.03-.29-.1.39-.4.22-.58.3-.15,0-.3,0-.45-.01Z"/>
      <path class="cls-1" d="M44.41,157.73c-.21,0-.42-.02-.63-.03.03-.21-.09-.56.24-.57.33,0,.27.39.4.6Z"/>
      <path class="cls-1" d="M42.86,155.07c.21.02.43,0,.62.15-.18.24-.46.28-.7.19-.42-.18-.09-.25.08-.33Z"/>
      <path class="cls-1" d="M34.59,156.76c-.27-.33-.54-.65-.81-.98.37.24.87.38.81.98Z"/>
      <path class="cls-9" d="M107.58,243.81c.48,3.11,1.03,6.22,1.37,9.35.04.38.02.61-.34.79-2.06,1-4.17,1.88-6.42,2.38-1.84.42-3.66.93-5.54,1.16-1.01.13-2.03.14-3.04.26-.61.07-.58-.46-.45-.87.2-.63.63-1.13,1.07-1.61,1.32-1.42,2.93-2.54,4.3-3.9,1.18-1.17,2.38-2.34,3.33-3.73,1.29-1.87,2.41-3.83,3.47-5.84.31-.58.25-1.21.48-1.78.11-.27.09-.73.61-.46.54.38.45,1.01.58,1.54.22.89.38,1.79.56,2.69Z"/>
      <path class="cls-9" d="M100.56,232.53c.42-.97.04-1.73-.64-2.41.04-.03.11-.09.13-.08,1.65.86,3.11,1.97,4.2,3.49.26.36.65.67.71,1.16.39,1.64-.08,3.21-.36,4.8-.06.36-.33.55-.62.2-.31-.38-.63-.17-.96-.1-.19-2.34-.95-4.49-2.2-6.47-.11-.18-.18-.38-.27-.58Z"/>
      <path class="cls-16" d="M94.35,213.67c-1.18.44-2.39.45-3.58.11-1.31-.38-2.01-2.12-1.41-3.33.22-.44.6-.59,1.06-.64,1.16-.13,2.32-.09,3.48-.01.55.93.32,1.99.47,2.99.04.29-.01.59-.02.89Z"/>
      <path class="cls-1" d="M32.73,172.82c-.17-.2-.46-.08-.8-.29,2.16-.18,4.08-.79,6.03-1.28,8.06-.88,15.91.58,23.76,2.08.19.04.45.02.52.39-2.12.32-4.25.07-6.36.14-7.72-.07-15.44-.41-23.14-1.04Z"/>
      <path class="cls-16" d="M11.17,51.35c-1.79-1.18-3.47-2.28-5.14-3.4-1.16-.78-2.3-1.59-3.45-2.39-.2-.14-.39-.3-.54-.49-.61-.78-.47-1.26.48-1.42,2.42-.41,4.86-.76,7.29-1.15.6-.1.8.12.89.69.29,1.72.14,3.46.33,5.18.1.93.27,1.87.13,2.98Z"/>
      <path class="cls-14" d="M12.67,37.14c-.25.01-.42.11-.4.39.05.6-.16,1.16-.24,1.74-.33-.26-.57-.58-.65-1-.2-1-.9-1.76-1.27-2.68-.16-.41-.63-.16-.95-.35.95.02,1.89,0,2.72-.53.33-.03.45.13.5.45.07.49.2.98.3,1.47.13.17.15.35-.02.51Z"/>
      <path class="cls-9" d="M42.46,40.88c.29-.56-.03-1.09-.08-1.63-.03-.29-.15-.57.08-.83,3.25.2,6.49.57,9.75.51,1,.24,2.03.26,3.05.27,3.32.03,6.65.02,9.98.02,2.21-.14,4.41-.35,6.62-.33,1.16,0,2.33.09,3.48-.1.42-.07.8.07,1.15.31.56.69.56,1.46.35,2.27-.07.22-.2.38-.41.49-.3.16-.63.15-.95.16-5.36.19-10.72.17-16.08.17-1.63,0-3.25.04-4.88,0-3.24-.1-6.49-.14-9.73-.35-.69-.05-1.41-.05-2.08-.27-.24-.16-.41-.36-.26-.67Z"/>
      <path class="cls-9" d="M76.67,41.4c-.06-.72-.12-1.44-.18-2.16-.45-.73-.08-1.52-.15-2.28.16-.31.32-.61.47-.92,0,.19,0,.38,0,.57-.01,1.42.12,1.38,1.61,1.33,3.56-.13,7.07-.91,10.64-.8.32,0,.66-.07,1,.31-1.04.25-2,.52-3,.69,1.37-.15,2.74.09,4.08-.08.97-.13,1.93-.11,2.9,0,.96.1,1.95.05,2.92.06.32,0,.67-.05.95.15.32.22,1.19.39.14.87-.12.06.04.09.09.11.05.02.11.02.16.03-.02.04-.04.08-.06.12-.34.5-.91.44-1.39.51-3.58.58-7.18.89-10.81,1.03-1.94.07-3.86.49-5.79.7-.98.11-1.95.07-2.92.07-.25,0-.48-.07-.65-.27Z"/>
      <path class="cls-9" d="M76.34,36.96c.5.39.27.93.26,1.41,0,.29-.08.58-.12.87-.64-.19-1.28-.02-1.91-.01-3.11.03-6.22,0-9.33,0,.52-.27,1.11-.22,1.66-.27,2.61-.23,5.14-.78,7.64-1.6.57-.18,1.16-.46,1.8-.41Z"/>
      <path class="cls-14" d="M42.46,40.88l.15.48c.03.23-.06.39-.25.5-.98.29-1.99.18-2.98.09-.68-.06-1.35-.1-2.02-.11-3.22-.03-6.42-.4-9.62-.75-2.98-.33-5.96-.7-8.92-1.2-.24-.04-.48-.09-.71-.15-.14-.07-.24-.17-.25-.34,1.04-1.23,2.33-1.86,3.98-1.67.85.1,1.72.06,2.57.19,1.91.1,3.81.2,5.72.3,3.45,1.05,6.99,1.64,10.55,2.16.61.09,1.2.33,1.79.49Z"/>
      <path class="cls-16" d="M24.4,37.93c-1.23.08-2.46-.06-3.7.12-.86.13-1.49.57-2.1,1.07-.24.19-.43.27-.7.27-.75.49-1.52.39-2.45-.31-.76-.1-1.43-.47-2.12-.76-.47-.19-.62-.69-.65-1.2,0-.17.01-.34.02-.51,1.16-.22,2.3.08,3.43.2,2.64.27,5.28.63,7.91.96.13.02.25.09.37.14Z"/>
      <path class="cls-15" d="M112.32,51.7c.48.03,1.14-.78,1.41.29-.23.13-.44.12-.62-.08-.23-.21-.53-.14-.79-.21Z"/>
      <path class="cls-9" d="M47.03,242.34c-2.05.61-4.1.93-6.19.16-.07-.43-.37-.71-.66-.99-1.12-1.1-2.34-2.08-3.72-2.86-.87-.59-1.77-1.13-2.62-1.75-.32-.24-.67-.46-.8-.88-.07-.28,0-.54.14-.78.36-.62.18-1.17-.29-1.61-2.14-2.02-2.67-4.63-2.77-7.4-.03-.7-.03-1.41.01-2.11.03-.5.21-.92.77-.99.58-.06.8.32.9.83.15.74.38,1.47.08,2.23-.04.1-.09.24-.01.31.59.57.57,1.43,1.11,2.1.58.73,1.38,1.41,1.64,2.43.23.89,1.04,1.34,1.8,1.65.61.25,1.13.61,1.68.92.46.26.85.49,1.42.4.36-.06.74.13,1.11.22.39.1.75.1,1.05-.22.28-.2.6-.25.92-.26,2.55-.11,4.5-1.24,5.83-3.43,2.24-3.71,2.45-7.54.71-11.49-.28-.65-.76-1.16-1.17-1.72-.28-.6-.96-.93-1.06-1.64.05-.23.23-.36.42-.46.89-.5,2.62-.17,3.46.4,1.01.69,1.94,1.52,3.05,2.05.47.24.66.73.96,1.12,1.42,2.27,1.99,4.79,2.13,7.43-.19.94.03,1.89-.1,2.83-.43,3.11-2.01,5.63-4.03,7.92-1.01,1.14-2.11,2.14-3.58,2.73-.92.37-1.63,1.15-2.34,1.85-.36.36-.44.75.14,1.02Z"/>
      <path class="cls-16" d="M54.53,218.57c-.29-.32-.41-.76-.8-1.01-1.1-.72-2.03-1.68-3.17-2.34-2.24-1.3-4.43-2.72-7.05-3.19-.48-.08-.98-.09-1.39-.39-.45-.22-.98-.28-1.38-.61-.34-.28-.63-.6-.54-1.09.09-.49.53-.46.88-.54.11-.03-.02.02.08-.02.09-.04-.03-.06-.03-.09,1.74-.34,3.46-.1,5.15.28,4.75,1.08,8.33,3.75,10.71,8.01-.05.49-.59.25-.65.24-.61-.08-1.21.55-1.77.1.04.18.54.41-.04.65Z"/>
      <path class="cls-9" d="M47.03,242.34h-1.09c.8-1.61,2.05-2.65,3.65-3.34,1.32-.57,2.29-1.61,3.2-2.68,1.89-2.21,3.37-4.62,3.76-7.59.12-.89.03-1.78.11-2.67.56.29.01.79.23,1.1.07-.27-.2-.69.23-.87.41-.17.72.12,1,.37.39.35.93.57.96,1.2-.34,4.73-2.29,8.58-6.08,11.5-1.81,1.39-3.79,2.36-5.97,2.98Z"/>
      <path class="cls-16" d="M33.2,235.99c1.02.98,2.26,1.64,3.39,2.46-.15.51-.52.31-.75.16-.71-.44-1.47-.48-2.27-.44-.84.05-1.55-.39-2.29-.72-3.32-3.53-4.79-7.74-4.57-12.56,0-.16.07-.31.1-.47.1.07.1.18.1.29,0,.1,0,.2,0,.25-.01-.6.07-1.24.15-1.88.07-.57.42-.85.95-.96.6-.13.8.03.74.66-.03.34.06.64.12.96.2,1.42-.06,2.86.21,4.28.28,1.49.69,2.94,1.36,4.31.4.81.9,1.53,1.57,2.14.48.44.95.89,1.18,1.52Z"/>
      <path class="cls-14" d="M28.63,223.79c-.34-.45-.09-.93-.05-1.4-1.2.06-1.3.16-1.42,1.3-.06.61-.15,1.22-.28,1.84-.02-.37-.05-.73-.07-1.1.52-5.65,3.36-9.86,8.07-12.88,1.9-1.22,3.87-2.28,6.23-2.25.16.02.31.05.49.08-.41.29-1.32.01-1.19.78.13.75.85,1.05,1.61,1.11.07,0,.15.04.22.05-.05.05-.11.1-.16.14-.21.27-.52.27-.82.27-4.39-.04-7.45,2.25-9.84,5.66-1.11,1.59-1.87,3.35-2.31,5.25-.09.41-.11.87-.51,1.16Z"/>
      <path class="cls-9" d="M59.08,227.86c-.39-.59-1.12-.75-1.56-1.31-.23-.3-.53-.12-.56.31-.02.26.08.53-.09.8-.2-.53.09-1.1-.21-1.59-.21-2.53-.64-5-2.03-7.19-.05-.09-.06-.2-.09-.31.29-.53-.37-.7-.44-1.22.47.4.9.83,1.43.21.22-.26.84.53.93-.29.22.03.15.55.53.31,1.01,1.24,1.32,2.77,1.68,4.26.48,1.98.76,3.98.41,6.03Z"/>
      <path class="cls-9" d="M31.29,237.46c.4-.07.76-.09,1.14.17.37.25.81.33,1.31.26.78-.12,1.56-.04,2.21.5.18.15.39.34.63.08,1.66.83,3.01,2.08,4.29,3.38.16.16.49.49-.05.67-1.8-.27-3.58-.6-5.19-1.49-1.66-.92-3.16-2.05-4.35-3.56Z"/>
      <path class="cls-16" d="M46.36,195.62c-2.68,0-4.08-2.16-2.99-4.51.49-1.06,1.91-1.75,3.05-1.51.58.12.66.46.34.87-.28.36-.66.64-.99.95-.42.4-.75.86-.72,1.49.02.43-.06.88.49,1.09.56.21,1.06.14,1.49-.29.46-.46.64-1.06.81-1.66.13-.45.29-.44.6-.15.91.85.61,2.72-.58,3.34-.48.25-1,.41-1.5.38Z"/>
      <path class="cls-16" d="M90,243.03c-.73-.49-1.53-.91-1.78-1.86-.05-.63-.36-1.18-.54-1.76-.56-1.75.08-3.19.99-4.58.69-1.05,1.71-1.8,2.64-2.62.33-.29.82-.4,1.3-.44.09.02,0-.12,0,0,0,.01-.03,0-.08,0-.17,0-.32-.02-.41-.19,1.74-.41,3.32-.07,4.74,1.02.67.23.99.83,1.09,1.41.26,1.57.53,3.15.19,4.76-.47,2.24-1.79,3.86-3.73,4.96-1.4.8-3.39.42-4.41-.7Z"/>
      <path class="cls-9" d="M90,243.03c.36-.04.61.21.89.35,1.59.79,3.04.55,4.38-.56,2.3-1.91,3.05-4.35,2.6-7.27-.17-1.06-.34-2.08-1-2.95.6-.31,1.04.13,1.46.4,2.75,1.8,3.97,5.03,3.15,8.23-.78,3.03-4.38,5.13-7.37,4.19-1.4-.44-2.8-.98-4.05-1.81-.31-.2-.37-.36-.05-.58Z"/>
      <path class="cls-14" d="M92.12,231.58h1.1c-.14.29-.38.27-.56.35-2.43,1.07-4.07,2.9-4.87,5.39-.32,1,.02,2.09.34,3.11.07.24.35.46.08.74-2.77-5.02.6-8.82,3.91-9.58Z"/>
      <path class="cls-16" d="M93.89,208c-1.16.02-2.32.02-3.48.05-.77.02-1.2-.24-1.29-1.08-.09-.87-.18-1.72.01-2.57.18-.79.65-1.27,1.53-1.27,1.08,0,2.16-.05,3.23.17.52.17.74.54.85,1.07.2.94.12,1.88.13,2.82,0,.68-.5.73-.98.81Z"/>
      <path class="cls-9" d="M93.89,208c.52-.13.7-.45.68-.99-.02-.94-.04-1.88-.17-2.82-.05-.39-.32-.61-.51-.89,1.59-.85,3.74.07,4.29,1.8.34,1.07-.29,1.8-.89,2.46-.53.58-1.28.92-2.14.67-.42-.12-.83-.24-1.27-.22Z"/>
      <path class="cls-11" d="M58.09,154.62c-.11-1.09.2-2.09.71-3.03.04-.07.07-.14.11-.22.15-.33.31-.72-.14-.9-.48-.2-.67.19-.8.57-.08.25-.05.58-.41.62-.37.04-.4-.28-.47-.54-.11-.42-.47-.36-.79-.39q-1.45-.14-1.46-1.59c0-1.08-.27-1.29-1.33-1.08-.95.19-1.44-.15-1.42-1.11.02-.73-.24-1.41-.24-2.38-.44.78-.89,1.18-1.59,1.24-.19.02-.3.23-.3.44,0,.76-.71,1.02-1.07,1.53-.12.17-.38.18-.58,0-.18-.42.08-.73.26-1.05,3.15-5.76,6.06-11.64,8.65-17.67,2.54-5.9,5.08-11.8,7.53-17.74,1.58-3.84,2.94-7.76,4.46-11.61,1.86-4.72,3.57-9.49,5.7-14.1.78-1.7,1.22-3.54,2.05-5.22.47-.96.91-1.88,2.24-1.71.19.02.41-.12.62-.18,2.11-.28,4.21-.61,6.32-.92.76-.11,1.62-.42,2.22.43.26.28.25.55.02.86-1.2,1.62-2.07,3.44-2.65,5.34-.59,1.93-1.2,3.86-1.72,5.82-.06.24-.07.49.15.67.29.34.11.68-.03.99-1.06,2.38-1.82,4.87-2.69,7.32-1.12,3.82-2.32,7.6-3.75,11.32-.87,2.25-1.64,4.53-2.52,6.78-1.6,4.1-3.59,8.01-5.46,11.99-2.2,4.69-4.35,9.4-6.57,14.07-.95,1.99-1.7,4.04-2.44,6.1-.42-.38-.44.13-.49.27-.64,1.64-1.54,3.18-1.99,4.9-.02.07-.09.13-.13.2Z"/>
      <path class="cls-14" d="M88.36,77.99c-1.83-.58-3.56.25-5.34.39-1.1.08-2.2.26-3.29.4-2.08-.01-4.02-1.08-6.14-.81-.35.04-.65.1-.99.27-2.02,1.01-3.88,1.62-6-.05-.48-.37-.9-.55-1.47-.31-.22.09-.48.1-.72.09-1.36-.05-2.71,0-3.98.56-.02.01-.05.02-.08.02-1.58-.18-2.98.65-4.49.81-.61.06-.96.4-1.36.75-.17-.19-.21-.5-.57-.51-2.04-.03-4.08-.27-6.13-.09-.37.03-.73.19-1.09.28-.14-.03.13-.38-.21-.25-.28.1-.57.17-.84.3-1.29.62-2.7.9-4.04,1.38-.25.09-.42.2-.54.44-.14.27-.31.52-.69.43-.1-.03-.2-.11-.31-.1-2.29.23-4.5-.43-6.75-.65-1.62-.16-3.24-.06-4.86-.1-1.36-.03-2.6-.39-3.71-1.2-.12-.15-.19-.33-.22-.52-.55-2.41-.78-4.86-.75-7.33,0-.14-.05-.27-.06-.4,0-.27.14-.45.38-.56,1.29-.88,2.45-1.97,4.01-2.42,1.01-.29,2.02-.6,3.09-.6,1.41,0,2.82-.04,4.23.01,1.29.05,2.51-.35,3.76-.5,1.42-.17,2.76-.77,4.21-.73.7.03,1.38.21,2.09.26,2.13.12,4.19-.2,6.24-.78,2.36-.67,4.75-.63,7.12.02,1.09.3,2.23.38,3.32.7,1.28.37,2.51.85,3.69,1.47,1.93,1,3.96,1.7,6.07,2.22.96.24,1.94.12,2.87.42.34.24.74.23,1.1.15,1.4-.29,2.84-.36,4.25-.48,2.96-.26,5.94-.36,8.9.07.8.12,1.4-.13,2.03-.56.44-.3.77-.89,1.46-.63-.13,1.28-.42,2.52-.83,3.75-.41,1.2-.93,2.33-1.91,3.18.36.36.74-.13.97.24-.85.24-1.65.62-2.46.98Z"/>
      <path class="cls-14" d="M60.7,149.25c-.04-1.43.54-2.71,1.11-3.95,2.33-5.09,4.72-10.15,7.09-15.22,2.26-4.82,4.7-9.57,6.57-14.56,1.55-4.12,3.12-8.24,4.41-12.46.42-1.37.88-2.73,1.32-4.09.24-.33.4-.19.45.11.06.34,0,.67-.16.99-.46,1.07-.6,2.23-.89,3.35-1.57,6.06-3.35,12.05-5.71,17.85-2.36,5.82-4.96,11.53-7.79,17.14-1.46,2.9-2.83,5.85-4.61,8.58-.53.81-1,1.67-1.81,2.26Z"/>
      <path class="cls-14" d="M81.51,100.07c-.17-.35.42-.9-.29-1.1.46-1.63.98-3.25,1.6-4.83.45-1.15.9-2.3,1.35-3.46.26-.5.52-1,.78-1.5.08-.1.2-.23.31-.12.18.18.15.41.01.62-.83,1.9-1.36,3.91-2.11,5.85-.58,1.5-.96,3.08-1.65,4.54Z"/>
      <path class="cls-11" d="M85.26,89.68c-.08-.18.2-.6-.32-.5.22-.48.23-1.1.88-1.44,0,.76-.29,1.34-.56,1.93Z"/>
      <path class="cls-14" d="M46.38,111.54c-.63.75-1.05,1.63-1.51,2.49-1.84,3.44-3.73,6.85-5.35,10.39-1.87,4.12-3.52,8.33-4.74,12.69-.53,1.9-.9,3.84-1.12,5.81-.05.45-.2.9-.33,1.34-.05.18-.16.38-.38.38-.25,0-.22-.26-.29-.43-1.26-2.89-1.08-5.93-.91-8.96.17-3.06.77-6.06,1.53-9.03,1.04-4.05,2.56-7.92,4.25-11.74,1.95-4.38,4.01-8.7,6.38-12.87,2.09-3.67,4.32-7.25,6.56-10.83,1.57-2.52,3.15-5.06,4.05-7.94.09-1.21,1.15-1.75,1.79-2.58.21-.27.56-.32.89-.33.6-.03,1.2-.06,1.79,0,.92.1,1.82.2,2.69-.25.24-.12.55-.11.8,0,.65.25,1.33.22,2,.25.9.05,1.09.26,1.13,1.22.06-.4.17-.79.54-.98.34-.18.69-.47,1.12-.2.21.42-.05.73-.26,1.04-2.9,4.19-5.79,8.38-9,12.35-1.78,2.19-3.19,4.65-4.55,7.11-1.53,2.75-3.36,5.31-5,7.99-.2.32-.38.65-.59.97-.33.33-.52.74-.68,1.18-.24.34-.3.84-.83.92Z"/>
      <path class="cls-11" d="M46.38,111.54c.2-.35.4-.7.6-1.04.5-.22.49-.74.69-1.14.76-1.44,1.61-2.82,2.56-4.14.64-.89,1.24-1.81,1.75-2.77,2.9-5.53,6.75-10.42,10.47-15.39,1.68-2.25,3.27-4.57,4.77-6.95.26-.86.35-.92,1.46-.91.57-.03,1.15.07,1.72-.08.84-.38,1.75-.35,2.63-.43.73-.06,1.02.33.86,1.1-.22,1.03-.54,2.05-.92,3.03-1.83,4.63-3.28,9.41-5.13,14.03-1.22,3.04-2.58,6.02-4.02,8.96-1.65,3.35-3.19,6.76-4.84,10.11-.17.34-.33.68-.63.93-.4.3-.62.7-.66,1.21-.02.11-.05.22-.11.32-.29.33-.6.66-.59,1.15-.06.15-.15.26-.28.35-.57.14-.22.64-.36.95-.02.07-.05.14-.09.21-.54.67-.98,1.38-1.17,2.24-.02.12-.06.22-.13.32-.45.24-.54.67-.6,1.12-.04.07-.1.12-.17.15-.89-.39-.91-1.65.05-2.34.66-.48.76-.95.46-1.65-.26-.6-.08-1.41-.93-1.72-.15-.05-.23-.42-.17-.67.24-1.13.08-2.27.11-3.4.02-.87-.31-1.15-1.17-1.11-1.36.06-1.38.04-1.43-1.33,0-.19,0-.39-.07-.56-.13-.39-.01-.62.38-.74.59-.17.72-.51.55-1.11-.27-.97.27-1.61,1.3-1.64q1.09-.03,1.09-1.09c0-.43,0-.86,0-1.34-.27.18-.47.4-.7.44-.6.13-.91.41-1.28.97-.4.62-1.1,1.15-1.74,1.63-.61.46-.91,1.11-1.15,1.76-.34.9-1.1,1.38-1.83,1.7-.35.15-1.12-.39-1.28-1.08Z"/>
      <path class="cls-14" d="M68.68,79.42c-.62-.07-1.14.11-1.46.68-1.29.02-1.26,1.15-1.75,1.97-.07-.32-.25-.67-.18-.97.18-.76-.17-.88-.8-.86-.69.02-1.39.09-2.06-.27-.29-.15-.69-.11-1.01.13-.53.39-1.11.36-1.71.23-.21-.05-.43-.07-.64-.08-2.32-.07-2.56.04-4.05,1.73-.21.23-.18.5-.18.77,0,.36-.15.26-.32.11,0-.22.02-.44.02-.66.07-.65.09-1.3,0-1.95-.02-.05-.03-.1-.04-.15,0-.71.27-1.01,1.08-1.04.7-.03,1.54.08,2.1-.62.18-.23.51-.15.77-.13,1.06.06,2.1-.04,3.08-.48.57-.25,1.17-.14,1.76-.18.77-.04,1.57.16,2.3-.28.18-.11.49-.1.61.07.47.68,1.34.75,1.89,1.3.3.31,1.98.33,2.33.02.27-.24.55-.33.88-.31.49.03.92-.04,1.13-.57.11-.29.4-.22.64-.24,1.63-.09,3.24,0,4.77.6.62.24,1.37-.04,1.89.53-1.96-.15-2.46,1.37-2.93,2.73-1.39,3.96-3.24,7.73-4.72,11.65-1.95,5.13-3.86,10.27-5.87,15.38-1.46,3.7-3.05,7.34-4.59,11.01-2.29,5.46-4.52,10.95-7.12,16.27-1.6,3.28-3.26,6.53-4.91,9.78-.38.75-.84,1.45-1.26,2.18-.56.53-.85,1.25-1.28,1.87-.53.77-1.15,1.44-1.89,2-.53.41-.8.26-.9-.39-.25-1.62.37-3.1.76-4.6,1.33-5.16,3.56-9.97,5.8-14.79,1.1-2.36,2.3-4.66,3.36-7.03.03-.03.03-.07.03-.11.16-.42.21-.9.6-1.2.02-.09.03-.17.05-.26.35-.81.69-1.64,1.25-2.34.03-.04.04-.09.04-.14.16-.33.1-.78.5-.99.05-.1.11-.19.16-.29.1-.44.25-.86.6-1.17.02-.09.04-.18.06-.27.18-.47.37-.94.69-1.33.87-1.74,1.79-3.46,2.6-5.22,2.01-4.38,4.26-8.65,6.1-13.1,1.45-3.5,2.73-7.06,3.94-10.66.87-2.62,2-5.14,2.76-7.8.27-.94.09-1.12-.86-.96-.74.13-1.49.2-2.23.3-.58.19-1.2-.05-1.79.13Z"/>
      <path class="cls-14" d="M40.53,82.05c.23-.91.96-1.06,1.74-1.35,1.26-.47,2.62-.69,3.81-1.38.21-.12.55-.15.76.03.14.12-.11.27-.12.43-1.53,1.57-2.27,3.61-3.17,5.53-2.11,4.48-4.13,9.01-6.14,13.53-1.79,4.03-3.25,8.19-4.45,12.44-.67,2.37-1.37,4.72-1.75,7.15-.34,2.2-.32,4.43-.42,6.64-.08,1.71-.07,3.42-.05,5.12,0,.61-.48,1.16-.25,1.73.41,1,.19,2.02.22,3.04,0,.15.06.32-.15.48-.4-.89-.34-1.84-.42-2.75-.29-3.59-.89-7.14-1.27-10.72-.13-1.24-.1-2.49-.37-3.71-.27-.15-.35-.42-.35-.69-.02-3.1-.18-6.22.47-9.29.05-.24.14-.47.18-.71.9-2.7,2.26-5.21,3.33-7.84.99-2.43,1.91-4.9,2.89-7.33,1.33-3.3,2.92-6.47,4.67-9.56.19-.34.36-.75.84-.81Z"/>
      <path class="cls-11" d="M29.14,107.45c-.81,3.58-.69,7.21-.64,10.84-.02.75-.29,1.41-.67,2.2-.34-1.21-.6-2.35-1.09-3.2-.59-1.02-.39-2.03-.6-3.02-.09,0-.18,0-.27,0,0,.64.01,1.27,0,1.9,0,.3.15.67-.28.84-.63-4.86-1.28-9.71-1.83-14.58-.6-5.35-1.27-10.7-1.96-16.04-.35-2.71-.56-5.44-1.11-8.13-.04-.21-.02-.43-.02-.65.22-.21.5-.25.75-.13,1.19.58,2.51.94,3.45,1.97.01.15.03.3.04.45.58.83.52,1.81.61,2.74.23,2.31.57,4.62.64,6.94.06,2.25.36,4.48.7,6.69.39,2.54.8,5.07,1.18,7.61.07.49.32.8.81,1.01.83.35.95.72.54,1.53-.17.33-.13.68-.25,1.01Z"/>
      <path class="cls-11" d="M57.12,154.29c-.71.19-1.42.21-2.13.01.71-.25,1.42-.17,2.13-.01Z"/>
      <path class="cls-11" d="M49.6,154.15c-.01.2-.13.29-.31.29-.24,0-.43-.12-.41-.38,0-.2.19-.23.36-.23.21,0,.36.08.37.32Z"/>
      <path class="cls-11" d="M48,149.78c-.24.02-.3-.16-.31-.36,0-.18-.05-.42.23-.41.2,0,.35.13.38.35.03.22-.08.35-.3.42Z"/>
      <path class="cls-11" d="M49.56,148.73c.23.08.23.28.22.47,0,.19-.04.43-.27.43-.27,0-.2-.28-.2-.45,0-.18,0-.39.25-.45Z"/>
      <path class="cls-11" d="M54.9,153.42c.19-.39.43-.44.7-.38.11.02.17.14.09.24-.19.26-.45.19-.8.14Z"/>
      <path class="cls-14" d="M54.54,80.25c.24.65.21,1.3,0,1.96,0-.65,0-1.3,0-1.96Z"/>
      <path class="cls-14" d="M24.26,71.4c-.16.09-.31.18-.31.4-.06.15-.12.32-.27.39-1.12.51-1.72,1.59-2.59,2.37-.2.18-.34.53-.72.31-.5-3.31-1-6.62-1.5-9.94-.57-3.77-1.15-7.54-1.68-11.31-.3-2.14-.44-4.3-.78-6.44-.39-2.43-.18-4.93-.9-7.31-.08-.27.11-.54-.08-.79.81.13,1.62.37,2.45.31.07.06.13.12.2.18.45.2.58.62.71,1.04.67,2.21,1.02,4.49,1.51,6.74,1.26,5.8,2.39,11.62,3.36,17.47.3,1.82.48,3.65.72,5.48.05.36.11.76-.13,1.1Z"/>
      <path class="cls-13" d="M20.38,74.87c.63-.77,1.42-1.39,2.01-2.22.33-.46,1-.65,1.57-.86.34.89.22,1.83.27,2.73.09,1.67.37,3.3.65,4.94-1.07-.52-2.14-1.04-3.2-1.57-.32-.16-.64-.3-1-.27-.15-.91-.41-1.82-.3-2.76Z"/>
      <path class="cls-1" d="M92.6,69.84c-.44.35-.92.67-1.37,1.03-.58.47-1.33.76-2.09.51-.64-.21-1.27-.22-1.92-.22-1.95-.01-3.91-.15-5.85.03-1.52.14-3.07.1-4.56.56-.57.17-1.18.1-1.78.03-.16-.02-.24-.1-.18-.27-.38-1.07,0-2.15.07-3.21.06-1.05.2-2.11.21-3.15.03-2.03.14-4.06.24-6.08.16-3.1.21-6.21.41-9.31.1-1.56.27-3.13.2-4.7-.04-.93.21-1.83.19-2.75,0-.26.13-.46.29-.65.07-.09.14-.18.21-.27,2.2.03,4.38-.19,6.55-.52,2.71-.42,5.46-.35,8.17-.65,2.29-.25,4.56-.58,6.85-.87.34.05.33.32.32.56-.29,5.23-1.24,10.33-2.84,15.32-.86,2.68-1.32,5.46-1.82,8.22-.23,1.27-.48,2.55-.75,3.81-.16.74-.33,1.47-.37,2.23-.06.11-.12.23-.18.34Z"/>
      <path class="cls-4" d="M76.46,41.67c-.12,2.86-.22,5.72-.39,8.58-.09,1.51-.1,3.02-.19,4.53-.2,3.51-.25,7.02-.42,10.53-.09,1.91-.29,3.82-.45,5.73-.01.15-.11.3-.17.44-3.42-.05-6.5-1.26-9.51-2.73-1.6-.78-3.25-1.34-5.04-1.65-1.8-.31-3.57-.87-5.4-.81-1.47.05-2.94.31-4.36.78-1.03.33-2.09.51-3.18.45-1.29-.07-2.6.18-3.85-.31-.49-.29-.41-.79-.41-1.23.01-3.3-.3-6.58-.39-9.87-.12-4.42-.48-8.84-.43-13.27,0-.4-.06-.82.18-1.18.04-.1.09-.2.13-.31,1.76.09,3.51.2,5.27.27,9.34.34,18.68.2,28.02.04.19,0,.38,0,.57,0Z"/>
      <path class="cls-1" d="M42.47,41.67c.17.33.13.69.13,1.04.04,2.09.02,4.17.14,6.26.28,5.27.37,10.56.71,15.83.05.81.04,1.63.06,2.44-1.51.31-3.01.7-4.53.91-.95.13-1.87.46-2.86.42-1.62-.07-3.25-.03-4.88-.02-1.74.01-3.36.56-4.83,1.39-.74.42-1.31,1.15-2.15,1.47-.4-1.88-.52-3.8-.8-5.7-.61-4.09-1.41-8.16-2.21-12.21-.75-3.76-1.56-7.52-2.35-11.27-.19-.9-.46-1.78-.8-2.64,1.29-.11,2.52.3,3.77.47,3.43.45,6.87.85,10.32,1.16,3.43.31,6.86.38,10.29.46Z"/>
      <path class="cls-9" d="M49.3,218.59c1.15,1.93,1.46,4.04,1.25,6.23-.08.88-.2,1.78-.45,2.63-.86,2.9-2.37,5.27-5.43,6.27-.64.21-1.3.34-1.99.33-.29,0-.6-.08-.85.17-.28.23-.63.19-.93.13-1.25-.24-2.5-.43-3.59-1.23-.57-.42-1.28-.65-1.74-1.24-.22-.28-.47-.54-.33-.94.23-.34.58-.36.94-.33,1.1.09,1.98-.36,2.79-1.07,1.59-1.41,2.57-3.17,3.19-5.17.71-2.3,1.25-4.64,1.49-7.04.03-.35.11-.69.29-1.01.07-.11.16-.19.28-.25.71-.1,1.2.41,1.76.68,1.15.54,2.46.8,3.33,1.84Z"/>
      <path class="cls-12" d="M35.3,230.97c.25.67.79,1.13,1.34,1.48,1.58.99,3.21,1.91,5.19,1.77-.27.55-.76.32-1.15.26-.58-.09-1.12-.3-1.74-.15-.52.13-.87-.42-1.22-.67-.75-.53-1.67-.68-2.38-1.27-.53-.44-.99-.86-1.1-1.6-.06-.42-.24-.85-.8-.87-.15,0-.34-.09-.32-.19.22-.81-.4-1.07-.87-1.45-.12-.1-.14-.34-.18-.52-.03-.13.05-.35-.02-.39-1.04-.77-.03-1.77-.32-2.62-.1-.3-.12-.64-.2-.95-.07-.28-.21-.52-.56-.46-.29.05-.51.19-.53.52-.14,2.92,0,5.8,1.58,8.39.26.43.7.75,1.06,1.12.8.82.83,1.15.23,2.17-.08.13-.07.3-.1.46-3.03-2.25-4.22-5.44-4.55-9.04-.1-1.05-.02-2.11-.02-3.16.48-3.46,1.98-6.44,4.45-8.89,2.48-2.46,5.44-3.8,9.02-3.45,1.26.29,2.56.38,3.75.93,2.89,1.33,5.71,2.76,7.88,5.18-.5.19-.73-.27-.97-.5-.77-.76-1.97-.91-2.58-1.88-.34-.54-.82.02-1.27-.12-.65-.19-1.34-.04-1.89.45-.28.12-.46-.08-.65-.22-1.56-1.15-3.29-1.82-5.23-2.02-.89-.09-1.74-.05-2.56.27-2.11.83-3.91,2.1-5.25,3.95-.99,1.37-1.35,2.92-1.21,4.6.04.46-.03.92.08,1.37.08.94.37,1.85.56,2.77.59,1.43,1.33,2.78,2.3,4,.17.22.31.45.24.74Z"/>
      <path class="cls-14" d="M31.92,223.46c-.06-.89-.18-1.78-.11-2.67.19-2.48,1.57-4.24,3.42-5.74,2.61-2.12,5.47-2.72,8.64-1.49,1.16.45,2.2,1.14,3.15,1.95.38.48.77.96,1.16,1.43-.44.3-.65-.09-.86-.33-.52-.61-1.17-1.03-1.83-1.46-.42-.27-.69-.25-.81.29-.06.26-.14.53-.41.67-.05.07-.1.14-.16.21-.45.43-1.04.42-1.6.46-2.12.16-4.13.58-5.66,2.25-.4.44-.83.86-1.32,1.19-.46.27-.88.49-1.05-.32-.1-.48-.42-.2-.61-.05-.88.72-1.31,1.69-1.51,2.78-.06.31.05.74-.44.83Z"/>
      <path class="cls-16" d="M44.26,216.11c.36-1.78.34-1.75,1.84-.89.63.36,1.11.84,1.56,1.38.14.17.25.36.51.34.47.49.78,1.08,1.13,1.65-1.11-.52-2.21-1.07-3.34-1.55-.6-.25-1.18-.53-1.7-.93Z"/>
      <path class="cls-13" d="M29.14,107.45c0-.35-.12-.74.08-1.03.48-.71.18-1.09-.52-1.2-.96-.15-.94-.87-1.04-1.56-.27-1.84-.49-3.69-.83-5.51-.48-2.65-.77-5.33-.98-8.01-.16-2.04-.19-4.09-.56-6.12-.24-1.35-.26-2.73-.38-4.1,1.6.83,3.29,1.1,5.08.99,2.71-.17,5.37.35,8.03.75.67.1,1.35.16,2-.08.52-.19.63.01.51.48-2.08,3.52-3.89,7.17-5.41,10.97-1.25,3.13-2.33,6.34-3.8,9.38-.8,1.66-1.44,3.37-2.17,5.05Z"/>
      <path class="cls-11" d="M47.66,109.36c.02.53.07,1.08-.69,1.14.16-.42.37-.82.69-1.14Z"/>
      <path class="cls-11" d="M49.19,108.48c.19.41.11.76.1,1.1,0,.23.17.62-.23.67-.34.04-.49-.31-.63-.56-.15-.27-.24-.61.13-.75.24-.09.37-.29.62-.46Z"/>
      <path class="cls-11" d="M55.33,118.49c.04-.32.02-.71.49-.77.24-.03.34.17.29.37-.09.35-.15.8-.54.9-.25.07-.22-.29-.25-.5Z"/>
      <path class="cls-11" d="M56.11,120.94c-.36.81-.71,1.63-1.25,2.34.12-.94.51-1.73,1.25-2.34Z"/>
      <path class="cls-11" d="M54.81,123.54c-.09.46-.31.84-.6,1.2.01-.49-.19-1.1.6-1.2Z"/>
      <path class="cls-11" d="M56.65,119.8c-.1.37-.25.7-.5.99-.03-.41.08-.84-.33-1.3.39.15.61.23.82.31Z"/>
      <path class="cls-11" d="M58.16,116.73c-.14.49-.34.95-.69,1.33-.02-.58.16-1.04.69-1.33Z"/>
      <path class="cls-11" d="M57.41,118.33c-.2.39-.4.78-.6,1.17-.07-.53.04-.96.6-1.17Z"/>
      <path class="cls-14" d="M68.68,79.42c.58-.29,1.19-.11,1.79-.13-.58.28-1.19.12-1.79.13Z"/>
      <path class="cls-9" d="M35.31,220.05c.85-.7,1.54-1.57,2.44-2.22,1.36-.97,2.93-1.15,4.5-1.35.61-.08,1.23-.1,1.85-.15-.35,2.54-.72,5.07-1.47,7.54-.67,2.21-1.61,4.23-3.34,5.82-.96.88-2.01,1.45-3.37,1.21-.2-.03-.42.05-.63.08-1.15-1.38-2.15-2.85-2.73-4.58.69-1,.76-2.14.83-3.3.07-1.07.61-1.93,1.47-2.58.18-.13.32-.29.44-.47Z"/>
      <path class="cls-4" d="M35.31,220.05c-.03.43-.38.65-.63.91-1.08,1.12-1.01,2.56-1.14,3.92-.07.73-.32,1.22-.97,1.52-.38-.94-.57-1.92-.65-2.93.16-1.2.39-2.37,1.21-3.33.17-.2.32-.42.56-.56.95-.57.91-.57,1.14.49.1.49.32-.06.48-.02Z"/>
    </g>
  </g>
</svg>